<?xml version="1.0" encoding="UTF-8"?>
<svg width="54px" height="54px" viewBox="0 0 54 54" version="1.1" xmlns="http://www.w3.org/2000/svg" xmlns:xlink="http://www.w3.org/1999/xlink">
    <title>icon-earlykeepers</title>
    <g id="Early-User" stroke="none" stroke-width="1" fill="none" fill-rule="evenodd" stroke-linecap="round" stroke-linejoin="round">
        <g id="Primex---Early-User" transform="translate(-629.000000, -1431.000000)" stroke="#00DC7D" stroke-width="2">
            <g id="face-id-7" transform="translate(-371.000000, 1046.000000)">
                <path d="M1053,427.6 L1053,434.533333 C1053,436.44792 1051.44792,438 1049.53333,438 L1042.6,438" id="Path"></path>
                <path d="M1042.6,386 L1049.53333,386 C1051.44792,386 1053,387.55208 1053,389.466667 L1053,396.4" id="Path"></path>
                <path d="M1001,396.4 L1001,389.466667 C1001,387.55208 1002.55208,386 1004.46667,386 L1011.4,386" id="Path"></path>
                <path d="M1011.4,438 L1004.46667,438 C1002.55208,438 1001,436.44792 1001,434.533333 L1001,427.6" id="Path"></path>
                <path d="M1033.70222,431.066667 L1033.70222,423.268978 L1035.32,423.541689 C1036.72663,423.775263 1038.1648,423.378459 1039.25264,422.45664 C1040.34049,421.534822 1040.96793,420.181264 1040.96836,418.755378 L1040.96836,414.773333 L1042.47982,414.394311 C1043.24525,414.203565 1043.87002,413.652342 1044.15464,412.916641 C1044.43927,412.180941 1044.34816,411.352762 1043.9104,410.696533 L1040.98222,406.291556 L1040.98222,405.078222 C1040.98222,397.913778 1033.7392,392.212267 1025.1072,393.007289 C1018.79172,393.576259 1013.5728,398.171399 1012.20882,404.36402 C1010.84483,410.556641 1013.65022,416.919209 1019.14222,420.088889 L1019.14222,431.066667" id="Path"></path>
            </g>
        </g>
    </g>
</svg>