<?xml version="1.0" encoding="UTF-8"?>
<svg width="54px" height="54px" viewBox="0 0 54 54" version="1.1" xmlns="http://www.w3.org/2000/svg" xmlns:xlink="http://www.w3.org/1999/xlink">
    <title>icon-earlytraders</title>
    <g id="Early-User" stroke="none" stroke-width="1" fill="none" fill-rule="evenodd" stroke-linecap="round" stroke-linejoin="round">
        <g id="Primex---Early-User" transform="translate(-958.000000, -1174.000000)" stroke="#00DC7D">
            <g id="presentation-analytics" transform="translate(958.000000, 1174.000000)">
                <path d="M16.826087,53 L17.9565217,39.4347826 L23.6086957,39.4347826 L23.6086957,31.5217391 C23.6086957,25.2785202 18.5475667,20.2173913 12.3043478,20.2173913 C6.06112891,20.2173913 1,25.2785202 1,31.5217391 L1,39.4347826 L6.65217391,39.4347826 L7.7826087,53 L16.826087,53 Z" id="Path" fill="#00DC7D"></path>
                <circle id="Oval" fill="#00DC7D" cx="12.3043478" cy="8.91304348" r="7.91304348"></circle>
                <line x1="34.9130435" y1="1" x2="34.9130435" y2="5.52173913" id="Path" stroke-width="2"></line>
                <path d="M24.7391304,5.52173913 L50.7391304,5.52173913 C51.9877742,5.52173913 53,6.53396491 53,7.7826087 L53,28.1304348 C53,29.3790786 51.9877742,30.3913043 50.7391304,30.3913043 L28.1304348,30.3913043" id="Path" stroke-width="2"></path>
                <path d="M27,19.3853913 L29.3852174,17.0001739 C29.826652,16.5588726 30.5422176,16.5588726 30.9836522,17.0001739 L32.5662609,18.5827826 C33.0076955,19.0240839 33.723261,19.0240839 34.1646957,18.5827826 L37.7481739,15.0173913 C38.1896085,14.57609 38.9051741,14.57609 39.3466087,15.0173913 L42.1297391,17.8005217 C42.5711737,18.2418231 43.2867393,18.2418231 43.7281739,17.8005217 L48.5031304,13.0233043" id="Path" stroke-width="2"></path>
                <line x1="34.9130435" y1="30.3913043" x2="34.9130435" y2="41.1598261" id="Path" stroke-width="2"></line>
                <line x1="34.8361739" y1="41.1055652" x2="29.2608696" y2="45.0869565" id="Path" stroke-width="2"></line>
                <line x1="34.8361739" y1="41.1055652" x2="40.4092174" y2="45.0869565" id="Path" stroke-width="2"></line>
            </g>
        </g>
    </g>
</svg>