<?xml version="1.0" encoding="UTF-8"?>
<svg width="205px" height="320px" viewBox="0 0 205 320" version="1.1" xmlns="http://www.w3.org/2000/svg" xmlns:xlink="http://www.w3.org/1999/xlink">
    <title>dots-white</title>
    <defs>
        <path d="M0.457631289,141.542884 C0.503301689,125.105405 12.1492536,104.897191 26.3344798,96.6326904 L178.486007,3.54384621 C192.671233,-4.7206544 204.234979,1.96965562 204.190236,18.4162864 L203.732604,177.793932 C203.686934,194.240562 192.040982,214.448776 177.855756,222.704125 L25.7133624,315.802121 C11.5190021,324.05747 -0.0447431088,317.36716 0,300.929681 L0.457631289,141.542884 Z" id="path-1"></path>
    </defs>
    <g id="Landing" stroke="none" stroke-width="1" fill="none" fill-rule="evenodd">
        <g id="Primex---Home" transform="translate(-613.000000, -672.000000)">
            <g id="Hero" transform="translate(-288.861814, -189.500000)">
                <g id="dots-white" transform="translate(901.875845, 861.500000)">
                    <mask id="mask-2" fill="white">
                        <use xlink:href="#path-1"></use>
                    </mask>
                    <g id="Mask"></g>
                    <g id="dots" mask="url(#mask-2)" fill="#FFFFFF">
                        <g transform="translate(-14.014031, -7.000000)">
                            <circle id="Oval-Copy-164" cx="211" cy="315" r="3"></circle>
                            <circle id="Oval-Copy-163" cx="185" cy="315" r="3"></circle>
                            <circle id="Oval-Copy-162" cx="159" cy="315" r="3"></circle>
                            <circle id="Oval-Copy-161" cx="133" cy="315" r="3"></circle>
                            <circle id="Oval-Copy-160" cx="107" cy="315" r="3"></circle>
                            <circle id="Oval-Copy-159" cx="81" cy="315" r="3"></circle>
                            <circle id="Oval-Copy-157" cx="29" cy="315" r="3"></circle>
                            <circle id="Oval-Copy-151" cx="211" cy="289" r="3"></circle>
                            <circle id="Oval-Copy-150" cx="185" cy="289" r="3"></circle>
                            <circle id="Oval-Copy-149" cx="159" cy="289" r="3"></circle>
                            <circle id="Oval-Copy-148" cx="133" cy="289" r="3"></circle>
                            <circle id="Oval-Copy-147" cx="107" cy="289" r="3"></circle>
                            <circle id="Oval-Copy-146" cx="81" cy="289" r="3"></circle>
                            <circle id="Oval-Copy-145" cx="55" cy="289" r="3"></circle>
                            <circle id="Oval-Copy-144" cx="29" cy="289" r="3"></circle>
                            <circle id="Oval-Copy-138" cx="211" cy="263" r="3"></circle>
                            <circle id="Oval-Copy-137" cx="185" cy="263" r="3"></circle>
                            <circle id="Oval-Copy-136" cx="159" cy="263" r="3"></circle>
                            <circle id="Oval-Copy-135" cx="133" cy="261" r="3"></circle>
                            <circle id="Oval-Copy-134" cx="107" cy="263" r="3"></circle>
                            <circle id="Oval-Copy-133" cx="81" cy="263" r="3"></circle>
                            <circle id="Oval-Copy-132" cx="55" cy="263" r="3"></circle>
                            <circle id="Oval-Copy-131" cx="29" cy="263" r="3"></circle>
                            <circle id="Oval-Copy-125" cx="211" cy="237" r="3"></circle>
                            <circle id="Oval-Copy-123" cx="159" cy="237" r="3"></circle>
                            <circle id="Oval-Copy-122" cx="133" cy="237" r="3"></circle>
                            <circle id="Oval-Copy-121" cx="107" cy="237" r="3"></circle>
                            <circle id="Oval-Copy-120" cx="81" cy="237" r="3"></circle>
                            <circle id="Oval-Copy-119" cx="55" cy="237" r="3"></circle>
                            <circle id="Oval-Copy-118" cx="29" cy="237" r="3"></circle>
                            <circle id="Oval-Copy-111" cx="185" cy="211" r="3"></circle>
                            <circle id="Oval-Copy-110" cx="159" cy="211" r="3"></circle>
                            <circle id="Oval-Copy-109" cx="133" cy="211" r="3"></circle>
                            <circle id="Oval-Copy-108" cx="107" cy="211" r="3"></circle>
                            <circle id="Oval-Copy-107" cx="81" cy="211" r="3"></circle>
                            <circle id="Oval-Copy-106" cx="55" cy="211" r="3"></circle>
                            <circle id="Oval-Copy-105" cx="29" cy="211" r="3"></circle>
                            <circle id="Oval-Copy-99" cx="211" cy="185" r="3"></circle>
                            <circle id="Oval-Copy-98" cx="185" cy="185" r="3"></circle>
                            <circle id="Oval-Copy-97" cx="159" cy="185" r="3"></circle>
                            <circle id="Oval-Copy-96" cx="133" cy="185" r="3"></circle>
                            <circle id="Oval-Copy-95" cx="107" cy="185" r="3"></circle>
                            <circle id="Oval-Copy-94" cx="81" cy="185" r="3"></circle>
                            <circle id="Oval-Copy-93" cx="55" cy="185" r="3"></circle>
                            <circle id="Oval-Copy-92" cx="29" cy="185" r="3"></circle>
                            <circle id="Oval-Copy-86" cx="211" cy="159" r="3"></circle>
                            <circle id="Oval-Copy-85" cx="185" cy="159" r="3"></circle>
                            <circle id="Oval-Copy-84" cx="159" cy="159" r="3"></circle>
                            <circle id="Oval-Copy-83" cx="133" cy="159" r="3"></circle>
                            <circle id="Oval-Copy-82" cx="107" cy="159" r="3"></circle>
                            <circle id="Oval-Copy-81" cx="81" cy="159" r="3"></circle>
                            <circle id="Oval-Copy-80" cx="55" cy="159" r="3"></circle>
                            <circle id="Oval-Copy-79" cx="29" cy="159" r="3"></circle>
                            <circle id="Oval-Copy-73" cx="211" cy="133" r="3"></circle>
                            <circle id="Oval-Copy-72" cx="185" cy="133" r="3"></circle>
                            <circle id="Oval-Copy-71" cx="159" cy="133" r="3"></circle>
                            <circle id="Oval-Copy-70" cx="133" cy="133" r="3"></circle>
                            <circle id="Oval-Copy-69" cx="107" cy="133" r="3"></circle>
                            <circle id="Oval-Copy-68" cx="81" cy="133" r="3"></circle>
                            <circle id="Oval-Copy-67" cx="55" cy="133" r="3"></circle>
                            <circle id="Oval-Copy-66" cx="29" cy="133" r="3"></circle>
                            <circle id="Oval-Copy-60" cx="211" cy="107" r="3"></circle>
                            <circle id="Oval-Copy-59" cx="185" cy="107" r="3"></circle>
                            <circle id="Oval-Copy-58" cx="159" cy="107" r="3"></circle>
                            <circle id="Oval-Copy-57" cx="133" cy="107" r="3"></circle>
                            <circle id="Oval-Copy-56" cx="107" cy="107" r="3"></circle>
                            <circle id="Oval-Copy-55" cx="81" cy="107" r="3"></circle>
                            <circle id="Oval-Copy-54" cx="55" cy="107" r="3"></circle>
                            <circle id="Oval-Copy-53" cx="29" cy="107" r="3"></circle>
                            <circle id="Oval-Copy-47" cx="211" cy="81" r="3"></circle>
                            <circle id="Oval-Copy-46" cx="185" cy="81" r="3"></circle>
                            <circle id="Oval-Copy-45" cx="159" cy="81" r="3"></circle>
                            <circle id="Oval-Copy-44" cx="133" cy="81" r="3"></circle>
                            <circle id="Oval-Copy-43" cx="107" cy="81" r="3"></circle>
                            <circle id="Oval-Copy-42" cx="81" cy="83" r="3"></circle>
                            <circle id="Oval-Copy-41" cx="55" cy="81" r="3"></circle>
                            <circle id="Oval-Copy-40" cx="29" cy="81" r="3"></circle>
                            <circle id="Oval-Copy-34" cx="211" cy="55" r="3"></circle>
                            <circle id="Oval-Copy-33" cx="185" cy="55" r="3"></circle>
                            <circle id="Oval-Copy-32" cx="159" cy="55" r="3"></circle>
                            <circle id="Oval-Copy-31" cx="133" cy="55" r="3"></circle>
                            <circle id="Oval-Copy-30" cx="107" cy="55" r="3"></circle>
                            <circle id="Oval-Copy-29" cx="81" cy="55" r="3"></circle>
                            <circle id="Oval-Copy-28" cx="55" cy="55" r="3"></circle>
                            <circle id="Oval-Copy-27" cx="29" cy="55" r="3"></circle>
                            <circle id="Oval-Copy-21" cx="211" cy="29" r="3"></circle>
                            <circle id="Oval-Copy-20" cx="185" cy="29" r="3"></circle>
                            <circle id="Oval-Copy-18" cx="133" cy="29" r="3"></circle>
                            <circle id="Oval-Copy-17" cx="107" cy="29" r="3"></circle>
                            <circle id="Oval-Copy-16" cx="81" cy="29" r="3"></circle>
                            <circle id="Oval-Copy-15" cx="55" cy="29" r="3"></circle>
                            <circle id="Oval-Copy-14" cx="29" cy="29" r="3"></circle>
                        </g>
                    </g>
                </g>
            </g>
        </g>
    </g>
</svg>