<svg width="26" height="42" viewBox="0 0 26 42" fill="none" xmlns="http://www.w3.org/2000/svg">
<path fill-rule="evenodd" clip-rule="evenodd" d="M0.128079 18.4268C0.128079 16.0218 1.7931 13.0825 3.71429 11.88L22.4138 0.523234C24.4631 -0.679245 26 0.256016 26 2.66097V23.5732C26 25.9782 24.335 28.9175 22.4138 30.12L3.58621 41.4768C1.53695 42.6792 0 41.744 0 39.339L0.128079 18.4268Z" fill="#00dc7d"/>
<path d="M17.7665 18.4289C17.7741 18.5355 17.7741 18.6421 17.7741 18.7487C17.7741 22 15.2995 25.7462 10.7767 25.7462C9.38325 25.7462 8.08884 25.3426 7 24.6422C7.19798 24.665 7.38831 24.6726 7.59391 24.6726C8.74364 24.6726 9.80203 24.2843 10.6472 23.6219C9.56599 23.599 8.6599 22.8909 8.34771 21.9163C8.50001 21.9391 8.65228 21.9543 8.81219 21.9543C9.033 21.9543 9.25383 21.9239 9.4594 21.8706C8.3325 21.6421 7.48729 20.6523 7.48729 19.4569V19.4264C7.81469 19.6092 8.19543 19.7234 8.59896 19.7386C7.93652 19.2969 7.50253 18.5431 7.50253 17.6903C7.50253 17.2335 7.62433 16.8147 7.83754 16.4492C9.04821 17.9416 10.868 18.9162 12.9086 19.0228C12.8706 18.8401 12.8477 18.6498 12.8477 18.4594C12.8477 17.1041 13.9442 16 15.3071 16C16.0152 16 16.6548 16.297 17.1041 16.7767C17.6599 16.6701 18.1929 16.4645 18.665 16.1827C18.4822 16.7538 18.0939 17.2335 17.5838 17.5381C18.0787 17.4848 18.5584 17.3477 19 17.1574C18.665 17.6447 18.2462 18.0787 17.7665 18.4289Z" fill="white"/>
</svg>
