<svg width="26" height="42" viewBox="0 0 26 42" fill="none" xmlns="http://www.w3.org/2000/svg">
<path fill-rule="evenodd" clip-rule="evenodd" d="M0.128079 18.4268C0.128079 16.0218 1.7931 13.0825 3.71429 11.88L22.4138 0.523234C24.4631 -0.679245 26 0.256016 26 2.66097V23.5732C26 25.9782 24.335 28.9175 22.4138 30.12L3.58621 41.4768C1.53695 42.6792 0 41.744 0 39.339L0.128079 18.4268Z" fill="#00dc7d"/>
<g clip-path="url(#clip0_50:2)">
<path d="M17.1589 16.829C16.3939 16.4457 15.5734 16.1623 14.7161 16.0007C14.7086 15.9991 14.7008 16.0003 14.6938 16.0038C14.6868 16.0074 14.681 16.0133 14.6771 16.0207C14.5714 16.2257 14.4544 16.4932 14.3726 16.704C13.4632 16.553 12.5386 16.553 11.6291 16.704C11.5376 16.47 11.4345 16.2419 11.3201 16.0207C11.3161 16.0134 11.3103 16.0077 11.3033 16.0042C11.2964 16.0006 11.2887 15.9994 11.2811 16.0007C10.4383 16.1595 9.61736 16.4378 8.83838 16.829C8.83187 16.8321 8.82637 16.8373 8.82263 16.844C7.26713 19.3857 6.84038 21.8632 7.04963 24.3107C7.05038 24.3232 7.05713 24.3348 7.06463 24.3423C7.97296 25.0772 8.9861 25.6369 10.0616 25.9982C10.0692 26.0007 10.0772 26.0006 10.0847 25.9979C10.0922 25.9952 10.0988 25.9901 10.1036 25.9832C10.3346 25.6382 10.5401 25.2748 10.7171 24.8932C10.7196 24.8879 10.721 24.882 10.7212 24.8761C10.7215 24.8701 10.7206 24.8642 10.7186 24.8587C10.7166 24.8532 10.7135 24.8482 10.7097 24.844C10.7058 24.8399 10.7012 24.8368 10.6961 24.8348C10.3731 24.6998 10.0602 24.5368 9.76013 24.3473C9.75465 24.3439 9.75003 24.339 9.74669 24.3331C9.74336 24.3272 9.74142 24.3204 9.74104 24.3135C9.74067 24.3065 9.74188 24.2995 9.74456 24.2932C9.74724 24.2869 9.7513 24.2814 9.75638 24.2773C9.81938 24.2257 9.88238 24.1723 9.94238 24.1182C9.94768 24.1134 9.95404 24.1104 9.96077 24.1093C9.96751 24.1083 9.97437 24.1093 9.98063 24.1123C11.9449 25.0923 14.0711 25.0923 16.0114 24.1123C16.0178 24.1089 16.0249 24.1076 16.0319 24.1084C16.0389 24.1093 16.0456 24.1124 16.0511 24.1173C16.1111 24.1715 16.1741 24.2257 16.2371 24.2773C16.2422 24.2814 16.2464 24.2868 16.2491 24.2931C16.2518 24.2993 16.2531 24.3063 16.2528 24.3132C16.2525 24.3202 16.2506 24.327 16.2474 24.3329C16.2441 24.3389 16.2396 24.3438 16.2341 24.3473C15.9347 24.5386 15.6213 24.7016 15.2974 24.8348C15.2924 24.8369 15.2878 24.8401 15.2841 24.8442C15.2803 24.8484 15.2773 24.8534 15.2754 24.8589C15.2735 24.8644 15.2726 24.8703 15.2729 24.8762C15.2732 24.8821 15.2747 24.8879 15.2771 24.8932C15.4571 25.274 15.6634 25.6382 15.8899 25.9823C15.8945 25.9895 15.9011 25.9949 15.9086 25.9977C15.9161 26.0005 15.9243 26.0007 15.9319 25.9982C17.0089 25.638 18.0235 25.0782 18.9326 24.3423C18.9371 24.3388 18.9409 24.3342 18.9436 24.3289C18.9463 24.3235 18.948 24.3176 18.9484 24.3115C19.1989 21.4815 18.5291 19.024 17.1739 16.8448C17.1709 16.8374 17.1655 16.8315 17.1589 16.8282V16.829ZM11.1251 22.6665C10.5086 22.6665 10.0001 22.1057 10.0001 21.4165C10.0001 20.7273 10.4981 20.1665 11.1251 20.1665C11.7566 20.1665 12.2599 20.7332 12.2501 21.4165C12.2501 22.1057 11.7514 22.6665 11.1251 22.6665ZM14.8751 22.6665C14.2586 22.6665 13.7501 22.1057 13.7501 21.4165C13.7501 20.7273 14.2481 20.1665 14.8751 20.1665C15.5066 20.1665 16.0099 20.7332 16.0001 21.4165C16.0001 22.1057 15.5066 22.6665 14.8751 22.6665Z" fill="white"/>
</g>
<defs>
<clipPath id="clip0_50:2">
<rect width="12" height="10" fill="white" transform="translate(7 16)"/>
</clipPath>
</defs>
</svg>
