<svg width="26" height="42" viewBox="0 0 26 42" fill="none" xmlns="http://www.w3.org/2000/svg">
<path fill-rule="evenodd" clip-rule="evenodd" d="M0.128079 18.4268C0.128079 16.0218 1.7931 13.0825 3.71429 11.88L22.4138 0.523234C24.4631 -0.679245 26 0.256016 26 2.66097V23.5732C26 25.9782 24.335 28.9175 22.4138 30.12L3.58621 41.4768C1.53695 42.6792 0 41.744 0 39.339L0.128079 18.4268Z" fill="#00dc7d"/>
<path d="M18.9658 16.9162L17.1549 25.4562C17.0183 26.0589 16.662 26.209 16.1557 25.925L13.3966 23.8918L12.0652 25.1723C11.9179 25.3196 11.7946 25.4428 11.5107 25.4428L11.7089 22.6328L16.8228 18.0118C17.0451 17.8136 16.7745 17.7037 16.4772 17.902L10.1552 21.8827L7.43353 21.0308C6.84151 20.846 6.8308 20.4388 7.55676 20.1549L18.2023 16.0536C18.6952 15.8688 19.1265 16.1634 18.9658 16.9162Z" fill="white"/>
</svg>
