<?xml version="1.0" encoding="utf-8"?>
<!-- Generator: Adobe Illustrator 21.0.2, SVG Export Plug-In . SVG Version: 6.00 Build 0)  -->
<svg version="1.1" id="Layer_1" xmlns="http://www.w3.org/2000/svg" xmlns:xlink="http://www.w3.org/1999/xlink" x="0px" y="0px"
	 viewBox="0 0 24 24" style="enable-background:new 0 0 24 24;" xml:space="preserve">
<style type="text/css">
	.st0{fill:none;}
	.st1{fill:#00CBD9;}
</style>
<title>Icon-arrow-20px</title>
<g>
	<rect class="st0" width="24" height="24"/>
	<g>
		<path class="st1" d="M11.8,3.5c0.2-0.2,0.5-0.2,0.7,0l8.2,8.2c0.2,0.2,0.2,0.4,0,0.6l-8.2,8.2c-0.2,0.2-0.4,0.2-0.7,0L11,19.7
			c-0.1-0.1-0.1-0.2-0.1-0.3s0-0.2,0.1-0.4L17,13H3.7c-0.3,0-0.5-0.2-0.5-0.5v-1.1c0-0.3,0.2-0.5,0.5-0.5H17L11,4.9
			c-0.2-0.2-0.2-0.5,0-0.7L11.8,3.5z"/>
	</g>
</g>
</svg>
