<?xml version="1.0" encoding="UTF-8"?>
<svg width="55px" height="53px" viewBox="0 0 55 53" version="1.1" xmlns="http://www.w3.org/2000/svg" xmlns:xlink="http://www.w3.org/1999/xlink">
    <title>icon-liquidityproviders</title>
    <g id="Early-User" stroke="none" stroke-width="1" fill="none" fill-rule="evenodd">
        <g id="Primex---Early-User" transform="translate(-629.000000, -1122.000000)">
            <g id="saving-wallet-international" transform="translate(629.000000, 1122.000000)">
                <g id="Group-4" transform="translate(23.566038, 22.584906)">
                    <path d="M27.5946295,23.0071485 L27.5946295,26.0369984 C27.6961542,28.337822 25.937607,30.2913713 23.6535524,30.4150943 L3.94571479,30.4150943 C1.66166022,30.2913713 -0.0968869804,28.337822 0.00463774303,26.0369984 L0.00463774303,10.7272437 C-0.102442459,8.42265014 1.65765941,6.46296252 3.94571479,6.33927045 L23.6535524,6.33927045 C25.937607,6.46299349 27.6961542,8.41654282 27.5946295,10.7173664 L27.5946295,13.1298874" id="Path" fill="#00DC7D"></path>
                    <path d="M24.0140617,7.42495607 L20.8700288,1.0911624 C20.6369926,0.622442483 20.2284972,0.266192698 19.7344858,0.100852519 C19.2404744,-0.0644876593 18.7014532,-0.0253612495 18.2361043,0.209616853 L3.94571479,7.40767087" id="Path" stroke="#00DC7D" stroke-width="2.17789316" stroke-linecap="round" stroke-linejoin="round"></path>
                    <path d="M27.4720073,23.0071485 C28.5555651,23.0071485 29.4339623,22.1227084 29.4339623,21.0316963 L29.4339623,15.1053397 C29.4339623,14.0143275 28.5555651,13.1298874 27.4720073,13.1298874 L22.5671199,13.1298874 C19.8582254,13.1298874 17.6622325,15.3409877 17.6622325,18.068518 C17.6622325,20.7960483 19.8582254,23.0071485 22.5671199,23.0071485 L27.4720073,23.0071485 Z" id="Path" stroke="#00DC7D" stroke-width="2.17789316" fill="#410096" stroke-linecap="round" stroke-linejoin="round"></path>
                </g>
                <path d="M12.3066764,47.7035902 C2.98754073,41.4551118 -1.15556495,29.8515239 2.09850871,19.1135951 C5.35258237,8.37566636 15.2399574,1.02407331 26.4599394,1 C37.6799215,0.976044687 47.5986743,8.28524636 50.8986816,19.0091473 C51.0090374,19.3749898 51.1125903,19.7400763 51.2093406,20.104407" id="Path" stroke="#00DC7D" stroke-width="2" stroke-linecap="round" stroke-linejoin="round"></path>
                <path d="M17.395134,43.2885372 C14.6601786,34.6188998 13.9579873,25.43596 15.3429708,16.4512738 C15.9525069,11.2479996 17.6631709,6.23420072 20.3611333,1.74350106" id="Path" stroke="#00DC7D" stroke-width="2" stroke-linecap="round" stroke-linejoin="round"></path>
                <line x1="1.05492656" y1="24.8074475" x2="24.8078648" y2="24.8074475" id="Path" stroke="#00DC7D" stroke-width="2" stroke-linecap="round" stroke-linejoin="round"></line>
                <line x1="4.92569176" y1="12.9024511" x2="48.0914131" y2="12.9024511" id="Path" stroke="#00DC7D" stroke-width="2" stroke-linecap="round" stroke-linejoin="round"></line>
                <line x1="3.1229628" y1="36.7124439" x2="15.7261924" y2="36.7124439" id="Path" stroke="#00DC7D" stroke-width="2" stroke-linecap="round" stroke-linejoin="round"></line>
                <path d="M32.6559716,1.74350106 C34.9247493,5.42893789 36.4643745,9.51593582 37.1911388,13.782287 C37.4587136,15.0975056 37.6748899,16.4104567 37.8396677,17.7211401" id="Path" stroke="#00DC7D" stroke-width="2" stroke-linecap="round" stroke-linejoin="round"></path>
            </g>
        </g>
    </g>
</svg>