<svg width="135" height="78" viewBox="0 0 135 78" fill="none" xmlns="http://www.w3.org/2000/svg">
<path fill-rule="evenodd" clip-rule="evenodd" d="M26.105 24.1577C26.1082 23.0196 26.9162 21.6203 27.9003 21.0481L33.8547 17.588C34.8388 17.0158 35.6411 17.4797 35.6379 18.6178L35.617 25.9036C35.6138 27.0424 34.8059 28.4416 33.8217 29.0138L27.868 32.4733C26.8838 33.0455 26.0809 32.5816 26.0847 31.4435L26.105 24.1577Z" fill="#410096"/>
<path fill-rule="evenodd" clip-rule="evenodd" d="M5.48742 51.3356C5.49059 50.1974 6.29857 48.7976 7.28273 48.226L33.8542 32.7843C34.8384 32.2121 35.6413 32.676 35.6381 33.8141L35.6172 41.0999C35.614 42.2387 34.806 43.6379 33.8219 44.2095L7.25041 59.6511C6.26625 60.2227 5.46334 59.7595 5.46715 58.6213L5.48742 51.3356Z" fill="#00DC7D"/>
<path fill-rule="evenodd" clip-rule="evenodd" d="M13.3055 16.4464C13.3086 15.3082 14.1166 13.909 15.1008 13.3368L24.365 7.95339C25.3491 7.38115 26.1514 7.84439 26.1482 8.98317L26.1166 20.0186C26.1134 21.1574 25.3054 22.5566 24.3213 23.1282L15.0577 28.5122C14.0729 29.0838 13.2706 28.6206 13.2738 27.4824L13.3055 16.4464Z" fill="#410096"/>
<mask id="mask0" mask-type="alpha" maskUnits="userSpaceOnUse" x="0" y="0" width="10" height="16">
<path fill-rule="evenodd" clip-rule="evenodd" d="M0 0H9.55307V15.3272H0V0Z" fill="white"/>
</mask>
<g mask="url(#mask0)">
<path fill-rule="evenodd" clip-rule="evenodd" d="M0.0207082 6.81506C0.0238767 5.67691 0.831858 4.27705 1.81601 3.70544L7.76972 0.245379C8.75387 -0.326862 9.55678 0.13638 9.55298 1.27516L9.5327 8.51213C9.52954 9.65091 8.72155 11.0501 7.7374 11.6217L1.78369 15.0818C0.799539 15.6541 -0.00337283 15.1908 -0.000204277 14.052L0.0207082 6.81506Z" fill="#410096"/>
</g>
<path fill-rule="evenodd" clip-rule="evenodd" d="M14.7703 64.9445C14.7735 63.8063 15.5815 62.4065 16.5656 61.8349L22.487 58.3938C23.4712 57.8216 24.2741 58.2848 24.2703 59.4236L24.25 66.6701C24.2469 67.8089 23.4389 69.2081 22.4547 69.7797L16.5333 73.2214C15.5492 73.793 14.7463 73.3297 14.7494 72.1916L14.7703 64.9445Z" fill="#00DC7D"/>
<path fill-rule="evenodd" clip-rule="evenodd" d="M49.5396 69.3825C50.2854 68.9497 50.8742 68.342 51.307 67.5594C51.7398 66.7767 51.9565 65.8788 51.9565 64.8661C51.9565 63.8534 51.7398 62.9555 51.307 62.1728C50.8742 61.3902 50.2854 60.7875 49.5396 60.3636C48.7937 59.9403 47.9509 59.728 47.0123 59.728C46.0909 59.728 45.2582 59.9447 44.5117 60.3775C43.7665 60.8104 43.1765 61.413 42.7443 62.1868C42.3115 62.9605 42.0947 63.8534 42.0947 64.8661C42.0947 65.8788 42.3064 66.7767 42.7303 67.5594C43.1537 68.342 43.743 68.9497 44.4984 69.3825C45.2531 69.8154 46.0909 70.0308 47.0123 70.0308C47.9509 70.0308 48.7937 69.8154 49.5396 69.3825ZM51.0447 58.3465C52.1676 58.9732 53.0478 59.8484 53.6828 60.9713C54.3184 62.0949 54.6359 63.3927 54.6359 64.8661C54.6359 66.3395 54.3184 67.6418 53.6828 68.7748C53.0478 69.9073 52.1676 70.7869 51.0447 71.4123C49.9217 72.0384 48.6505 72.3521 47.2329 72.3521C46.1835 72.3521 45.2209 72.1493 44.3463 71.7444C43.4718 71.3388 42.7304 70.7501 42.1227 69.9763V77.5448H39.4706V57.5461H42.0124V59.8661C42.6011 59.0562 43.3476 58.4441 44.25 58.0296C45.1518 57.6152 46.1461 57.408 47.2329 57.408C48.6505 57.408 49.9217 57.721 51.0447 58.3465Z" fill="#1E1919"/>
<path d="M49.5396 60.3636L49.6631 60.1462L49.663 60.1462L49.5396 60.3636ZM44.5117 60.3775L44.3863 60.1612L44.3861 60.1613L44.5117 60.3775ZM42.7443 62.1868L42.9625 62.3088L42.9625 62.3087L42.7443 62.1868ZM42.7303 67.5594L42.9502 67.4404L42.9502 67.4403L42.7303 67.5594ZM44.4984 69.3825L44.6228 69.1657L44.6227 69.1656L44.4984 69.3825ZM53.6828 60.9713L53.4652 61.0944L53.4652 61.0944L53.6828 60.9713ZM53.6828 68.7748L53.4648 68.6525L53.4647 68.6526L53.6828 68.7748ZM51.0447 71.4123L50.923 71.1939L50.9229 71.194L51.0447 71.4123ZM44.3463 71.7444L44.2412 71.9712L44.2413 71.9713L44.3463 71.7444ZM42.1227 69.9763L42.3193 69.8219L41.8727 69.2533V69.9763H42.1227ZM42.1227 77.5448V77.7948H42.3727V77.5448H42.1227ZM39.4706 77.5448H39.2206V77.7948H39.4706V77.5448ZM39.4706 57.5461V57.2961H39.2206V57.5461H39.4706ZM42.0124 57.5461H42.2624V57.2961H42.0124V57.5461ZM42.0124 59.8661H41.7624V60.6352L42.2146 60.0131L42.0124 59.8661ZM44.25 58.0296L44.3544 58.2568L44.3544 58.2568L44.25 58.0296ZM49.665 69.5988C50.4516 69.1423 51.0719 68.501 51.5258 67.6804L51.0882 67.4384C50.6764 68.183 50.1192 68.7571 49.4141 69.1663L49.665 69.5988ZM51.5258 67.6804C51.9816 66.856 52.2065 65.9155 52.2065 64.8661H51.7065C51.7065 65.8421 51.498 66.6974 51.0882 67.4384L51.5258 67.6804ZM52.2065 64.8661C52.2065 63.8167 51.9816 62.8761 51.5258 62.0518L51.0882 62.2938C51.498 63.0348 51.7065 63.8901 51.7065 64.8661H52.2065ZM51.5258 62.0518C51.0716 61.2307 50.4507 60.5939 49.6631 60.1462L49.416 60.5809C50.1202 60.9811 50.6767 61.5497 51.0882 62.2938L51.5258 62.0518ZM49.663 60.1462C48.8761 59.6996 47.99 59.478 47.0123 59.478V59.978C47.9117 59.978 48.7113 60.181 49.4162 60.581L49.663 60.1462ZM47.0123 59.478C46.0498 59.478 45.1734 59.7049 44.3863 60.1612L44.6371 60.5938C45.343 60.1845 46.132 59.978 47.0123 59.978V59.478ZM44.3861 60.1613C43.6012 60.6172 42.9796 61.2528 42.526 62.0649L42.9625 62.3087C43.3734 61.5732 43.9317 61.0035 44.6373 60.5937L44.3861 60.1613ZM42.5261 62.0647C42.0696 62.8807 41.8447 63.8168 41.8447 64.8661H42.3447C42.3447 63.8901 42.5533 63.0403 42.9625 62.3088L42.5261 62.0647ZM41.8447 64.8661C41.8447 65.9145 42.0641 66.8544 42.5105 67.6784L42.9502 67.4403C42.5486 66.6991 42.3447 65.8431 42.3447 64.8661H41.8447ZM42.5105 67.6783C42.9554 68.5009 43.5774 69.143 44.3741 69.5995L44.6227 69.1656C43.9086 68.7565 43.3519 68.1831 42.9502 67.4404L42.5105 67.6783ZM44.374 69.5994C45.169 70.0553 46.0501 70.2808 47.0123 70.2808V69.7808C46.1317 69.7808 45.3373 69.5754 44.6228 69.1657L44.374 69.5994ZM47.0123 70.2808C47.9907 70.2808 48.8775 70.0558 49.665 69.5988L49.4141 69.1663C48.7098 69.575 47.911 69.7808 47.0123 69.7808V70.2808ZM50.9228 58.5648C52.0057 59.1691 52.8528 60.0113 53.4652 61.0944L53.9004 60.8483C53.2429 59.6854 52.3296 58.7773 51.1665 58.1282L50.9228 58.5648ZM53.4652 61.0944C54.0767 62.1754 54.3859 63.4297 54.3859 64.8661H54.8859C54.8859 63.3558 54.5601 62.0144 53.9004 60.8482L53.4652 61.0944ZM54.3859 64.8661C54.3859 66.3025 54.0767 67.5616 53.4648 68.6525L53.9008 68.8971C54.5601 67.7219 54.8859 66.3765 54.8859 64.8661H54.3859ZM53.4647 68.6526C52.8522 69.745 52.0052 70.5912 50.923 71.1939L51.1663 71.6307C52.33 70.9825 53.2435 70.0695 53.9009 68.8971L53.4647 68.6526ZM50.9229 71.194C49.8409 71.7973 48.6123 72.1021 47.2329 72.1021V72.6021C48.6887 72.6021 50.0026 72.2796 51.1664 71.6307L50.9229 71.194ZM47.2329 72.1021C46.2165 72.1021 45.2902 71.9059 44.4514 71.5175L44.2413 71.9713C45.1516 72.3927 46.1504 72.6021 47.2329 72.6021V72.1021ZM44.4515 71.5176C43.6134 71.1289 42.9031 70.5652 42.3193 69.8219L41.9261 70.1308C42.5577 70.935 43.3303 71.5488 44.2412 71.9712L44.4515 71.5176ZM41.8727 69.9763V77.5448H42.3727V69.9763H41.8727ZM42.1227 77.2948H39.4706V77.7948H42.1227V77.2948ZM39.7206 77.5448V57.5461H39.2206V77.5448H39.7206ZM39.4706 57.7961H42.0124V57.2961H39.4706V57.7961ZM41.7624 57.5461V59.8661H42.2624V57.5461H41.7624ZM42.2146 60.0131C42.7783 59.2377 43.4912 58.6533 44.3544 58.2568L44.1457 57.8024C43.2041 58.2349 42.4239 58.8748 41.8102 59.7191L42.2146 60.0131ZM44.3544 58.2568C45.2204 57.8588 46.1787 57.658 47.2329 57.658V57.158C46.1135 57.158 45.0832 57.3716 44.1456 57.8025L44.3544 58.2568ZM47.2329 57.658C48.6124 57.658 49.841 57.9622 50.923 58.5649L51.1663 58.1281C50.0025 57.4798 48.6886 57.158 47.2329 57.158V57.658Z" fill="#1E1919"/>
<path fill-rule="evenodd" clip-rule="evenodd" d="M62.2717 58.0707C63.1734 57.629 64.2697 57.4084 65.5587 57.4084V59.9769C65.4111 59.9585 65.2089 59.949 64.951 59.949C63.515 59.949 62.387 60.3774 61.5676 61.2335C60.7476 62.0897 60.3382 63.3102 60.3382 64.8938V72.1859H57.6861V57.546H60.2273V60.0041C60.6874 59.1575 61.3693 58.5124 62.2717 58.0707Z" fill="#1E1919"/>
<path d="M62.2717 58.0707C63.1734 57.629 64.2697 57.4084 65.5587 57.4084V59.9769C65.4111 59.9585 65.2089 59.949 64.951 59.949C63.515 59.949 62.387 60.3774 61.5676 61.2335C60.7476 62.0897 60.3382 63.3102 60.3382 64.8938V72.1859H57.6861V57.546H60.2273V60.0041C60.6874 59.1575 61.3693 58.5124 62.2717 58.0707" stroke="#1E1919" stroke-width="0.5"/>
<path fill-rule="evenodd" clip-rule="evenodd" d="M68.7868 72.186H71.4389V57.5461H68.7868V72.186ZM68.8286 54.2311C68.4877 53.8997 68.3172 53.4947 68.3172 53.0157C68.3172 52.5372 68.4877 52.1278 68.8286 51.7869C69.1689 51.4466 69.5967 51.2761 70.1131 51.2761C70.6283 51.2761 71.0561 51.4371 71.3977 51.759C71.738 52.0816 71.9084 52.4821 71.9084 52.9605C71.9084 53.458 71.738 53.8775 71.3977 54.2172C71.0561 54.5587 70.6283 54.7292 70.1131 54.7292C69.5967 54.7292 69.1689 54.5632 68.8286 54.2311Z" fill="#1E1919"/>
<path d="M68.7868 72.186H68.5368V72.436H68.7868V72.186ZM71.4389 72.186V72.436H71.6889V72.186H71.4389ZM71.4389 57.5461H71.6889V57.2961H71.4389V57.5461ZM68.7868 57.5461V57.2961H68.5368V57.5461H68.7868ZM71.3977 51.759L71.5697 51.5776L71.5691 51.5771L71.3977 51.759ZM71.3977 54.2172L71.2211 54.0402L71.2209 54.0404L71.3977 54.2172ZM68.7868 72.436H71.4389V71.936H68.7868V72.436ZM71.6889 72.186V57.5461H71.1889V72.186H71.6889ZM71.4389 57.2961H68.7868V57.7961H71.4389V57.2961ZM68.5368 57.5461V72.186H69.0368V57.5461H68.5368ZM69.0029 54.0519C68.7107 53.7679 68.5672 53.4277 68.5672 53.0157H68.0672C68.0672 53.5617 68.2646 54.0315 68.6543 54.4104L69.0029 54.0519ZM68.5672 53.0157C68.5672 52.6041 68.7109 52.2582 69.0054 51.9637L68.6518 51.6101C68.2645 51.9975 68.0672 52.4703 68.0672 53.0157H68.5672ZM69.0054 51.9637C69.2953 51.6738 69.6578 51.5261 70.1131 51.5261V51.0261C69.5355 51.0261 69.0425 51.2194 68.6518 51.6101L69.0054 51.9637ZM70.1131 51.5261C70.5713 51.5261 70.9357 51.6671 71.2262 51.9409L71.5691 51.5771C71.1765 51.2071 70.6854 51.0261 70.1131 51.0261V51.5261ZM71.2257 51.9405C71.5151 52.2148 71.6584 52.5492 71.6584 52.9605H72.1584C72.1584 52.4149 71.9608 51.9483 71.5697 51.5776L71.2257 51.9405ZM71.6584 52.9605C71.6584 53.3942 71.5126 53.7493 71.2211 54.0402L71.5743 54.3941C71.9634 54.0057 72.1584 53.5218 72.1584 52.9605H71.6584ZM71.2209 54.0404C70.9296 54.3317 70.567 54.4792 70.1131 54.4792V54.9792C70.6897 54.9792 71.1826 54.7858 71.5744 54.3939L71.2209 54.0404ZM70.1131 54.4792C69.6558 54.4792 69.2926 54.3346 69.0032 54.0522L68.654 54.41C69.0452 54.7917 69.5375 54.9792 70.1131 54.9792V54.4792Z" fill="#1E1919"/>
<path fill-rule="evenodd" clip-rule="evenodd" d="M98.7784 59.0102C99.8557 60.0787 100.394 61.6617 100.394 63.7612V72.1863H97.7423V64.0647C97.7423 62.6471 97.4153 61.5793 96.7619 60.8607C96.1086 60.1427 95.1738 59.7834 93.9584 59.7834C92.6137 59.7834 91.5452 60.2022 90.7537 61.04C89.9622 61.8784 89.5661 63.0799 89.5661 64.6452V72.1863H86.9147V64.0647C86.9147 62.6471 86.5871 61.5793 85.9337 60.8607C85.2797 60.1427 84.3456 59.7834 83.1302 59.7834C81.7861 59.7834 80.7176 60.2022 79.9255 61.04C79.134 61.8784 78.7379 63.0799 78.7379 64.6452V72.1863H76.0865V57.5464H78.6277V59.7282C79.1612 58.9728 79.8609 58.3987 80.7271 58.002C81.5922 57.6066 82.5782 57.4082 83.6828 57.4082C84.8241 57.4082 85.8374 57.6389 86.7208 58.0983C87.6054 58.559 88.286 59.2314 88.7651 60.1154C89.3177 59.2681 90.0864 58.6053 91.0712 58.1262C92.0566 57.6471 93.1662 57.4082 94.4001 57.4082C96.2416 57.4082 97.7011 57.9424 98.7784 59.0102Z" fill="#1E1919"/>
<path d="M98.7784 59.0102C99.8557 60.0787 100.394 61.6617 100.394 63.7612V72.1863H97.7423V64.0647C97.7423 62.6471 97.4153 61.5793 96.7619 60.8607C96.1086 60.1427 95.1738 59.7834 93.9584 59.7834C92.6137 59.7834 91.5452 60.2022 90.7537 61.04C89.9622 61.8784 89.5661 63.0799 89.5661 64.6452V72.1863H86.9147V64.0647C86.9147 62.6471 86.5871 61.5793 85.9337 60.8607C85.2797 60.1427 84.3456 59.7834 83.1302 59.7834C81.7861 59.7834 80.7176 60.2022 79.9255 61.04C79.134 61.8784 78.7379 63.0799 78.7379 64.6452V72.1863H76.0865V57.5464H78.6277V59.7282C79.1612 58.9728 79.8609 58.3987 80.7271 58.002C81.5922 57.6066 82.5782 57.4082 83.6828 57.4082C84.8241 57.4082 85.8374 57.6389 86.7208 58.0983C87.6054 58.559 88.286 59.2314 88.7651 60.1154C89.3177 59.2681 90.0864 58.6053 91.0712 58.1262C92.0566 57.6471 93.1662 57.4082 94.4001 57.4082C96.2416 57.4082 97.7011 57.9424 98.7784 59.0102" stroke="#1E1919" stroke-width="0.5"/>
<path fill-rule="evenodd" clip-rule="evenodd" d="M107.768 60.8055C106.912 61.5793 106.41 62.592 106.263 63.8442H115.655C115.507 62.6103 115.005 61.6021 114.149 60.8195C113.293 60.0368 112.23 59.6452 110.959 59.6452C109.688 59.6452 108.625 60.0318 107.768 60.8055ZM118.141 65.7497H106.263C106.429 67.0393 106.995 68.0755 107.962 68.8575C108.929 69.6401 110.13 70.0311 111.567 70.0311C113.316 70.0311 114.725 69.4424 115.793 68.2637L117.257 69.9766C116.594 70.7497 115.77 71.3391 114.785 71.744C113.799 72.1489 112.699 72.3517 111.484 72.3517C109.937 72.3517 108.565 72.0342 107.368 71.3986C106.171 70.7637 105.245 69.8752 104.591 68.7332C103.938 67.5913 103.611 66.3023 103.611 64.8663C103.611 63.4487 103.929 62.168 104.564 61.0267C105.199 59.8847 106.074 58.9963 107.188 58.3607C108.302 57.7257 109.559 57.4082 110.959 57.4082C112.358 57.4082 113.606 57.7257 114.702 58.3607C115.797 58.9963 116.654 59.8847 117.271 61.0267C117.887 62.168 118.196 63.4753 118.196 64.9487C118.196 65.1515 118.177 65.4183 118.141 65.7497Z" fill="#1E1919"/>
<path d="M106.263 63.8442L106.015 63.815L105.982 64.0942H106.263V63.8442ZM115.655 63.8442V64.0942H115.937L115.903 63.8145L115.655 63.8442ZM106.263 65.7497V65.4997H105.979L106.015 65.7815L106.263 65.7497ZM107.962 68.8575L108.119 68.6631L108.119 68.6631L107.962 68.8575ZM115.793 68.2637L115.983 68.1012L115.798 67.8853L115.608 68.0958L115.793 68.2637ZM117.257 69.9766L117.447 70.1393L117.586 69.9768L117.447 69.8142L117.257 69.9766ZM114.785 71.744L114.88 71.9752L114.88 71.9752L114.785 71.744ZM107.368 71.3986L107.485 71.1778L107.485 71.1778L107.368 71.3986ZM104.591 68.7332L104.375 68.8574L104.375 68.8575L104.591 68.7332ZM104.564 61.0267L104.783 61.1483L104.783 61.1482L104.564 61.0267ZM107.188 58.3607L107.065 58.1435L107.065 58.1435L107.188 58.3607ZM114.702 58.3607L114.827 58.1445L114.827 58.1444L114.702 58.3607ZM117.271 61.0267L117.491 60.9079L117.491 60.9078L117.271 61.0267ZM107.601 60.62C106.695 61.4383 106.168 62.5086 106.015 63.815L106.511 63.8733C106.652 62.6753 107.129 61.7203 107.936 60.991L107.601 60.62ZM106.263 64.0942H115.655V63.5942H106.263V64.0942ZM115.903 63.8145C115.749 62.5257 115.221 61.461 114.318 60.6349L113.98 61.004C114.789 61.7432 115.265 62.6949 115.407 63.8739L115.903 63.8145ZM114.318 60.6349C113.411 59.8061 112.286 59.3952 110.959 59.3952V59.8952C112.174 59.8952 113.175 60.2676 113.98 61.004L114.318 60.6349ZM110.959 59.3952C109.633 59.3952 108.508 59.8004 107.601 60.62L107.936 60.9911C108.742 60.2631 109.743 59.8952 110.959 59.8952V59.3952ZM118.141 65.4997H106.263V65.9997H118.141V65.4997ZM106.015 65.7815C106.188 67.1318 106.785 68.2273 107.804 69.0518L108.119 68.6631C107.205 67.9236 106.669 66.9469 106.511 65.7179L106.015 65.7815ZM107.804 69.0518C108.823 69.8759 110.082 70.2811 111.567 70.2811V69.7811C110.178 69.7811 109.035 69.4043 108.119 68.6631L107.804 69.0518ZM111.567 70.2811C113.378 70.2811 114.857 69.6681 115.978 68.4316L115.608 68.0958C114.592 69.2166 113.253 69.7811 111.567 69.7811V70.2811ZM115.603 68.4261L117.067 70.139L117.447 69.8142L115.983 68.1012L115.603 68.4261ZM117.067 69.8139C116.431 70.5556 115.64 71.1222 114.69 71.5128L114.88 71.9752C115.899 71.556 116.757 70.9438 117.447 70.1393L117.067 69.8139ZM114.69 71.5128C113.738 71.9037 112.671 72.1017 111.484 72.1017V72.6017C112.727 72.6017 113.86 72.3942 114.88 71.9752L114.69 71.5128ZM111.484 72.1017C109.972 72.1017 108.641 71.7917 107.485 71.1778L107.251 71.6194C108.489 72.2768 109.902 72.6017 111.484 72.6017V72.1017ZM107.485 71.1778C106.328 70.5642 105.438 69.7087 104.808 68.609L104.375 68.8575C105.053 70.0417 106.013 70.9631 107.251 71.6195L107.485 71.1778ZM104.808 68.6091C104.179 67.5083 103.861 66.2628 103.861 64.8663H103.361C103.361 66.3418 103.698 67.6743 104.375 68.8574L104.808 68.6091ZM103.861 64.8663C103.861 63.4875 104.17 62.2493 104.783 61.1483L104.346 60.9051C103.688 62.0868 103.361 63.41 103.361 64.8663H103.861ZM104.783 61.1482C105.396 60.0455 106.239 59.1904 107.312 58.5778L107.065 58.1435C105.91 58.8022 105.003 59.724 104.346 60.9052L104.783 61.1482ZM107.312 58.5778C108.385 57.9663 109.598 57.6582 110.959 57.6582V57.1582C109.52 57.1582 108.219 57.485 107.065 58.1435L107.312 58.5778ZM110.959 57.6582C112.319 57.6582 113.523 57.9663 114.576 58.577L114.827 58.1444C113.689 57.4851 112.398 57.1582 110.959 57.1582V57.6582ZM114.576 58.5769C115.63 59.1888 116.455 60.0432 117.051 61.1456L117.491 60.9078C116.852 59.7263 115.963 58.8038 114.827 58.1445L114.576 58.5769ZM117.051 61.1455C117.645 62.2457 117.946 63.5112 117.946 64.9487H118.446C118.446 63.4395 118.13 62.0904 117.491 60.9079L117.051 61.1455ZM117.946 64.9487C117.946 65.1381 117.928 65.3945 117.892 65.7226L118.389 65.7768C118.426 65.4421 118.446 65.1649 118.446 64.9487H117.946Z" fill="#1E1919"/>
<path fill-rule="evenodd" clip-rule="evenodd" d="M130.989 72.1859L126.763 66.5782L122.481 72.1859H119.526L125.299 64.6999L119.802 57.5459H122.758L126.791 62.8222L130.795 57.5459H133.696L128.172 64.6999L133.999 72.1859H130.989Z" fill="#1E1919" stroke="#1E1919" stroke-width="0.5"/>
</svg>
