<svg width="138" height="54" viewBox="0 0 138 54" fill="none" xmlns="http://www.w3.org/2000/svg">
<path d="M126.952 18.4323C126.952 17.1558 127.909 15.5957 129.014 14.9574L135.938 11.057C137.116 10.4188 138 10.9152 138 12.1917V20.347C138 21.6235 137.042 23.1837 135.938 23.8219L129.014 27.7223C127.836 28.3606 126.952 27.8642 126.952 26.5877V18.4323Z" fill="#00DC7D"/>
<path d="M112.074 9.78049C112.074 8.504 113.031 6.94384 114.136 6.30559L124.89 0.277719C126.068 -0.360526 126.952 0.135887 126.952 1.41238L126.878 13.7518C126.878 15.0283 125.921 16.5884 124.816 17.2267L114.062 23.2546C112.884 23.8928 112 23.3964 112 22.1199L112.074 9.78049Z" fill="#410096"/>
<path fill-rule="evenodd" clip-rule="evenodd" d="M17.2651 33.9879C16.5422 32.759 15.5301 31.7469 14.2289 31.024C12.9277 30.3734 11.4819 30.012 9.81928 30.012C8.59036 30.012 7.43373 30.2288 6.42169 30.7349C5.40964 31.2409 4.54217 31.8915 3.89157 32.8312V30.1565H1V52.9999H4.03614V44.3252C4.68675 45.1927 5.55422 45.8433 6.56627 46.3493C7.57831 46.8553 8.66265 47.0722 9.89157 47.0722C11.4819 47.0722 12.9277 46.7108 14.2289 45.9879C15.5301 45.265 16.5422 44.2529 17.2651 42.9517C17.988 41.6505 18.3494 40.2047 18.3494 38.4698C18.3494 36.7349 17.988 35.2891 17.2651 33.9879ZM14.5181 41.5782C14.012 42.518 13.3614 43.1686 12.494 43.6746C11.6265 44.1806 10.6867 44.3975 9.60241 44.3975C8.51807 44.3975 7.57831 44.1806 6.71084 43.6746C5.84337 43.1686 5.19277 42.4457 4.75904 41.5059C4.25301 40.5662 4.03614 39.5541 4.03614 38.3975C4.03614 37.2409 4.25301 36.2288 4.75904 35.3614C5.26506 34.4216 5.91566 33.771 6.78313 33.265C7.57831 32.759 8.51807 32.5421 9.60241 32.5421C10.6867 32.5421 11.6265 32.759 12.494 33.265C13.3614 33.771 14.012 34.4939 14.5181 35.3614C15.0241 36.3011 15.241 37.3132 15.241 38.4698C15.241 39.6264 15.0241 40.7108 14.5181 41.5782Z" fill="#1E1919"/>
<path d="M14.2289 31.024L14.2775 30.9365L14.2736 30.9346L14.2289 31.024ZM17.2651 33.9879L17.3525 33.9393L17.3513 33.9372L17.2651 33.9879ZM3.89157 32.8312H3.79157V33.1514L3.97379 32.8882L3.89157 32.8312ZM3.89157 30.1565H3.99157V30.0565H3.89157V30.1565ZM1 30.1565V30.0565H0.9V30.1565H1ZM1 52.9999H0.9V53.0999H1V52.9999ZM4.03614 52.9999V53.0999H4.13614V52.9999H4.03614ZM4.03614 44.3252L4.11614 44.2652L3.93614 44.0252V44.3252H4.03614ZM6.56627 46.3493L6.52154 46.4388H6.52154L6.56627 46.3493ZM17.2651 42.9517L17.3525 43.0003L17.2651 42.9517ZM12.494 43.6746L12.5444 43.761L12.494 43.6746ZM14.5181 41.5782L14.4316 41.5278L14.43 41.5308L14.5181 41.5782ZM6.71084 43.6746L6.66046 43.761L6.71084 43.6746ZM4.75904 41.5059L4.85 41.464L4.84708 41.4585L4.75904 41.5059ZM4.75904 35.3614L4.84546 35.4118L4.84708 35.4088L4.75904 35.3614ZM6.78313 33.265L6.83356 33.3514L6.83682 33.3493L6.78313 33.265ZM14.5181 35.3614L14.6062 35.3139L14.6045 35.311L14.5181 35.3614ZM14.1804 31.1114C15.4656 31.8254 16.4648 32.8246 17.1789 34.0386L17.3513 33.9372C16.6196 32.6933 15.5947 31.6684 14.2775 30.9366L14.1804 31.1114ZM9.81928 30.112C11.4666 30.112 12.897 30.4699 14.1842 31.1135L14.2736 30.9346C12.9584 30.2769 11.4973 29.912 9.81928 29.912V30.112ZM6.46641 30.8243C7.46131 30.3268 8.60177 30.112 9.81928 30.112V29.912C8.57895 29.912 7.40616 30.1308 6.37697 30.6454L6.46641 30.8243ZM3.97379 32.8882C4.6123 31.9659 5.46486 31.3251 6.46641 30.8243L6.37697 30.6454C5.35442 31.1567 4.47204 31.8171 3.80935 32.7743L3.97379 32.8882ZM3.79157 30.1565V32.8312H3.99157V30.1565H3.79157ZM1 30.2565H3.89157V30.0565H1V30.2565ZM1.1 52.9999V30.1565H0.9V52.9999H1.1ZM4.03614 52.8999H1V53.0999H4.03614V52.8999ZM3.93614 44.3252V52.9999H4.13614V44.3252H3.93614ZM6.61099 46.2599C5.60911 45.7589 4.75523 45.1173 4.11614 44.2652L3.95614 44.3852C4.61827 45.268 5.49932 45.9276 6.52154 46.4388L6.61099 46.2599ZM9.89157 46.9722C8.67504 46.9722 7.6066 46.7577 6.61099 46.2599L6.52154 46.4388C7.55003 46.953 8.65026 47.1722 9.89157 47.1722V46.9722ZM14.1804 45.9005C12.895 46.6145 11.4661 46.9722 9.89157 46.9722V47.1722C11.4977 47.1722 12.9604 46.807 14.2775 46.0753L14.1804 45.9005ZM17.1776 42.9032C16.4638 44.188 15.4652 45.1866 14.1804 45.9005L14.2775 46.0753C15.595 45.3433 16.6205 44.3178 17.3525 43.0003L17.1776 42.9032ZM18.2494 38.4698C18.2494 40.1898 17.8914 41.6185 17.1776 42.9032L17.3525 43.0003C18.0846 41.6825 18.4494 40.2197 18.4494 38.4698H18.2494ZM17.1776 34.0364C17.8914 35.3211 18.2494 36.7498 18.2494 38.4698H18.4494C18.4494 36.7199 18.0846 35.257 17.3525 33.9393L17.1776 34.0364ZM12.5444 43.761C13.4273 43.246 14.0911 42.5821 14.6061 41.6256L14.43 41.5308C13.933 42.4539 13.2956 43.0912 12.4436 43.5882L12.5444 43.761ZM9.60241 44.4975C10.7011 44.4975 11.6589 44.2775 12.5444 43.761L12.4436 43.5882C11.5941 44.0838 10.6724 44.2975 9.60241 44.2975V44.4975ZM6.66046 43.761C7.5459 44.2775 8.50375 44.4975 9.60241 44.4975V44.2975C8.53239 44.2975 7.61072 44.0838 6.76123 43.5882L6.66046 43.761ZM4.66824 41.5478C5.11029 42.5056 5.77471 43.2443 6.66046 43.761L6.76123 43.5882C5.91204 43.0929 5.27526 42.3858 4.84983 41.464L4.66824 41.5478ZM3.93614 38.3975C3.93614 39.5674 4.1557 40.5964 4.67099 41.5533L4.84708 41.4585C4.35032 40.536 4.13614 39.5408 4.13614 38.3975H3.93614ZM4.67266 35.311C4.15538 36.1977 3.93614 37.2285 3.93614 38.3975H4.13614C4.13614 37.2533 4.35065 36.2599 4.84541 35.4117L4.67266 35.311ZM6.73275 33.1786C5.84982 33.6936 5.18598 34.3575 4.67099 35.314L4.84708 35.4088C5.34414 34.4857 5.9815 33.8484 6.83352 33.3514L6.73275 33.1786ZM9.60241 32.4421C8.50473 32.4421 7.54487 32.6617 6.72944 33.1806L6.83682 33.3493C7.61176 32.8562 8.53141 32.6421 9.60241 32.6421V32.4421ZM12.5444 33.1786C11.6589 32.6621 10.7011 32.4421 9.60241 32.4421V32.6421C10.6724 32.6421 11.5941 32.8558 12.4436 33.3514L12.5444 33.1786ZM14.6045 35.311C14.0917 34.4319 13.4297 33.695 12.5444 33.1786L12.4436 33.3514C13.2932 33.8469 13.9324 34.5559 14.4317 35.4117L14.6045 35.311ZM15.341 38.4698C15.341 37.2999 15.1214 36.2709 14.6061 35.314L14.43 35.4088C14.9268 36.3313 15.141 37.3264 15.141 38.4698H15.341ZM14.6045 41.6286C15.1222 40.7411 15.341 39.6376 15.341 38.4698H15.141C15.141 39.6152 14.926 40.6804 14.4317 41.5278L14.6045 41.6286Z" fill="#1E1919"/>
<path d="M27.0242 30.7349C28.0362 30.2288 29.3374 30.012 30.7832 30.012V32.9758C30.6386 32.9758 30.3495 32.9758 30.0603 32.9758C28.3976 32.9758 27.0964 33.4818 26.229 34.4216C25.2892 35.4336 24.8555 36.8071 24.8555 38.6144V46.9276H21.8193V30.1565H24.7109V32.9758C25.2169 31.9638 26.0121 31.2409 27.0242 30.7349Z" fill="#1E1919" stroke="#1E1919" stroke-width="0.2"/>
<path fill-rule="evenodd" clip-rule="evenodd" d="M33.9639 24.9518C33.9639 25.4578 34.1807 25.9639 34.5422 26.3253C34.9036 26.759 35.4097 26.9036 35.988 26.9759C36.5663 26.9759 37.0723 26.759 37.4337 26.3976C37.7952 25.9639 38.0121 25.5301 38.0121 24.9518C38.0121 24.3735 37.7952 23.9398 37.4337 23.5783C37.0723 23.2169 36.5663 23 35.988 23C35.4097 23 34.9036 23.2169 34.5422 23.5783C34.1807 23.9398 33.9639 24.3735 33.9639 24.9518ZM37.506 46.8554V30.1566H34.4699V46.8554H37.506Z" fill="#1E1919"/>
<path d="M34.5422 26.3253L34.6193 26.261L34.6129 26.2546L34.5422 26.3253ZM35.988 26.9759L35.9755 27.0759H35.988V26.9759ZM37.4337 26.3976L37.5047 26.4686L37.5106 26.4616L37.4337 26.3976ZM37.506 30.1566H37.606V30.0566H37.506V30.1566ZM37.506 46.8554V46.9554H37.606V46.8554H37.506ZM34.4699 30.1566V30.0566H34.3699V30.1566H34.4699ZM34.4699 46.8554H34.3699V46.9554H34.4699V46.8554ZM34.6129 26.2546C34.2694 25.9111 34.0639 25.4302 34.0639 24.9518H33.8639C33.8639 25.4854 34.092 26.0166 34.4715 26.396L34.6129 26.2546ZM36.0004 26.8767C35.4288 26.8052 34.9553 26.6649 34.619 26.2613L34.4654 26.3893C34.8519 26.8532 35.3905 27.002 35.9756 27.0751L36.0004 26.8767ZM37.363 26.3269C37.0209 26.669 36.5406 26.8759 35.988 26.8759V27.0759C36.592 27.0759 37.1237 26.8491 37.5045 26.4683L37.363 26.3269ZM37.9121 24.9518C37.9121 25.4998 37.7085 25.9116 37.3569 26.3336L37.5106 26.4616C37.8818 26.0161 38.1121 25.5605 38.1121 24.9518H37.9121ZM37.363 23.649C37.708 23.994 37.9121 24.4031 37.9121 24.9518H38.1121C38.1121 24.3439 37.8824 23.8855 37.5045 23.5076L37.363 23.649ZM35.988 23.1C36.5406 23.1 37.0209 23.3069 37.363 23.649L37.5045 23.5076C37.1237 23.1268 36.592 22.9 35.988 22.9V23.1ZM34.6129 23.649C34.955 23.3069 35.4353 23.1 35.988 23.1V22.9C35.384 22.9 34.8523 23.1268 34.4715 23.5076L34.6129 23.649ZM34.0639 24.9518C34.0639 24.4031 34.2679 23.994 34.6129 23.649L34.4715 23.5076C34.0936 23.8855 33.8639 24.3439 33.8639 24.9518H34.0639ZM37.406 30.1566V46.8554H37.606V30.1566H37.406ZM34.4699 30.2566H37.506V30.0566H34.4699V30.2566ZM34.5699 46.8554V30.1566H34.3699V46.8554H34.5699ZM37.506 46.7554H34.4699V46.9554H37.506V46.7554Z" fill="#1E1919"/>
<path d="M68.735 31.8192C69.9639 33.0481 70.6145 34.8553 70.6145 37.2409V46.8553H67.5784V37.6023C67.5784 36.012 67.2169 34.783 66.494 33.9156C65.7711 33.1204 64.6868 32.6867 63.3133 32.6867C61.7952 32.6867 60.5663 33.1927 59.6266 34.1324C58.6868 35.0722 58.2531 36.4457 58.2531 38.2529V46.8553H55.2169V37.6023C55.2169 36.012 54.8555 34.783 54.1326 33.9156C53.4097 33.1204 52.3253 32.6867 50.9519 32.6867C49.4338 32.6867 48.2049 33.1927 47.2651 34.1324C46.3253 35.0722 45.8916 36.4457 45.8916 38.2529V46.8553H42.8555V30.1565H45.747V32.6144C46.3253 31.7469 47.1205 31.0963 48.1326 30.6626C49.1446 30.2288 50.229 30.012 51.5302 30.012C52.8314 30.012 53.988 30.3011 55 30.8071C56.0121 31.3132 56.8073 32.1083 57.3133 33.1204C57.9639 32.1806 58.8314 31.3855 59.9157 30.8794C61.0723 30.3011 62.3013 30.0843 63.747 30.0843C65.8434 30.012 67.5061 30.5903 68.735 31.8192Z" fill="#1E1919" stroke="#1E1919" stroke-width="0.2"/>
<path fill-rule="evenodd" clip-rule="evenodd" d="M77.2651 39.4818H90.8555C90.8872 39.3234 90.905 39.1788 90.9211 39.0481C90.9417 38.8807 90.9595 38.7362 91.0001 38.6144C91.0001 36.9517 90.6386 35.4336 89.9157 34.1324C89.1928 32.8312 88.1808 31.8192 86.9519 31.0963C85.723 30.3734 84.2772 30.012 82.6868 30.012C81.0242 30.012 79.6507 30.3734 78.3495 31.0963C77.1205 31.8192 76.1085 32.8312 75.3856 34.1324C74.6627 35.4336 74.3013 36.9517 74.3013 38.5421C74.3013 40.2047 74.6627 41.6505 75.3856 42.9517C76.1085 44.2529 77.1928 45.265 78.5663 45.9879C79.9398 46.7108 81.5302 47.0722 83.2651 47.0722C84.6386 47.0722 85.8675 46.783 87.0242 46.3493C88.1808 45.9156 89.1205 45.1927 89.8434 44.3252L88.1808 42.3734C86.9519 43.7469 85.3615 44.3975 83.3374 44.3975C81.6748 44.3975 80.3013 43.8915 79.2169 43.024C78.1326 42.1565 77.482 40.9276 77.2651 39.4818ZM77.2651 37.3132C77.482 35.8674 77.988 34.7108 79.0001 33.8433C80.0121 32.9758 81.1687 32.5421 82.6145 32.4698C84.0603 32.4698 85.2169 32.9758 86.229 33.8433C87.241 34.783 87.8193 35.9397 87.9639 37.3132H77.2651Z" fill="#1E1919"/>
<path d="M90.8555 39.4818V39.5818H90.9375L90.9535 39.5015L90.8555 39.4818ZM77.2651 39.4818V39.3818H77.149L77.1662 39.4967L77.2651 39.4818ZM90.9211 39.0481L91.0203 39.0603V39.0603L90.9211 39.0481ZM91.0001 38.6144L91.0949 38.646L91.1001 38.6306V38.6144H91.0001ZM89.9157 34.1324L90.0031 34.0839L89.9157 34.1324ZM78.3495 31.0963L78.3009 31.0089L78.2988 31.0101L78.3495 31.0963ZM89.8434 44.3252L89.9203 44.3892L89.9742 44.3245L89.9196 44.2604L89.8434 44.3252ZM88.1808 42.3734L88.2569 42.3086L88.1826 42.2214L88.1063 42.3067L88.1808 42.3734ZM79.0001 33.8433L79.0651 33.9192L79.0001 33.8433ZM77.2651 37.3132L77.1662 37.2983L77.149 37.4132H77.2651V37.3132ZM82.6145 32.4698V32.3697L82.6095 32.3699L82.6145 32.4698ZM86.229 33.8433L86.2971 33.77L86.2941 33.7674L86.229 33.8433ZM87.9639 37.3132V37.4132H88.075L88.0634 37.3027L87.9639 37.3132ZM90.8555 39.3818H77.2651V39.5818H90.8555V39.3818ZM90.8218 39.0359C90.8057 39.1668 90.7883 39.3079 90.7574 39.4622L90.9535 39.5015C90.9861 39.3388 91.0043 39.1908 91.0203 39.0603L90.8218 39.0359ZM90.9052 38.5827C90.8608 38.716 90.8421 38.8715 90.8218 39.0359L91.0203 39.0603C91.0413 38.89 91.0582 38.7563 91.0949 38.646L90.9052 38.5827ZM89.8283 34.181C90.5418 35.4654 90.9001 36.9663 90.9001 38.6144H91.1001C91.1001 36.9372 90.7354 35.4019 90.0031 34.0839L89.8283 34.181ZM86.9012 31.1825C88.1151 31.8966 89.1143 32.8958 89.8283 34.181L90.0031 34.0839C89.2714 32.7667 88.2465 31.7418 87.0026 31.0101L86.9012 31.1825ZM82.6868 30.112C84.2619 30.112 85.6897 30.4699 86.9012 31.1825L87.0026 31.0101C85.7562 30.277 84.2924 29.912 82.6868 29.912V30.112ZM78.398 31.1837C79.6837 30.4694 81.0404 30.112 82.6868 30.112V29.912C81.0079 29.912 79.6176 30.2774 78.3009 31.0089L78.398 31.1837ZM75.473 34.181C76.187 32.8958 77.1862 31.8966 78.4002 31.1825L78.2988 31.0101C77.0549 31.7418 76.03 32.7667 75.2982 34.0839L75.473 34.181ZM74.4013 38.5421C74.4013 36.9667 74.7593 35.4657 75.473 34.181L75.2982 34.0839C74.5661 35.4016 74.2013 36.9368 74.2013 38.5421H74.4013ZM75.473 42.9032C74.7591 41.6182 74.4013 40.1894 74.4013 38.5421H74.2013C74.2013 40.2201 74.5663 41.6829 75.2982 43.0003L75.473 42.9032ZM78.6129 45.8994C77.2548 45.1846 76.1855 44.1856 75.473 42.9032L75.2982 43.0003C76.0315 44.3202 77.1309 45.3454 78.5198 46.0764L78.6129 45.8994ZM83.2651 46.9722C81.5441 46.9722 79.9701 46.6137 78.6129 45.8994L78.5198 46.0764C79.9095 46.8078 81.5163 47.1722 83.2651 47.1722V46.9722ZM86.989 46.2557C85.8409 46.6862 84.624 46.9722 83.2651 46.9722V47.1722C84.6533 47.1722 85.8942 46.8798 87.0593 46.4429L86.989 46.2557ZM89.7666 44.2612C89.0536 45.1168 88.1277 45.8287 86.989 46.2557L87.0593 46.4429C88.2339 46.0025 89.1875 45.2685 89.9203 44.3892L89.7666 44.2612ZM88.1047 42.4383L89.7673 44.3901L89.9196 44.2604L88.2569 42.3086L88.1047 42.4383ZM83.3374 44.4975C85.386 44.4975 87.0049 43.8376 88.2553 42.4401L88.1063 42.3067C86.8988 43.6562 85.337 44.2975 83.3374 44.2975V44.4975ZM79.1545 43.1021C80.2574 43.9844 81.6532 44.4975 83.3374 44.4975V44.2975C81.6964 44.2975 80.3452 43.7985 79.2794 42.9459L79.1545 43.1021ZM77.1662 39.4967C77.3863 40.964 78.0479 42.2169 79.1545 43.1021L79.2794 42.9459C78.2173 42.0962 77.5777 40.8912 77.364 39.467L77.1662 39.4967ZM78.935 33.7674C77.8992 34.6551 77.3854 35.837 77.1662 37.2983L77.364 37.328C77.5786 35.8978 78.0768 34.7664 79.0651 33.9192L78.935 33.7674ZM82.6095 32.3699C81.1441 32.4432 79.9657 32.8839 78.935 33.7674L79.0651 33.9192C80.0586 33.0677 81.1934 32.641 82.6195 32.5697L82.6095 32.3699ZM86.2941 33.7674C85.2662 32.8864 84.0871 32.3698 82.6145 32.3698V32.5698C84.0335 32.5698 85.1677 33.0653 86.1639 33.9192L86.2941 33.7674ZM88.0634 37.3027C87.9163 35.9052 87.3268 34.7262 86.297 33.77L86.1609 33.9166C87.1553 34.8399 87.7224 35.9742 87.8645 37.3236L88.0634 37.3027ZM77.2651 37.4132H87.9639V37.2132H77.2651V37.4132Z" fill="#1E1919"/>
<path d="M105.53 46.8555L100.687 40.4218L95.7711 46.8555H92.3735L98.9518 38.3254L92.735 30.1567H96.1326L100.759 36.1567L105.313 30.1567H108.639L102.349 38.3254L109 46.8555H105.53Z" fill="#1E1919" stroke="#1E1919" stroke-width="0.2"/>
</svg>
