<svg width="112" height="125" viewBox="0 0 112 125" fill="none" xmlns="http://www.w3.org/2000/svg">
<path fill-rule="evenodd" clip-rule="evenodd" d="M65 82.2193C65 76.5116 69.0733 69.5356 73.7733 66.6818L103.227 49.2418C108.24 46.388 112 48.6076 112 54.3152V90.7807C112 96.4884 107.927 103.464 103.227 106.318L73.7733 123.758C68.76 126.612 65 124.392 65 118.685V82.2193Z" fill="#00DC7D"/>
<path fill-rule="evenodd" clip-rule="evenodd" d="M0.315271 43.6401C0.315271 37.9445 4.41379 30.9831 9.14286 28.1353L55.1724 1.23917C60.2167 -1.60865 64 0.606321 64 6.30197V61.3599C64 67.0555 59.9015 74.0169 55.1724 76.8647L8.82759 103.761C3.78325 106.609 0 104.394 0 98.698L0.315271 43.6401Z" fill="#410096"/>
</svg>
