<?xml version="1.0" encoding="UTF-8"?>
<svg width="26px" height="42px" viewBox="0 0 26 42" version="1.1" xmlns="http://www.w3.org/2000/svg" xmlns:xlink="http://www.w3.org/1999/xlink">
    <title>medium-icon-withbg</title>
    <defs>
        <filter color-interpolation-filters="auto" id="filter-1">
            <feColorMatrix in="SourceGraphic" type="matrix" values="0 0 0 0 1.000000 0 0 0 0 1.000000 0 0 0 0 1.000000 0 0 0 1.000000 0"></feColorMatrix>
        </filter>
    </defs>
    <g id="Landing" stroke="none" stroke-width="1" fill="none" fill-rule="evenodd">
        <g id="Primex---Home" transform="translate(-333.000000, -811.000000)">
            <g id="Hero" transform="translate(-288.861814, -189.500000)">
                <g id="Group-2" transform="translate(367.861814, 413.500000)">
                    <g id="join" transform="translate(0.000000, 539.000000)">
                        <g id="medium-icon-withbg" transform="translate(254.000000, 48.000000)">
                            <path d="M0.128078818,18.4268054 C0.128078818,16.021848 1.79310345,13.0824556 3.71428571,11.8799769 L22.4137931,0.523233636 C24.4630542,-0.679245067 26,0.256016147 26,2.66097355 L26,23.5731946 C26,25.978152 24.3349754,28.9175444 22.4137931,30.1200231 L3.5862069,41.4767664 C1.53694581,42.6792451 0,41.7439839 0,39.3390264 L0.128078818,18.4268054 Z" id="Fill-5-Copy-5" fill="#00dc7d"></path>
                            <g filter="url(#filter-1)" id="medium-icon">
                                <g transform="translate(5.000000, 17.000000)">
                                    <path d="M9.02496095,4.54352596 C9.02496095,7.05276774 7.00462808,9.08689861 4.51255713,9.08689861 C2.02048619,9.08689861 0,7.05230781 0,4.54352596 C0,2.03474411 2.02033288,0 4.51255713,0 C7.00478139,0 9.02496095,2.03428418 9.02496095,4.54352596 M13.9752211,4.54352596 C13.9752211,6.90543583 12.9650547,8.82090396 11.7189425,8.82090396 C10.4728304,8.82090396 9.46266397,6.90543583 9.46266397,4.54352596 C9.46266397,2.18161609 10.4726771,0.266147964 11.7187892,0.266147964 C12.9649014,0.266147964 13.9750678,2.18100285 13.9750678,4.54352596 M16,4.54352596 C16,6.65921831 15.6447783,8.37538208 15.2064621,8.37538208 C14.7681458,8.37538208 14.4130774,6.65967824 14.4130774,4.54352596 C14.4130774,2.42737369 14.7682991,0.711669845 15.2064621,0.711669845 C15.644625,0.711669845 16,2.42722038 16,4.54352596" id="Shape" fill="#000000" fill-rule="nonzero"></path>
                                </g>
                            </g>
                        </g>
                    </g>
                </g>
            </g>
        </g>
    </g>
</svg>