<svg width="1440" height="1293" viewBox="0 0 1440 1293" fill="none" xmlns="http://www.w3.org/2000/svg">
<path opacity="0.1" d="M-344.126 925.294L-344.125 925.293L494.298 437.61L493.795 436.746L494.298 437.61C509.641 428.681 523.337 427.962 533.121 433.617C542.905 439.271 549.132 451.505 549.083 469.266L548.423 699.368C548.374 717.134 542.045 737.002 531.841 754.693C521.636 772.383 507.611 787.798 492.273 796.715L492.775 797.58L492.272 796.715L-346.151 1284.4C-361.494 1293.32 -375.191 1294.04 -384.972 1288.38C-394.753 1282.73 -400.975 1270.5 -400.916 1252.74L-400.916 1252.74L-400.276 1022.64C-400.227 1004.89 -393.898 985.016 -383.694 967.323C-373.489 949.63 -359.464 934.211 -344.126 925.294Z" stroke="white" stroke-width="2"/>
<path opacity="0.1" d="M1588.88 11.9276L1588.38 11.0632L1588.88 11.9275C1610.87 -0.871685 1630.6 -1.95685 1644.76 6.22274C1658.91 14.4026 1667.84 32.0536 1667.77 57.5109L1666.83 386.152C1666.75 411.618 1657.69 440.069 1643.08 465.382C1628.48 490.695 1608.4 512.774 1586.42 525.556L1586.92 526.421L1586.42 525.556L388.946 1222.08C366.953 1234.87 347.22 1235.96 333.07 1227.78C318.921 1219.6 309.999 1201.96 310.084 1176.5L309.084 1176.5L310.084 1176.5L310.998 847.861C311.069 822.409 320.137 793.958 334.739 768.641C349.341 743.325 369.42 721.239 391.408 708.456L390.905 707.592L391.408 708.456L1588.88 11.9276Z" stroke="white" stroke-width="2"/>
</svg>
