<svg width="96" height="108" viewBox="0 0 96 108" fill="none" xmlns="http://www.w3.org/2000/svg">
<path fill-rule="evenodd" clip-rule="evenodd" d="M55 70.7752C55 65.8088 58.5533 59.7388 62.6533 57.2556L88.3467 42.0805C92.72 39.5973 96 41.5287 96 46.4951V78.2248C96 83.1912 92.4467 89.2612 88.3467 91.7444L62.6533 106.919C58.28 109.403 55 107.471 55 102.505V70.7752Z" fill="#00DC7D"/>
<path fill-rule="evenodd" clip-rule="evenodd" d="M0.26601 38.237C0.26601 33.2466 3.72414 27.1471 7.71429 24.6519L46.5517 1.08575C50.8079 -1.40949 54 0.531253 54 5.52173V53.763C54 58.7534 50.5419 64.8529 46.5517 67.3481L7.44828 90.9143C3.19212 93.4095 0 91.4687 0 86.4783L0.26601 38.237Z" fill="#00DC7D"/>
</svg>
