<?xml version="1.0" encoding="utf-8"?>
<!-- Generator: Adobe Illustrator 25.4.1, SVG Export Plug-In . SVG Version: 6.00 Build 0)  -->
<svg version="1.1" id="Layer_1" xmlns="http://www.w3.org/2000/svg" xmlns:xlink="http://www.w3.org/1999/xlink" x="0px" y="0px"
	 viewBox="0 0 300.8 55" style="enable-background:new 0 0 300.8 55;" xml:space="preserve">
<path d="M290.1,0c3.7,0,7.1,0,10.7,0c0,17.7,0,35.4,0,53.1c-3.2,0-6.3,0-9.6,0c-0.1-1.1-0.2-2.2-0.3-3.6c-0.5,0.4-0.9,0.7-1.2,1
	c-7.4,7.1-20,3.9-24.2-4.9c-3.6-7.5-2.9-14.7,1.7-21.5c4.6-6.9,14.8-8.3,21.7-3.2c0.3,0.3,0.7,0.5,1.2,0.9
	C290.1,14.5,290.1,7.3,290.1,0z M291,36.2c0-4.2-2-7.3-5.4-8.4c-4.6-1.5-11.2,0.2-11.5,8c-0.2,4.4,2.1,7.8,5.9,8.8
	C286.1,46.3,291,42.6,291,36.2z"/>
<path d="M145.9,3.3c11.1,0,22.1,0,33.2,0c0,3.3,0,6.5,0,9.9c-7.3,0-14.7,0-22.1,0c0,3.5,0,6.8,0,10.3c6.7,0,13.5,0,20.4,0
	c0,3.5,0,6.8,0,10.3c-6.8,0-13.6,0-20.6,0c0,6.5,0,12.9,0,19.4c-3.7,0-7.3,0-10.9,0C145.9,36.6,145.9,20,145.9,3.3z"/>
<path d="M225.3,19.1c3.3,0,6.5,0,9.8,0c0.1,1.2,0.2,2.4,0.3,3.8c0.4-0.4,0.7-0.6,0.9-0.9c4-4.1,10.7-5.3,15.8-2.7
	c3,1.5,4.9,3.9,5.2,7.2c0.5,4.2,0.6,8.4,0.8,12.5c0.1,4.4,0,8.9,0,13.3c0,0.3,0,0.6-0.1,1c-3.5,0-7,0-10.6,0c0-0.5,0-1,0-1.4
	c0-5.9-0.1-11.8-0.1-17.7c0-0.8-0.1-1.5-0.2-2.3c-0.5-2.9-2.1-4.4-4.9-4.5c-3.1-0.1-5.3,1.3-6,4c-0.3,1.1-0.4,2.2-0.4,3.3
	c-0.1,5.6-0.1,11.3-0.1,16.9c0,0.5,0,0.9,0,1.5c-3.5,0-6.9,0-10.5,0C225.3,41.8,225.3,30.5,225.3,19.1z"/>
<path d="M207.5,53.2c-0.1-1.2-0.2-2.3-0.3-3.4c-0.1-0.1-0.3-0.2-0.4-0.4c-0.2,0.3-0.3,0.8-0.5,1c-4,4.2-11.3,5.3-16.4,2.3
	c-3.1-1.8-4.8-4.7-4.9-8.2c-0.3-6.4-0.4-12.8-0.5-19.2c0-1.8,0-3.5,0-5.3c0-0.5,0-1.1,0.8-1.1c3.2,0,6.5,0,9.8,0
	c0,0.6,0.1,1,0.1,1.5c0,5.1,0,10.2,0.1,15.4c0,1.8,0.2,3.6,0.5,5.4c0.5,2.4,2.1,3.6,4.8,3.7c2.6,0.1,4.7-1,5.4-3.3
	c0.5-1.7,0.9-3.4,0.9-5.2c0.1-4.9,0.1-9.8,0.1-14.7c0-0.9,0-1.7,0-2.7c3.6,0,6.9,0,10.4,0c0,11.3,0,22.7,0,34.1
	C214.1,53.2,210.9,53.2,207.5,53.2z"/>
<path d="M39.3,41.8c1.9,1.4,3.8,2.8,5.8,4.3c-3.2,3.8-7,6.5-11.7,7.9C18.2,58.1,4.2,49.7,0.7,33.8c-2.1-9.9,0.5-18.9,8.4-25.5
	c8-6.7,17.3-8,27.1-4.2c3.1,1.2,5.5,3.4,7.9,5.8c-1.6,1.3-3.2,2.5-4.9,3.7c-0.2,0.2-0.8,0-1.1-0.1c-1.6-0.9-3.2-1.8-4.8-2.6
	C25,6.4,15.3,9.2,10.6,17.3c-4,6.8-4.4,13.8-1,21c5.3,11.3,21,13.4,29.2,4.1C38.9,42.2,39.1,42.1,39.3,41.8z"/>
<path d="M48.6,36.6c0-10.1,7.8-17.7,18-17.7c9.9,0,17.7,7.8,17.7,17.7c0,10.1-7.7,17.8-18.1,17.8C56.2,54.4,48.6,46.7,48.6,36.6z
	 M77.5,36.6c0-8-6.5-13.1-14.1-11.2c-4.9,1.2-8.1,5.7-8,11.4c0,5.3,3,9.5,7.6,10.9C70.7,50.1,77.5,44.8,77.5,36.6z"/>
<path d="M112.6,53.2c-2.2,0-4.2,0-6.3,0c0-11,0-22,0-33.1c2,0,4.1,0,6.2,0c0,1.3,0,2.6,0,3.9c0.1,0,0.2,0.1,0.3,0.1
	c0.3-0.3,0.6-0.7,0.9-1c3.6-3.8,8-5,13-4.1c5.4,1,8.9,5.2,9.1,11.1c0.2,7.6,0.1,15.1,0.1,22.7c0,0.1-0.1,0.1-0.1,0.3
	c-2,0-4.1,0-6.3,0c0-0.5,0-0.9,0-1.4c0-6.1,0-12.2,0-18.2c0-0.4,0-0.9-0.1-1.3c-0.4-4.2-2.5-6.6-6.3-7.1c-4.1-0.6-7.9,1.3-9.2,5
	c-0.7,2-1.1,4.1-1.1,6.2c-0.2,5.2-0.1,10.3-0.1,15.5C112.6,52.2,112.6,52.7,112.6,53.2z"/>
<path d="M91,53.2c0-11.1,0-22.1,0-33.2c2,0,3.9,0,6,0c0,11.1,0,22.1,0,33.2C95,53.2,93,53.2,91,53.2z"/>
<path d="M98.6,7.7c0,2.8-1.8,4.6-4.5,4.6c-2.7,0-4.8-2-4.8-4.6c0-2.6,2.1-4.7,4.8-4.7C96.8,3.1,98.6,5,98.6,7.7z"/>
</svg>
