<?xml version="1.0" encoding="utf-8"?>
<!-- Generator: Adobe Illustrator 25.4.1, SVG Export Plug-In . SVG Version: 6.00 Build 0)  -->
<svg version="1.1" id="Layer_1" xmlns="http://www.w3.org/2000/svg" xmlns:xlink="http://www.w3.org/1999/xlink" x="0px" y="0px"
	 viewBox="0 0 1776.3 381.7" style="enable-background:new 0 0 1776.3 381.7;" xml:space="preserve">
<path d="M197.2,0c17.3,1,34.4,3.5,51,8.8c65.4,20.6,115.6,74.4,129.6,141.7c13.6,65.4-3,123.2-48.5,172.2
	c-25.9,27.9-58,45.7-95.1,54.4c-7.5,1.8-15,2.9-22.6,3.8c-0.6,0.1-1.5-0.2-1.7,0.8c-9.4,0-18.8,0-28.3,0c-2.5,0.3-4.9-0.4-7.4-0.6
	c-8.6-0.6-17.1-1.9-25.4-4c-52.8-12.8-93.5-42.5-121.7-89c-14.9-24.6-23.4-51.5-25.9-80.2c-0.2-2.2-0.3-4.4-1.3-6.5
	c0-7.1,0-14.1,0-21.2c1-1.9,1.1-4.1,1.3-6.1c0.6-8.5,2-16.8,3.9-25.1C19.6,85,66.8,32.2,128.9,10.6C147.1,4.3,166,1.1,185.2,0
	C189.2,0,193.2,0,197.2,0z M86.8,196c7.4,0.8,210.2,0.5,212.8-0.3c-35.4-42.9-70.7-85.8-106.3-128.9
	C157.8,109.9,122.4,152.8,86.8,196z M193.5,228.2c-0.5,0.5-0.9,0.8-1.1,1.2c-17.1,25.2-34.3,50.4-51.4,75.7c-0.1,0.1,0,0.2,0,0.3
	c0,0.1,0.1,0.2,0.2,0.3c34.8,0,69.6,0,105,0C228.5,279.6,211,253.9,193.5,228.2z"/>
<path d="M1776.3,164c-1.4,0.1-2.8,0.2-4.2,0.2c-31.4,0-62.9,0-94.3,0c-0.9,0-1.9,0-2.8,0c-1.3-0.1-2,0.4-1.9,1.8
	c0.6,12.5,2.9,24.6,10.7,34.9c7.1,9.3,16.9,13.6,28.3,14.6c5.9,0.5,11.8,0.3,17.5-1.5c11.3-3.6,18.9-11,23.4-21.9
	c0.4-1.1,0.9-2.2,1.2-3.3c0.3-0.9,0.9-1.3,1.8-1.3c6.1,0,12.2,0,18.1,0c0.6,1,0.2,1.7,0,2.3c-8,25.9-28.1,40.6-53.3,41.4
	c-8.3,0.3-16.5-0.3-24.5-2.4c-17.9-4.7-30.1-15.8-36.8-33.1c-3-7.8-4.6-15.8-5.4-24c-1.1-11.4-1.1-22.8,1.2-34.1
	c1.4-6.9,3.7-13.6,7.1-19.9c7.7-14,19.3-23,34.6-27c11.6-3.1,23.3-3.3,35-0.7c16.9,3.7,28.9,13.7,36.2,29.3c4.3,9.2,6.8,19,7.4,29.2
	c0.1,1.6,0.4,3.2,0.6,4.8C1776.3,156.9,1776.3,160.4,1776.3,164z M1715.1,151.4c12.5,0,24.9,0,37.4,0c0.8,0,1.6,0,2.5,0
	c1.3,0.1,1.6-0.6,1.6-1.7c0-2.8-0.4-5.6-0.8-8.4c-1.5-9.3-4.7-18-11.1-25.1c-6.9-7.7-15.7-11.3-25.9-12c-10.5-0.7-20.4,1.5-28.8,8.2
	c-8,6.3-12.3,15-14.6,24.7c-0.9,4-1.5,8.1-1.7,12.2c-0.1,1.5,0.4,2.2,2,2.1c0.8-0.1,1.6,0,2.5,0
	C1690.4,151.4,1702.8,151.4,1715.1,151.4z"/>
<path d="M600,191.8c-1.4,1.1-1.5,2.2-1.9,3.1c-9.8,22.5-26.9,35.4-51.4,38.4c-17.4,2.2-33.8-0.7-48.9-9.9
	c-13.8-8.4-23.7-20.3-30.8-34.7c-7-14.1-10.5-29.1-11.5-44.8c-1-17.2,0.8-34.1,6.6-50.4c6-17,15.8-31.2,30.9-41.5
	c11.7-7.9,24.6-12,38.6-13.3c14.6-1.4,28.7,0.2,42.3,5.8c19.5,8,33.5,21.5,40.4,41.8c1.4,4,2.3,8.2,2.7,12.4
	c0.2,1.6-0.1,2.4-1.9,2.4c-5.5-0.1-11.1-0.1-16.6,0c-1.5,0-2-0.5-2.2-2c-2.7-21.3-19.7-37-41.5-41.8c-13.5-2.9-26.7-1.8-39.4,3.7
	c-13.9,6.1-23.4,16.7-29.9,30.3c-5.3,11.2-7.8,23.1-8.8,35.4c-1.1,13.6,0,27.1,3.8,40.2c3.7,12.8,9.6,24.3,19.2,33.6
	c10.1,9.9,22.2,15.2,36.4,15.8c12.4,0.6,24.2-1.6,34.8-8.4c11.8-7.6,19-18.7,23.3-31.8c2.3-7.1,3.6-14.4,3.8-21.8
	c0.1-4,0.9-4.1-3.8-4.1c-15,0-29.9,0-44.9,0c-5.4,0-4.6,0.6-4.6-4.7c0-3.4,0-6.8,0-10.2c0-1.5,0.5-2.2,2-2.1c0.7,0.1,1.4,0,2.1,0
	c21.4,0,42.9,0,64.3,0c0.2,0,0.5,0,0.7,0c4.4,0,3.7,0.3,3.7,3.6c0,11.8,0,23.6,0,35.3c0,17.1,0,34.2,0,51.2c0,0.8-0.1,1.7,0,2.5
	c0.1,1.4-0.6,1.8-1.9,1.8c-4.4,0-8.7,0-13.1,0c-2.5,0-2.5-0.1-2.5-2.6c-0.1-9.7-0.1-19.3-0.2-29C600,194.8,600,193.5,600,191.8z"/>
<path d="M954.8,197.5c-1.3,1.6-1.5,2.9-2,4c-8,18.8-22.4,28.5-42.6,29.6c-14.7,0.8-28-3-39.3-12.7c-8.6-7.3-14-16.7-17.6-27.3
	c-3.9-11.8-5-23.9-4.6-36.2c0.3-9.9,1.7-19.7,5.1-29.1c0.9-2.4,1.9-4.8,3-7.2c15.6-32.7,51-35.2,71.3-25.5
	c10.7,5.2,18.4,13.3,23.5,24c0.4,0.8,0.8,1.7,1.2,2.6c0.3,0.7,0.7,1.5,1.2,2.6c0.9-1.4,0.6-2.7,0.6-3.8c0-23.8,0-47.6,0-71.4
	c0-0.7,0-1.4,0-2.1c0.1-2.6,0.1-2.7,2.8-2.7c4.6,0,9.2,0,13.8,0c2.4,0,2.4,0.1,2.5,2.6c0,0.6,0,1.2,0,1.8c0,58.9,0,117.8,0,176.7
	c0,5,0.5,4.3-4.3,4.3c-4,0-8-0.1-12,0c-1.9,0.1-2.4-0.7-2.4-2.4c0.1-7.3,0-14.6,0-21.9C954.8,201.6,954.8,199.8,954.8,197.5z
	 M868.2,159.5c-0.2,3.5,0.2,7.1,0.6,10.6c0.7,7.5,2.5,14.8,5.8,21.7c12.3,25.7,39,27,54.7,19.5c11.2-5.3,18.2-14.4,22-25.9
	c5.9-18,5.1-35.9-1.4-53.6c-1.4-3.9-3.4-7.5-5.9-10.8c-8.5-11.4-20.2-16-34.1-15.7c-18.6,0.4-31.7,9.9-37.7,27.5
	C869.2,141.4,868.5,150.4,868.2,159.5z"/>
<path d="M1071.5,164.2c-15.9,0-31.8,0-47.7,0c-0.8,0-1.6,0-2.5,0c-1,0-1.5,0.5-1.5,1.5c0.6,14.2,3.3,27.6,13.5,38.4
	c6.8,7.2,15.5,10.5,25.2,11.4c7.2,0.7,14.3,0.2,21.1-2.7c9.8-4.1,16.3-11.3,20.2-21.1c0.4-0.9,0.7-1.8,0.9-2.7
	c0.4-1.2,1.1-1.6,2.4-1.6c5.3,0,10.6,0,15.9,0c2.3,0,2.5,0.3,1.8,2.5c-2.4,7.5-5.8,14.4-10.7,20.6c-9.9,12.4-23,18.9-38.5,20.3
	c-11.7,1.1-23.3,0-34.4-4.1c-15.6-5.8-25.8-16.9-31.3-32.4c-5.2-14.5-6.3-29.6-5.3-44.9c0.7-10.4,2.9-20.5,7.7-29.9
	c9-17.8,23.7-27.6,43.1-30.5c11-1.7,21.9-1.2,32.5,2.2c16.4,5.3,26.9,16.7,33,32.5c4.8,12.4,6.3,25.3,6.5,38.4c0,2-1,2-2.4,2
	c-7.2,0-14.4,0-21.6,0C1090.1,164.2,1080.8,164.2,1071.5,164.2z M1061.7,151.4c13,0,25.9,0,38.9,0c2.9,0,2.9-0.1,2.8-3
	c-0.5-7.9-2.1-15.6-5.6-22.8c-5-10.3-12.9-17.3-24.1-20.2c-7.2-1.9-14.4-1.9-21.7-0.3c-7.4,1.7-13.9,5.1-19.1,10.7
	c-8.9,9.6-11.9,21.4-12.5,34c-0.1,1.1,0.5,1.5,1.5,1.5c0.9,0,1.9,0,2.8,0C1037,151.4,1049.4,151.4,1061.7,151.4z"/>
<path d="M1637.1,187.5c-2.9,10.3-7.3,19.1-14.3,26.5c-10.2,10.8-23,16.2-37.6,17.1c-8.3,0.5-16.5,0-24.6-1.9
	c-19.8-4.6-32.9-16.6-39.4-35.7c-5.3-15.4-6-31.4-4.7-47.4c0.7-8.7,2.9-17.2,6.7-25.1c9.1-18.8,24.2-29.2,44.7-32
	c9.1-1.2,18.1-1,27,1.1c16.7,3.9,28.5,13.9,35.7,29.4c4.6,9.8,6.8,20.3,7.7,31c0.3,3.9,0.4,7.8,0.6,11.6c0.1,1.5-0.5,2.2-2,2.1
	c-0.9-0.1-1.9,0-2.8,0c-31.6,0-63.1,0-94.7,0c-4.5,0-4.5,0-4.1,4.5c0.7,7.4,1.8,14.7,4.7,21.6c6.6,16.1,18.7,24.2,35.8,25.3
	c5.6,0.4,11.1,0,16.4-1.8c11.6-3.9,19.2-11.9,23.5-23.2c1.2-3.1,1.2-3.1,4.4-3.1C1625.7,187.5,1631.1,187.5,1637.1,187.5z
	 M1577.5,151.4c8.2,0,16.5,0,24.7,0c4.7,0,9.4,0,14.1,0c2.6,0,2.6-0.1,2.6-2.5c-0.3-8-1.9-15.6-5.3-22.9
	c-3.9-8.2-9.7-14.8-18.2-18.4c-11.8-5.1-23.8-4.9-35.6,0.2c-7.1,3.1-12.5,8.3-16.5,14.9c-4.9,8.3-6.8,17.4-7.3,27
	c-0.1,1.3,0.5,1.7,1.7,1.6c0.8,0,1.6,0,2.5,0C1552.5,151.4,1565,151.4,1577.5,151.4z"/>
<path d="M774.9,159.4c0.2,12.7-1.8,24.6-6.9,35.8c-9.4,20.4-25.4,32.2-47.6,35.3c-10.5,1.5-20.9,1-31.1-1.8
	c-19.2-5.4-32.8-17.4-40-35.8c-8.7-22.2-8.8-44.7,0.3-66.8c9.1-21.9,26.2-33.8,49.5-37c10.1-1.4,20.2-1,30.1,1.8
	c21.7,6,35.2,20.4,42,41.5C773.9,141.2,775.1,150.4,774.9,159.4z M663,159.8c0,10.3,1.4,20.4,5.6,29.9c5.3,11.8,14.1,19.8,26.7,23.4
	c6.1,1.7,12.3,2.2,18.5,1.7c10.8-0.8,20.4-4.6,27.9-12.7c4.9-5.1,8.2-11.2,10.3-17.9c5-16.4,5.1-33-0.1-49.3
	c-4.6-14.7-14.2-24.7-29.6-28.5c-4.8-1.2-9.8-1.5-14.7-1.4c-21.6,0.7-36.2,12.2-42,33.1C663.7,145.2,663,152.5,663,159.8z"/>
<path d="M1164.9,123c0.7-1.7,1.4-3.5,2.1-5.2c7.4-16.5,20.4-25.7,38-28.7c8.8-1.5,17.6-1.2,26.3,0.9c16.1,3.9,25.9,14.1,29.7,30.2
	c1.2,5,1.6,10,1.6,15.1c0,29.6,0,59.1,0,88.7c0,0.2,0,0.5,0,0.7c0,2.9,0,3-2.8,3c-4.6,0-9.2,0-13.8,0c-2.6,0-2.7-0.1-2.7-2.8
	c0-11.4,0-22.8,0-34.3c0-16,0-32,0-48.1c0-4.7-0.3-9.4-1.3-14c-2.8-13.6-9.5-20.3-23.1-22.7c-7.6-1.3-15.3-1.3-22.8,0.4
	c-10.6,2.4-18.4,8.6-23.5,18.2c-3.5,6.6-5.3,13.8-6.4,21.2c-1,7.2-1.3,14.5-1.3,21.8c0,18.6,0,37.2,0,55.8c0,0.8,0,1.7,0,2.5
	c0.1,1.3-0.4,1.9-1.8,1.9c-5.2-0.1-10.4,0-15.5,0c-1.3,0-2-0.4-1.9-1.8c0.1-0.8,0-1.6,0-2.5c0-42.4,0-84.8,0-127.2
	c0-4.9-0.6-4.3,4.3-4.3c3.8,0,7.5,0,11.3,0c2.8,0,2.8,0,2.8,3c0,8.2,0,16.5,0,24.7c0,1.1,0,2.3,0,3.4
	C1164.4,123,1164.6,123,1164.9,123z"/>
<path d="M1361.8,145.1c0,25.8,0,51.6,0,77.4c0,0.7,0,1.4,0,2.1c0,3,0,3.1-3.1,3.1c-5.1,0-10.1,0-15.2,0c-1.7,0-2.4-0.5-2.3-2.2
	c0.1-0.9,0-1.9,0-2.8c0-52.1,0-104.1,0-156.2c0-5.1,0.6-4.4-4.6-4.4c-17.2,0-34.4,0-51.6,0c-0.8,0-1.7-0.1-2.5,0
	c-1.6,0.1-2-0.6-2-2.1c0-4.5,0.1-9,0-13.4c0-1.5,0.5-2.2,2-2c0.7,0.1,1.4,0,2.1,0c44.4,0,88.8,0,133.2,0c4.9,0,4.2-0.5,4.2,4.4
	c0,3.5,0,7.1,0,10.6c0,2.4-0.1,2.5-2.6,2.5c-9.4,0-18.8,0-28.3,0c-8.5,0-17,0-25.4,0c-4.4,0-4.1-0.4-4.1,3.9c0,9.5,0,19.1,0,28.6
	C1361.8,111.4,1361.8,128.2,1361.8,145.1z"/>
<path d="M1449.9,121.9c1.5-3.1,2.6-5.8,4-8.3c8.6-15.8,22.2-23.8,39.9-25.2c3.3-0.2,6.6-0.1,9.9-0.2c1.7-0.1,2.6,0.4,2.5,2.3
	c-0.1,5.1,0,10.1-0.1,15.2c0,2.3-0.1,2.4-2.4,2.3c-4.3-0.3-8.7-0.5-13-0.1c-17.5,1.8-29.5,10.8-36,27c-3,7.5-4.2,15.4-4.2,23.5
	c0,21.8,0,43.6,0,65.3c0,4.3,0.4,3.8-3.7,3.8c-4.5,0-8.9-0.1-13.4,0c-1.7,0-2.3-0.6-2.2-2.3c0.1-0.7,0-1.4,0-2.1
	c0-42.4,0-84.7,0-127.1c0-5-0.5-4.2,4.3-4.3c3.3,0,6.6,0,9.9,0c4.4,0,4.1-0.5,4.1,3.9c0,7.4,0,14.8,0,22.2
	C1449.5,119.2,1449.3,120.4,1449.9,121.9z"/>
<path d="M821.5,135.3c0,29.4,0,58.9,0,88.3c0,4.5,0.4,3.9-4,4c-4.1,0-8.2,0-12.4,0c-3,0-3,0-3-3.1c0-0.5,0-0.9,0-1.4
	c0-58.8,0-117.5,0-176.3c0-0.5,0-0.9,0-1.4c0-3.2-0.2-3.1,3.1-3.1c4.5,0,9,0,13.4,0c2.8,0,2.8,0,2.8,3c0,2,0,4,0,6
	C821.5,79.3,821.5,107.3,821.5,135.3z"/>
<path d="M888.9,360.1c2.7-7.1,5-13.3,7.4-19.6c4.8-12.9,9.7-25.8,14.5-38.7c1.2-3.3,0.8-3,4.2-3c2.6,0,5.2,0.1,7.8,0
	c1.8-0.1,2.3,0.6,2.2,2.3c-0.1,0.6,0,1.2,0,1.8c0,21.3,0,42.6,0,64c0,4.1,0.3,3.9-3.8,3.9c-5.7,0-4.8,0.5-4.8-4.9
	c0-16.1,0-32.3,0-48.4c0-1.2,0.3-2.5-0.3-3.9c-1,0.8-1.2,2-1.6,3.1c-6.6,16.8-13.1,33.5-19.6,50.3c-1.7,4.3-0.7,3.9-5.4,3.8
	c-6.4,0-4.8,0.9-7-4.7c-6.5-16.5-12.9-33.1-19.4-49.6c-0.4-1-0.8-1.9-1.4-3.2c-1,1-0.6,2.1-0.6,3c0,16.7,0,33.4,0,50.2
	c0,0.8-0.1,1.7,0,2.5c0.1,1.4-0.6,1.7-1.9,1.8c-6.6,0.5-6.5,0.5-6.5-6c0-20.5,0-41,0-61.5c0-0.8,0.1-1.7,0-2.5
	c-0.1-1.3,0.4-1.9,1.8-1.9c3.3,0.1,6.6,0.1,9.9,0c1.8-0.1,2,1.2,2.5,2.4c4,10.6,8,21.1,12,31.7C881.9,341.7,885.3,350.5,888.9,360.1
	z"/>
<path d="M1319.6,313.7c0,13.2,0,26.4,0,39.5c0,4.9,0,9.9,0,14.8c0,2.6-0.1,2.7-2.5,2.6c-7.5-0.1-6,1-6-5.8c-0.1-20.6,0-41.2,0-61.8
	c0-0.8,0.1-1.7,0-2.5c-0.1-1.4,0.6-1.8,1.9-1.8c3.1,0,6.1,0.1,9.2,0c1.7-0.1,2.5,0.6,3.1,2.1c2.1,5.7,4.3,11.5,6.4,17.2
	c4.9,13,9.8,26,14.7,38.9c0.3,0.8,0.6,1.5,1,2.4c1.2-1.1,1.4-2.5,1.8-3.7c6.7-17.7,13.3-35.4,20-53.2c1.6-4.2,0.5-3.6,5.5-3.7
	c2.4,0,4.7,0,7.1,0c1.2,0,1.7,0.4,1.7,1.7c0,0.7,0,1.4,0,2.1c0,21.4,0,42.9,0,64.3c0,4,0.5,3.8-3.8,3.8c-5.3,0-4.6,0.4-4.6-4.5
	c0-16.2,0-32.5,0-48.7c0-1.3,0-2.6,0-4.2c-1.3,0.7-1.4,1.8-1.7,2.7c-6.7,17.1-13.4,34.2-20.1,51.2c-1.5,3.8-0.8,3.5-5,3.4
	c-6.7-0.1-5,1-7.4-5.1c-6.4-16.2-12.7-32.4-19.1-48.6c-0.5-1.2-1-2.3-1.5-3.5C1320.1,313.6,1319.9,313.6,1319.6,313.7z"/>
<path d="M1218,358.2c-0.7-0.2-0.8-0.1-0.9,0.2c-5.7,10.9-15.2,14.9-26.9,14.7c-14.9-0.2-26.9-9.3-31.7-24.2
	c-3.5-10.9-3.3-21.8,1.3-32.4c5-11.4,14-17.7,26.1-19.6c7.5-1.2,14.8-0.6,21.9,2.2c9.2,3.7,15.6,10,17.6,20c0.1,0.5,0.1,0.9,0.1,1.5
	c-2.6,0.7-5.2,0.2-7.7,0.3c-0.8,0-1.2-0.4-1.4-1.3c-1.9-11.9-16.4-17.4-26.7-16.2c-12.4,1.4-20.3,9.6-23,20.7
	c-2.2,8.9-1.9,17.8,1.9,26.3c7.8,17.3,25.4,18,35.5,13c8.7-4.3,12.2-11.9,13.1-21.2c0.2-2-1-2-2.4-2c-5.7,0-11.3,0-17,0
	c-3.8,0-3.3,0-3.4-3.5c0-0.5,0-0.9,0-1.4c-0.1-1.4,0.5-1.9,1.8-1.8c2,0.1,4,0,6,0c6.9,0,13.9,0,20.8,0c2.5,0,2.6,0.1,2.6,2.5
	c0,10.7,0,21.4,0,32.1c0,1.8-0.4,2.5-2.3,2.5c-5.4,0.1-5.4,0.2-5.4-5.1C1218,363.1,1218,360.6,1218,358.2z"/>
<path d="M1022.1,312.9c0,1.1,0,2.3,0,3.4c0,16.7,0,33.4,0,50.1c0,0.8,0,1.6,0,2.5c0.1,1.2-0.5,1.8-1.6,1.7c-0.2,0-0.5,0-0.7,0
	c-6.1,0.3-6.1,0.3-6.1-5.8c0-20.6,0-41.2,0-61.8c0-0.8,0-1.6,0-2.5c-0.1-1.1,0.3-1.8,1.6-1.8c2.4,0,4.7,0,7.1,0
	c1.6,0,2.1,1.3,2.8,2.3c7.8,10.6,15.6,21.2,23.4,31.8c4.9,6.6,9.8,13.3,14.6,19.9c0.7,0.9,1.4,1.8,2.4,3c0.7-1.3,0.4-2.5,0.4-3.6
	c0-16.5,0-33,0-49.4c0-0.9,0-1.9,0-2.8c0-0.9,0.5-1.2,1.3-1.3c0.1,0,0.2,0,0.4,0c6.7-0.7,6.7-0.7,6.7,6.1c0,20.5,0,41,0,61.4
	c0,0.8,0,1.7,0,2.5c0.1,1.4-0.6,1.9-1.9,1.8c-0.2,0-0.5,0-0.7,0c-5.6,0.2-5.6,0.2-8.9-4.3c-12.7-17-25.3-34-37.9-51
	c-0.7-0.9-1.4-1.8-2.1-2.8C1022.6,312.7,1022.4,312.8,1022.1,312.9z"/>
<path d="M1479.3,312.7c0,1.5,0,2.8,0,4.1c0,16.6,0,33.2,0,49.8c0,0.8,0,1.6,0,2.5c0,1-0.5,1.5-1.5,1.6c-0.1,0-0.2,0-0.4,0
	c-6.6,0.7-6.6,0.6-6.6-5.9c0-20.6,0-41.2,0-61.8c0-0.8,0-1.6,0-2.5c-0.1-1.2,0.4-1.7,1.6-1.7c2.2,0.1,4.5,0.1,6.7,0
	c1.7-0.1,2.2,1.2,2.9,2.2c6.4,8.7,12.8,17.4,19.3,26.2c6.3,8.6,12.7,17.3,19.1,25.9c0.7,0.9,1.1,2.1,2.4,2.7
	c0.5-0.9,0.3-1.8,0.3-2.7c0-16.6,0-33.2,0-49.8c0-0.8,0-1.7,0-2.5c-0.1-1.3,0.3-1.9,1.7-2c6.7-0.5,6.7-0.6,6.7,6.2
	c0,20.6,0,41.2,0,61.8c0,3.6,0.8,3.9-3.8,3.9c-0.7,0-1.4-0.1-2.1,0c-1.9,0.2-3-0.6-4.1-2.1c-8-10.9-16.1-21.7-24.2-32.6
	c-5.4-7.3-10.8-14.5-16.2-21.8C1480.8,313.7,1480.5,313,1479.3,312.7z"/>
<path d="M639.1,373.1c-5.8,0-11.2-0.6-16.4-2.2c-9.3-3-14.8-9.2-16.1-19c-0.4-2.8-0.3-2.8,2.4-2.9c0.1,0,0.2,0,0.4,0
	c1.8,0.1,3.8-0.6,5.2,0.3c1.3,0.9,0.9,3,1.3,4.6c1.2,4.2,3.7,7.5,7.6,9.3c9,4.1,18.3,4.4,27.4,0.6c6.2-2.6,8.9-7.8,8-14.6
	c-0.5-3.7-2.3-6.3-5.6-8c-3.2-1.6-6.7-2.3-10.2-2.7c-6.5-0.9-13.1-1.7-19.4-3.5c-2.4-0.7-4.7-1.5-6.9-2.7c-4.3-2.3-7.1-5.9-7.9-10.7
	c-1.9-10.2,1.6-17.9,11.2-22.2c6.2-2.7,12.7-3.4,19.4-2.9c4.8,0.3,9.6,1.1,14,3.2c7.8,3.7,12.1,9.9,12.6,18.6c0.1,1.4-0.3,2-1.7,1.9
	c-0.2,0-0.5,0-0.7,0c-1.8,0-3.7,0.4-5.2-0.2c-1.9-0.7-0.9-3.1-1.4-4.7c-1.6-5.7-5.4-9.1-10.9-10.5c-6.4-1.7-12.8-1.7-19.2-0.1
	c-1.5,0.3-2.9,0.9-4.3,1.6c-4,2.1-6,5.5-6,10c0,4.5,1.8,8,5.7,10.2c3.8,2.1,7.9,2.9,12.1,3.6c5.6,0.9,11.2,1.4,16.7,2.8
	c1.7,0.4,3.4,1,5,1.6c14.4,5.3,13.7,22.6,6.9,29.9c-4.1,4.4-9.3,6.8-15,8C645.1,372.9,641.9,373.3,639.1,373.1z"/>
<path d="M569.7,373.1c-6.4-0.1-12.4-0.7-18.1-2.9c-8.5-3.2-13.3-9.4-14.3-18.4c-0.3-2.7-0.3-2.7,2.5-2.8c1.8,0,3.8-0.5,5.2,0.2
	c1.6,0.8,1,3.1,1.5,4.7c1.5,4.7,4.4,8.1,9,9.8c8.1,3.2,16.3,3.5,24.5,0.7c7.1-2.5,10.4-7.8,9.6-14.9c-0.4-3.7-2.2-6.4-5.4-8.2
	c-3.2-1.7-6.6-2.4-10.1-2.8c-6.5-0.9-13.1-1.7-19.4-3.5c-2.5-0.7-4.9-1.6-7.2-2.8c-4.2-2.3-7-5.7-7.8-10.3
	c-1.7-9.7,0.6-17.6,10.9-22.4c6.2-2.9,12.9-3.5,19.7-3c4.2,0.3,8.4,0.9,12.4,2.5c7.1,2.9,12,7.8,13.7,15.4c0.3,1.4,0.3,2.8,0.4,4.2
	c0.1,1-0.3,1.6-1.4,1.5c-0.8,0-1.7,0-2.5,0c-1.4-0.1-3,0.5-4.1-0.4c-1-0.8-0.5-2.4-0.8-3.7c-1.1-5.1-4-8.8-8.9-10.6
	c-7.8-2.7-15.7-2.9-23.5-0.2c-6.7,2.3-9.5,8-7.7,14.6c0.9,3.1,2.9,5.3,5.7,6.8c3.6,1.9,7.5,2.7,11.5,3.3c5.7,0.9,11.4,1.4,17,2.8
	c1.6,0.4,3.2,0.9,4.7,1.5c14.5,5.2,14.3,22.9,6.6,30.6c-4.1,4-9.1,6.2-14.6,7.4C575.6,372.9,572.5,373.2,569.7,373.1z"/>
<path d="M1401.2,334.7c0-10.9,0-21.9,0-32.8c0-3,0-3.1,3.1-3.1c16.2,0,32.5,0,48.7,0c3.3,0,3.1-0.2,3.1,3c0,0.7,0,1.4,0,2.1
	c0.1,1.4-0.6,1.9-1.9,1.8c-3.2,0-6.4,0-9.5,0c-10.6,0-21.2,0-31.8,0c-2.7,0-2.8,0.1-2.8,2.7c0,6.1,0,12.2,0,18.4
	c0,2.4,0.1,2.5,2.6,2.5c12,0,24,0,36,0c0.8,0,1.7,0,2.5,0c1.4-0.1,1.7,0.7,1.8,1.9c0.4,5.1,0.4,5.1-4.6,5.1c-11.8,0-23.5,0-35.3,0
	c-2.9,0-3,0-3,2.8c0,7.1,0,14.1,0,21.2c0,2.9,0,3,3.2,3c13.4,0,26.8,0,40.3,0c0.7,0,1.4,0.1,2.1,0c1.6-0.1,2.4,0.4,2.3,2.1
	c-0.1,6.1,0.5,5.1-5,5.1c-16,0-32,0-48,0c-4.4,0-3.8,0-3.8-3.8C1401.1,356.2,1401.2,345.4,1401.2,334.7z"/>
<path d="M1241.3,334.7c0-10.9,0-21.9,0-32.8c0-3,0-3.1,3.1-3.1c16.2,0,32.5,0,48.7,0c3,0,3,0,3.1,3.1c0,0.7,0,1.4,0,2.1
	c0,1.1-0.4,1.8-1.6,1.8c-0.8,0-1.6,0-2.5,0c-12.9,0-25.9,0-38.8,0c-3.1,0-3.1,0-3.1,3.1c0,5.6,0,11.3,0,16.9c0,3.5,0,3.5,3.4,3.5
	c11.7,0,23.3,0,35,0c0.8,0,1.7,0,2.5,0c1.3-0.1,1.8,0.4,1.9,1.8c0.4,5.3,0.4,5.3-4.8,5.3c-11.7,0-23.3,0-35,0c-2.9,0-3,0-3,2.8
	c0,7.1,0,14.1,0,21.2c0,2.9,0,3,3.2,3c13.5,0,27.1,0,40.6,0c4.2,0,3.9-0.6,3.9,4.1c0,3.2,0,3.2-3,3.2c-16.8,0-33.7,0-50.5,0
	c-3.1,0-3.1,0-3.1-3.1C1241.3,356.6,1241.3,345.7,1241.3,334.7z"/>
<path d="M680.6,334.3c0-10.8,0-21.7,0-32.5c0-2.9,0-2.9,2.8-2.9c16.4,0,32.7,0,49.1,0c2.9,0,2.9,0,2.9,2.9c0,0.5,0,0.9,0,1.4
	c-0.1,2.6-0.1,2.7-2.9,2.7c-12.8,0-25.7,0-38.5,0c-0.8,0-1.7,0.1-2.5,0c-1.9-0.2-2.4,0.6-2.4,2.5c0.1,6.1,0,12.2,0,18.4
	c0,2.7,0.1,2.7,2.7,2.7c12,0,24,0,36,0c4.7,0,4.2-0.6,4.2,4.1c0,2.9,0,2.9-2.9,2.9c-11.9,0-23.8,0-35.7,0c-0.8,0-1.7,0.1-2.5,0
	c-1.6-0.1-2.1,0.7-2,2.1c0.1,1.1,0,2.1,0,3.2c0,6,0,12,0,18c0,3.8-0.5,3.7,3.5,3.7c10.6,0,21.2,0,31.8,0c3.4,0,6.8,0.1,10.2,0
	c1.9-0.1,2.4,0.7,2.4,2.5c-0.2,5.4,0.7,4.8-4.6,4.9c-15.9,0-31.8,0-47.7,0c-0.1,0-0.2,0-0.4,0c-4.6,0-4,0.3-4-3.9
	C680.6,355.9,680.6,345.1,680.6,334.3z"/>
<path d="M934.5,370.7c-0.2-1.8,0.6-2.7,1-3.8c9.3-21.7,18.6-43.4,27.8-65.2c0.9-2.2,1.9-3.2,4.4-2.9c2.2,0.3,4.8-0.7,6.6,0.4
	c1.9,1.1,2.1,3.8,2.9,5.8c8.7,20.5,17.4,41.1,26.1,61.7c0.5,1.1,0.9,2.2,1.5,3.7c-3.1,0.4-6,0.3-8.9,0.1c-1.2,0-1.3-1.2-1.6-2.1
	c-1.7-4.1-3.5-8.2-5.1-12.4c-0.8-2.2-1.8-3.1-4.3-3c-10.4,0.2-20.7,0.1-31.1,0c-2.2,0-3.4,0.5-4.2,2.7c-1.6,4.3-3.6,8.4-5.3,12.7
	c-0.7,1.7-1.7,2.3-3.4,2.2C938.9,370.6,936.8,370.7,934.5,370.7z M969.7,308.6c-5.5,10.9-15.3,35-15.3,37.5c10.1,0,20.1,0,30.8,0
	C980,333.5,974.9,321.3,969.7,308.6z"/>
<path d="M531.5,370.3c-0.4,0.2-0.5,0.2-0.6,0.2c-2.8,0.1-6,1-8.3-0.3c-2.3-1.2-2.4-4.6-3.5-7.1c-1.2-2.6-2.2-5.2-3.2-7.8
	c-0.6-1.5-1.3-2.2-3.1-2.2c-11,0.1-21.9,0.1-32.9,0c-1.7,0-2.5,0.7-3.1,2.2c-1.7,4.3-3.7,8.4-5.3,12.7c-0.8,2.1-2,2.9-4.2,2.7
	c-2-0.2-4,0-5.9,0c-0.4-1.3,0.2-2.1,0.6-2.9c9.4-22,18.8-43.9,28.1-65.9c1.1-2.5,2.4-3.5,5-3.1c2.1,0.3,4.5-0.7,6.2,0.4
	c1.7,1.1,1.9,3.6,2.7,5.6c8.7,20.6,17.4,41.2,26.1,61.8C530.7,367.7,531.4,368.8,531.5,370.3z M496.5,308.3
	c-5.5,13-10.7,25.3-16,37.8c10.7,0,20.9,0,31.7,0C506.9,333.5,501.9,321.3,496.5,308.3z"/>
<path d="M1153.7,370.7c-2.8,0-5.4,0-8,0c-1.4,0-1.7-0.9-2.1-1.9c-1.8-4.4-3.7-8.7-5.3-13.1c-0.7-2-1.9-2.6-3.9-2.5
	c-10.5,0.1-20.9,0.1-31.4,0c-2.3,0-3.3,0.7-4.1,2.8c-1.6,4.3-3.6,8.4-5.3,12.7c-0.6,1.5-1.5,2.2-3.1,2.1c-2.2-0.1-4.4,0-6.4,0
	c-0.7-1.2-0.1-1.9,0.2-2.6c9.5-22.3,19-44.5,28.5-66.8c0.8-2,1.9-2.7,4-2.5c2.3,0.2,5.1-0.8,6.9,0.4c1.9,1.2,2.1,4.1,3,6.2
	c8.6,20.3,17.2,40.7,25.8,61C1152.9,367.7,1153.6,368.8,1153.7,370.7z M1134.5,346.2c-5.4-12.9-10.4-25.1-15.6-37.6
	c-3.9,7.4-15.3,34.9-15.4,37.6c9.2,0,18.4,0,27.5,0C1131.9,346.2,1132.8,346.2,1134.5,346.2z"/>
<path d="M1716.6,334.3c0-10.8,0-21.7,0-32.5c0-2.9,0-2.9,2.9-2.9c10.5,0,21-0.2,31.4,0c19.2,0.3,26.8,19,20.4,32.9
	c-3.3,7.3-9.5,10.8-17.3,11.8c-5.2,0.7-10.3,0.4-15.5,0.4c-3.5,0-7.1,0.1-10.6,0c-1.8,0-2.5,0.5-2.4,2.4c0.1,6.8,0,13.7,0,20.5
	c0,0.8,0,1.6,0,2.5c0,0.9-0.4,1.3-1.3,1.3c-2.1,0-4.2,0-6.4,0c-0.9,0-1.2-0.6-1.2-1.4c0-0.8,0-1.6,0-2.5
	C1716.6,356,1716.6,345.1,1716.6,334.3z M1725.5,321.3c0,4.6,0,9.2,0,13.7c0,1.5,0.6,2.1,2.1,2c7.6-0.1,15.3,0.1,22.9-0.1
	c7-0.2,12.2-4,14.1-9.8c3.4-10.3-2.5-21-14.5-21.3c-7.4-0.2-14.8,0-22.2-0.1c-1.9,0-2.4,0.6-2.4,2.5
	C1725.6,312.6,1725.5,316.9,1725.5,321.3z"/>
<path d="M767.7,338c0-9.8,0-19.5,0-29.3c0-2.8,0-2.9-2.9-2.9c-6.6,0-13.2,0-19.8,0c-3.2,0-3.2,0-3.2-3c0-4.6-0.3-3.9,4-3.9
	c17.5,0,35.1,0,52.6,0c0.7,0,1.4,0.1,2.1,0c1.4-0.1,1.8,0.5,1.9,1.8c0.3,5.2,0.4,5.1-5,5.1c-5.9,0-11.8,0-17.7,0
	c-3.1,0-3.1,0-3.1,3.1c0,18.2,0,36.5,0,54.7c0,1.6-0.1,3.3,0,4.9c0.1,1.4-0.4,2.1-1.9,2.2c-7,0.5-7,0.6-7-6.6
	C767.7,355.4,767.7,346.7,767.7,338z"/>
<path d="M1566.5,338c0-9.8,0-19.5,0-29.3c0-2.8,0-2.9-2.9-2.9c-6.5,0-12.9,0-19.4,0c-3.6,0-3.6,0-3.6-3.7c0-0.5,0-0.9,0-1.4
	c-0.1-1.4,0.5-2,1.9-1.8c0.7,0.1,1.4,0,2.1,0c17.5,0,35.1,0,52.6,0c0.7,0,1.4,0,2.1,0c1.4-0.1,1.8,0.5,1.9,1.8
	c0.3,5.2,0.4,5.2-4.9,5.2c-5.9,0-11.8,0-17.7,0c-3.1,0-3.1,0-3.1,3c0,17.3,0,34.6,0,51.9c0,2.6-0.1,5.2,0,7.8c0,1.4-0.3,2.1-1.9,2.2
	c-7,0.5-7,0.6-7-6.6C1566.5,355.4,1566.5,346.7,1566.5,338z"/>
<path d="M1654.2,334.8c0-11,0-21.9,0-32.9c0-3.1,0-3.1,3.1-3.1c6-0.1,6-0.1,6,5.8c0,18,0,36,0,54c0,0.8,0.1,1.7,0,2.5
	c-0.2,1.7,0.5,2.3,2.2,2.3c3.2-0.1,6.4,0,9.5,0c9.7,0,19.3,0,29,0c2.9,0,2.9,0,2.9,2.9c0,4.9,0.7,4.4-4.2,4.4c-14.7,0-29.4,0-44.2,0
	c-0.7,0-1.4-0.1-2.1,0c-1.8,0.2-2.2-0.7-2.2-2.3c0.1-6.9,0-13.9,0-20.8C1654.2,343.3,1654.2,339,1654.2,334.8z"/>
</svg>
