<?xml version="1.0" encoding="utf-8"?>
<!-- Generator: Adobe Illustrator 25.4.1, SVG Export Plug-In . SVG Version: 6.00 Build 0)  -->
<svg version="1.1" id="Layer_1" xmlns="http://www.w3.org/2000/svg" xmlns:xlink="http://www.w3.org/1999/xlink" x="0px" y="0px"
	 viewBox="0 0 982.8 252.5" style="enable-background:new 0 0 982.8 252.5;" xml:space="preserve">
<path d="M414.9,167.9c-6.5-5.1-13.7-8.9-21.4-11.7c-14.9-5.4-30.4-7-47-7.4c-12.9,0.3-26.6,1.3-40,5.2c-11.5,3.4-22.1,8.2-31,16.4
	c-17.6,16.3-17.3,43.4-0.9,59.4c8.6,8.4,18.8,13.7,30.1,16.8c27.2,7.5,54.6,7.5,81.9,0.6c10.9-2.8,20.8-7.5,29.4-14.9
	C436.4,215.2,436,184.7,414.9,167.9z M385.7,216.5c-6.4,3.8-13.4,5.5-20.7,6.4c-6.1,0.7-12.3,1-18.4,1.5c-9.7-0.2-19.3-0.9-28.6-3.6
	c-3.8-1.1-7.6-2.5-11-4.6c-12.5-7.7-12.3-23.6,0.3-31.2c5.7-3.4,12-5.1,18.5-6.1c16.3-2.5,32.6-2.5,48.6,1.5c3.8,1,7.7,2.4,11.1,4.4
	C398.8,192.4,398.9,208.6,385.7,216.5z"/>
<path d="M358.1,36.1c0.8-6.3,1.5-12.6,0.8-18.8c-7.5-1.1-114.5-0.8-118.5,0.3c0,9.1,0,18.3,0,28c26.3,0,52.3,0,79.6,0
	c-1.7,5.7-2.8,10.5-4.5,15c-6.9,17.8-19.3,31-35.2,41.1c-14.2,9.1-29.8,15-46,19.7c-1.8,0.5-3.6,1.2-5.7,1.9
	c2.6,5.3,4.9,10,7.3,14.7c2.3,4.7,4.7,9.3,7,13.8c11-2.1,29.8-9.1,43.3-16.3C326.4,114.3,352.5,82.5,358.1,36.1z"/>
<path d="M197.6,188.4c0-7.3,0-14,0-20.7c0-6.7,0-13.5,0-20.2s0-13.5,0-20.2c0-6.6,0.1-13.3,0.1-20.5c11.4,0,22,0,32.8,0
	c0-10.1,0-19.7,0-29.6c-10.9,0-21.4,0-32.9,0c0-26,0-51.2,0-76.9c-12.4,0-24-0.1-35.9,0c0,63.1,0,125.4,0,188.3
	C173.8,188.7,185.5,189,197.6,188.4z"/>
<path d="M87.8,160c9.8-1.4,19-4.7,27.3-10.3c17.1-11.5,24.4-31.1,18.6-50c-3.9-12.5-12.3-21.2-23.6-27.3
	c-11.3-6.1-23.5-8.4-36.3-8.4c-3.4,0.2-6.9,0.2-10.3,0.6C51.2,66,39.9,69.6,30,77c-15.4,11.5-21.7,30.1-16.2,48.5
	c4.3,14.4,14.5,23.6,27.9,29.5C56.5,161.4,72,162.2,87.8,160z M59,94.2c9.9-3.8,20-3.8,29.8,0.1c8.1,3.2,12.2,9.5,12.1,18.3
	c-0.1,8.8-4.2,15.1-12.2,18.2c-4.7,1.8-9.8,2.4-14.8,3.5c-5-1.1-9.9-1.6-14.5-3.2c-8.5-3-12.8-9.6-12.9-18.3
	C46.5,103.8,50.5,97.5,59,94.2z"/>
<path d="M71.5,175c-12.2,0-23.7,0-35.6,0c-1,9.2-0.6,68.2,0.4,72.2c7.1,1,166,0.7,170.1-0.4c0-9.1,0-18.3,0-28.1
	c-45,0-89.6,0-134.8,0C71.5,203.8,71.5,189.5,71.5,175z"/>
<path d="M428.2,0.6c-12.2,0-23.9,0-35.7,0c0,48.5,0,96.6,0,145.2c12.1-0.3,23.7,0.4,35.8-0.4c0-18.9,0-37.3,0-56.4
	c11.1,0,21.9,0,32.7,0c0-10.3,0-19.8,0-30c-11,0-21.6,0-32.8,0C428.2,39.2,428.2,20,428.2,0.6z"/>
<path d="M147.6,26.8c-18.6,0-36.9,0-55.9,0c0-4.9,0.1-9.2,0-13.6C91.6,9,92.5,4.7,91.1,0.6c-9.7-1-31.7-0.6-36,0.7
	c0,8.3,0,16.7,0,25.7C36.4,27,18.2,27,0,27c0,9.6,0,18.5,0,27.8c49.2,0,98.1,0,147.6,0C147.6,45.4,147.6,36.4,147.6,26.8z"/>
<path d="M650.4,86.5c10.3,0,20,0,30.2,0c0.3,11.6-0.1,23,0.2,34.2c5.8,0,10.8,0,15.8,0c0-26.9,0-53.4,0-80.2
	c-5.4-0.5-10.5-0.6-15.9,0.1c-0.2,10.6,0.1,20.7-0.2,31.2c-10.5-0.1-20.2,0.2-30.5-0.2c0-10.8,0-20.9,0-31.1c-5.5,0-10.5,0-15.8,0
	c0,26.8,0,53.3,0,80.2c5.6,0,10.6,0,16.1,0C650.4,109.1,650.4,97.9,650.4,86.5z"/>
<path d="M843.3,109.2c-0.2-9.8-0.1-19.6-0.1-29.5c0-1-0.3-2.1-0.5-3.1c-9.5,0-18.6,0-28,0c-0.4,4.4-0.8,8.5,0.3,13.1
	c4.5,0,8.8,0,13.7,0c0,4.5-0.2,8.5,0.1,12.4c0.2,3.2-1.4,4.5-4.1,5.5c-9.5,3.2-21.5-0.9-25.9-9.8c-5.6-11.4-5.8-23.3,0.4-34.6
	c6-10.9,19.9-13.9,30.2-7c1.3,0.9,2.6,1.8,4.2,3c2.9-3.4,5.5-6.6,8.4-9.9c-14.8-16.5-45.4-13.4-57.4,7c-6,10.2-7.3,21.1-5.8,32.7
	c4.7,36.3,43.1,40,61.3,26.6C842.2,113.9,843.3,112.1,843.3,109.2z"/>
<path d="M541.9,213.3c-0.3,0-0.6,0-0.9,0c-5.7-21.3-11.4-42.5-17.1-63.9c-5.9-0.3-11.2-0.7-17,0.3c8.2,27,16.3,53.5,24.5,80.1
	c6.6,0,12.9,0,19.4,0c4.2-13.6,8.3-26.9,12.3-40.3c4-13.3,8.5-26.4,12-40.1c-5.8,0-10.9,0-16.2,0
	C553.2,170.9,547.6,192.1,541.9,213.3z"/>
<path d="M695.4,177.2c-1.9-5.3-6.1-8.5-11.7-9.5c-6.2-1.1-11.9-0.1-17.2,3.4c-2.4,1.6-4.7,3.3-7.3,5.2c-0.7-2.7-1.3-4.9-1.8-7
	c-4.3,0-8.4,0-12.6,0c0,20.4,0,40.3,0,60.7c5.4,0.3,10.5,0.5,15.9-0.1c0-12.5,0-24.3,0-36.1c0-6.2,2.4-9.7,8.2-11.8
	c6.9-2.6,12,0.5,12.7,7.9c0.2,2.5,0.2,5.1,0.2,7.6c0,8.9,0,17.8,0,26.7c0,1.8,0.1,3.5,0.2,5.7c5.3,0,10.3,0,15.4,0
	c0.2-0.9,0.4-1.6,0.4-2.3c0-13.1,0.2-26.2-0.1-39.3C697.8,184.6,696.7,180.7,695.4,177.2z"/>
<path d="M796.7,174.8c0,10.4,0,20.7,0,31.1c0,6.2-4.9,11.3-11.1,11.7c-5.5,0.4-8.1-1.6-9.1-7c-0.4-2.1-0.5-4.3-0.5-6.5
	c-0.1-9.8,0-19.6,0-29.4c0-1.8-0.2-3.5-0.3-5.5c-5.3,0-10.2,0-15.5,0c-0.2,1.3-0.4,2-0.4,2.7c0,12.4-0.2,24.7,0.1,37.1
	c0.1,4.3,1.1,8.6,2.5,12.7c1.7,5.4,6,8.6,11.5,9.6c7.4,1.4,14.1-0.3,19.8-5.3c1.4-1.2,2.8-2.5,4.6-4c0.7,3.2,1.3,5.6,1.8,8
	c4.3,0,8.2,0,12.5,0c0-20.4,0-40.4,0-60.7c-5.2,0-10.2,0-15.6,0C796.8,171.3,796.7,173,796.7,174.8z"/>
<path d="M897.4,167.7c-7.9,1.6-14,5.9-18.3,12.6c-5.4,8.4-6.5,17.7-4.6,27.3c2.7,13.2,11.5,21.6,24.6,23.6
	c9.5,1.4,18.2-0.9,26.4-6.5c-1.4-2.6-2.5-4.6-3.7-6.7c-0.5-0.9-1.2-1.8-1.7-2.6c-18.4,6.5-29.3,2.5-30-11.4c12.1,0,24.2,0,36.6,0
	c1.6-7.1,1.3-13.7-0.6-19.6C922.1,171.9,910.3,165,897.4,167.7z M889.9,193.1c0.2-8.1,5.3-13.2,12.8-13.1c7.1,0,10.7,4.2,10.9,13.1
	C905.5,193.1,897.7,193.1,889.9,193.1z"/>
<path d="M603.3,167.4c-7.6,0.8-13.8,4.3-18.6,10.2c-4.8,5.8-7.1,12.7-7.3,20.1c-0.4,12.8,3.5,23.7,15.4,30.3
	c11,6.1,26.3,4.5,36.2-3.6c-1.7-3-3.4-6.1-5.1-9.1c-17.8,7-28,3.4-30.5-11.5c12.7,0,24.9,0,37.2,0c1.5-6.2,1-11.8-0.3-17.3
	C627.2,173.5,616.7,166,603.3,167.4z M617.3,192.2c-3.3,1.4-17.1,1.8-23.7,0.6c0.3-7.6,5.3-12.4,12.5-12.8
	C611.6,179.7,617.7,183.6,617.3,192.2z"/>
<path d="M973.3,197.1c-3.5-1.8-7.3-3.1-11-4.7c-2.2-0.9-4.3-1.9-6.4-3.1c-1.8-1.1-3.2-3-2.3-5c0.7-1.6,2.2-3.4,3.8-4.1
	c3.7-1.8,7.5-0.7,11,1c2.1,1,4.1,2.1,6.4,3.2c2.3-3.1,4.5-6,7.3-9.8c-3.8-2-6.8-4-10.1-5.3c-8-3.1-16-2.9-23.8,0.8
	c-10.5,4.9-15.2,21.2-1.9,29.7c2.7,1.7,5.8,2.9,8.8,4.3c2.8,1.3,5.7,2.3,8.4,3.8c2.5,1.3,4.6,3.1,4,6.4c-0.5,2.7-2.8,4.6-6.4,5.1
	c-4.3,0.6-8.3-0.5-12.1-2.5c-2.2-1.1-4.3-2.5-6.8-3.9c-2.4,3.4-4.6,6.6-7,9.9c5.2,4.3,10.6,6.7,16.5,7.9c7.4,1.5,14.5,1,21.2-2.6
	c6.3-3.3,9.6-8.7,9.8-15.8C983,205.3,979.4,200.3,973.3,197.1z"/>
<path d="M744.5,218.4c-8.2,1-11.4-1.7-11.5-10.2c-0.1-7.6,0-15.3,0-22.9c0-1.2,0.4-2.4,0.7-4.1c4.9,0,9.5,0,14.2,0
	c0-4.3,0-8.1,0-12.4c-4.9,0-9.6,0-14.8,0c0-5.6,0-10.6,0-15.9c-4.8,0-9.1,0-13.6,0c-0.7,5.3-1.3,10.4-2,15.6c-3.1,0.5-6.1,1-9.1,1.5
	c0,3.9,0,7.5,0,11.2c2.9,0.3,5.5,0.5,8.4,0.7c0,9-0.1,17.6,0,26.1c0.1,3.2,0.3,6.6,1,9.7c1.3,5.9,4.5,10.4,10.3,12.4
	c7.1,2.5,14.2,1.9,21.6-1.1c-0.8-3.7-1.5-7.2-2.3-11C746.2,218.2,745.4,218.3,744.5,218.4z"/>
<path d="M844.5,178.9c-0.7-3.8-1.2-6.8-1.8-10c-4.4,0.2-8.5-0.7-12.5,0.6c0,20.3,0,40.2,0,60.4c5.1,0,10,0,15.7,0c0-2.3,0-4.1,0-5.8
	c0-8.5,0-17.1,0-25.6c0-11.6,7.6-18.1,19-16.3c0.3,0,0.7-0.2,1.5-0.4c0.8-4.1,1.7-8.4,2.6-13C857.8,164.6,850.8,170.3,844.5,178.9z"
	/>
</svg>
