<?xml version="1.0" encoding="utf-8"?>
<!-- Generator: Adobe Illustrator 25.4.1, SVG Export Plug-In . SVG Version: 6.00 Build 0)  -->
<svg version="1.1" id="Layer_1" xmlns="http://www.w3.org/2000/svg" xmlns:xlink="http://www.w3.org/1999/xlink" x="0px" y="0px"
	 viewBox="0 0 1043.7 436.1" style="enable-background:new 0 0 1043.7 436.1;" xml:space="preserve">
<g>
	<path d="M749.9,392.7c0-10.5,0-21,0-31.5c0-11.4,0-11.3-11.6-11.1c-4,0.1-5.7,1.5-5.6,5.6c0.2,7.8,0,15.7,0,23.5
		c0,3.3-1.3,4.9-4.8,4.9c-6-0.1-12-0.1-18,0c-4,0.1-5.3-1.8-5.2-5.5c0.1-6,0-12,0-18c0-10.6,0-10.6-10.7-10.4
		c-6.9,0.1-7.2,0.4-7.2,7.5c0,22,0,44,0,66c0,12.3-1.5,11.3,11.6,11.6c4.8,0.1,6.4-1.8,6.3-6.5c-0.2-8.5,0-17-0.1-25.5
		c0-3.6,1.5-5.1,5.1-5.1c5.8,0.1,11.7,0.1,17.5,0c3.8-0.1,5.5,1.5,5.4,5.3c-0.1,7,0,14,0,21c0,10.9,0,10.7,11,10.7
		c4.9,0,6.4-1.9,6.3-6.5C749.8,416.7,749.9,404.7,749.9,392.7z"/>
	<path d="M1037.8,421.1c-7,0.3-14-0.1-21,0.1c-4.4,0.1-6.5-1.4-6.2-6c0.3-4.1,0.3-8.3,0-12.5c-0.3-4.7,1.6-6.7,6.4-6.5
		c5.2,0.2,10.3,0,15.5,0c8.1,0,8.2-0.3,8.2-8.5c0-4-1.4-5.9-5.5-5.7c-4.3,0.2-8.7,0.1-13,0c-12.5-0.1-11.4,1.5-11.6-12.1
		c0-4.4,1.9-5.8,6.1-5.8c7,0.1,14-0.2,21,0.1c5.2,0.2,6.1-2.4,6-6.7c-0.1-4.2-0.2-7.5-6-7.4c-13.2,0.2-26.3,0.2-39.5,0
		c-4.1,0-5.6,1.6-5.6,5.6c0.1,12.2,0.1,24.3,0.1,36.5c0,12.5,0.1,25,0,37.5c0,3.8,1.4,5.5,5.3,5.4c13.3-0.1,26.6-0.2,40,0
		c5.4,0.1,5.7-3.1,5.7-7.1C1043.7,423.9,1043.1,420.9,1037.8,421.1z"/>
	<path d="M819.7,364.2c7.2,0.1,14.3-0.2,21.5,0.1c5.5,0.2,5.7-3,5.7-7.1c0-4-0.1-7.2-5.6-7.1c-13,0.2-26,0.2-38.9,0
		c-4.4-0.1-5.8,1.7-5.8,6c0.2,12.1,0.1,24.3,0.1,36.4c0,12.3,0.1,24.6,0,36.9c0,4,1.5,5.7,5.6,5.7c13.1-0.1,26.3-0.2,39.4,0
		c5.8,0.1,5.2-3.7,5.3-7.4c0.1-3.9-0.4-6.9-5.5-6.7c-7.5,0.2-15,0-22.5,0.1c-3.3,0-5-1.1-5-4.6c0.1-5.2,0.1-10.3,0-15.5
		c0-3.4,1.6-4.8,4.9-4.8c5.5,0,11,0,16.5,0c8.5,0,8.8-0.5,8.5-9.1c-0.1-3.6-1.6-5.1-5.2-5c-4.3,0.1-8.7,0-13,0
		c-12.4,0-12.2,0-11.8-12.4C814,365.5,815.8,364.2,819.7,364.2z"/>
	<path d="M536,387.8c-6.4-3.5-13.2-6.2-19.7-9.6c-3.6-1.9-5.1-5.2-3.9-9.3c1.1-3.9,4.3-4.7,7.9-4.8c5.6-0.2,10.9,0.9,16.2,2.4
		c3.5,1,5.4-0.1,6-3.7c0.2-1.5,0.5-3,0.9-4.4c1.1-3.7-0.4-5.5-4-6.5c-6.2-1.6-12.4-2.6-16.4-2.7c-15.8-0.1-25,5.5-27.9,15.6
		c-3.2,11.3,1.4,22.1,12.5,28.1c6.1,3.3,12.6,6.1,18.7,9.3c4.2,2.2,7.2,5.6,6.1,10.9c-0.9,4.3-5,7.4-10.4,7.9
		c-6.2,0.6-12.3-0.5-18.2-2.5c-6.4-2.1-6.4-2.1-8.9,4.2c-0.4,0.9-0.7,1.9-1.1,2.8c-1.2,2.7-0.3,4.4,2.4,5.5
		c12.1,4.8,24.4,6.9,37,2.9c8.7-2.7,14.5-8.5,16.5-17.7C552.5,403.5,548.2,394.4,536,387.8z"/>
	<path d="M925.9,374.4c-0.1,1.8-0.6,3.6-1.3,5.3c-1.1,2.5-0.3,3.4,2.2,3.4c3.7,0,7.3-0.1,11,0.1c4.5,0.2,6.2-2.2,6.9-6.2
		c2.4-13.5-4.8-23.8-18.4-26c-9.8-1.6-19.6-0.4-29.4-0.9c-4.6-0.2-6.1,1.7-6.1,6.2c0.2,12,0.1,24,0.1,36c0,12.3,0.1,24.6,0,37
		c0,4.2,1.6,6.2,5.9,5.9c1.2-0.1,2.3,0,3.5,0c8.4,0,8.5-0.1,8.5-8.3c0-18.8,0-37.6,0-56.4c0-2.1-0.5-4.5,2-5.7
		C917.9,361,926.4,366.5,925.9,374.4z"/>
	<path d="M164,350.3c-2.8,0.2-5.7,0.2-8.5,0c-3.7-0.3-5.7,1.2-7.3,4.5c-3.7,8-7.8,15.8-11.6,23.8c-1.5,3.3-2.8,3.8-4.7,0.4
		c-2.6-5.9-5.9-11.7-7.8-17.8c-2.7-8.9-7.9-12.2-17.2-11c-6.6,0.9-6.7,0.2-3.6,6.4c5.7,11.2,11.4,22.4,17.1,33.7c0,0,0,0,0,0
		c3.9,5.9,5.5,12.3,4.9,19.4c-0.4,4.5-0.1,9,0,13.5c0.3,14.2-2.3,11.9,12.6,12.2c3.6,0.1,5.1-1.2,5-4.9c-0.2-6.8,0.3-13.7-0.1-20.5
		c-0.4-6.9,1.3-12.9,4.7-19c6.7-11.9,12.8-24.1,19.3-36.1C168.8,351.2,167.9,350.1,164,350.3z"/>
	<path d="M426.8,365.4c0.3,0.3,0.6,0.5,0.9,0.8c2.7,4.3,3,8.8,0.8,13.3c-1.4,2.8-0.2,3.6,2.4,3.6c3.5,0,7-0.2,10.5,0
		c4.4,0.3,6.3-2,7.1-6c2.6-12.7-4.9-23.8-17.8-26.1c-9.9-1.8-20-0.6-29.9-1c-4.6-0.2-6.2,1.6-6.1,6.1c0.2,17,0.1,34,0.1,51
		c0,7.5,0.2,15,0,22.5c0,1.5,0.2,2.7,0.7,3.6c0.2,0.7,0.6,1.2,1.3,1.3c0.9,0.5,2.1,0.7,3.7,0.6c1.2-0.1,2.3,0,3.5,0
		c8.7,0,8.7,0,8.8-9c0.1-20.6,0.2-41.3,0.3-61.9C417.6,364.4,422.3,363.8,426.8,365.4C426.8,365.4,426.8,365.4,426.8,365.4z"/>
	<path d="M345.6,350.2c-13.5,0.2-27,0.1-40.4,0c-3.9,0-5.2,1.4-5.2,5.3c0.1,24.8,0.1,49.6,0,74.4c0,3.8,1.2,5.5,5.2,5.4
		c13.5-0.1,27-0.3,40.4,0c5.8,0.1,5.2-3.6,5.3-7.3c0.1-3.7,0.1-7-5.3-6.8c-7.6,0.3-15.3-0.1-23,0c-3.4,0-4.8-1.4-4.8-4.8
		c0.1-5,0.1-10,0-15c-0.1-3.7,1.5-5.1,5-5c6.5,0.1,13-0.3,19.5,0c5.8,0.3,5.5-3.3,5.5-7.2c0-3.8,0.5-7.4-5.4-7.2
		c-8.1,0.3-16.3,0-24.5-0.1c0,0,0,0,0,0c0-4.4,0-8.9-0.1-13.3c-0.1-2.9,1.3-4.2,4.2-4.2c4.3,0,8.5-0.2,12.8-0.3c0,0,0,0,0,0
		c3.7,0.1,7.3,0,11,0.2c6,0.4,4.9-4,5-7.5C351,353.1,350.9,350.1,345.6,350.2z M317.4,383.5C317.4,383.5,317.4,383.6,317.4,383.5
		c-0.1,0-0.2,0-0.4-0.1c0.1,0,0.2,0,0.4-0.1C317.4,383.4,317.4,383.5,317.4,383.5z"/>
	<path d="M63.8,356.2c0-1.8,0.4-3.7-0.8-5.3c0,0,0,0,0,0c-4.1-1.2-8.2-0.2-12.3-0.6c-3.7-0.3-4.9,1.2-4.8,4.9
		c0.2,9.6,0.1,19.2,0.1,28.8c-9.3,0-18.6,0-27.9,0c0-9.7,0-19.4,0-29.1c0-1.9,0.4-4.4-2.6-4.4c-4.9,0-9.9-0.9-14.7,0.6c0,0,0,0,0,0
		c-0.9,0.6-0.8,1.3-0.4,2.1c1.1,0.6,1.3,1.5,1.2,2.4c-0.2-0.8-0.6-1.6-1.2-2.4c0.1,23.5,0,46.9,0.2,70.4
		c0.1,13.1-2.1,11.5,12.2,11.7c3.8,0.1,5.3-1.1,5.2-5.1c-0.2-9.1,0-18.3-0.1-27.5c0-3.2,1.2-4.4,4.4-4.4c7.2,0.1,14.3-0.1,21.5-0.2
		c0,0,0,0,0,0c0,0,0,0,0,0c0.6,0,1.1,0.1,1.7,0.1c0.4,0.3,0.6,0.7,0.7,1.1c-0.2-0.4-0.4-0.7-0.7-1.1c0.1,8.5,0.2,17,0.4,25.4
		c0.3,13.3-2.1,11.3,11.6,11.7c4.7,0.1,6.3-1.3,6.3-6.2C63.7,404.8,63.8,380.5,63.8,356.2z M17.9,384c-0.6-0.6-0.6-1.4-0.6-2.1
		C17.6,382.6,17.8,383.3,17.9,384C18,384,18,384,17.9,384z"/>
	<path d="M943.5,410.3c-3.8-9.1-3.8-9.1-13.4-9.1c-1.2,0-2.3,0-3.5,0c-5.6,0.1-5.8,0.4-3.4,5.7c2.7,5.7,5.2,11.5,7.8,17.3
		c5.3,11.7,5.3,11.6,18,10.9c3.5-0.2,4.5-1.2,3-4.6C949.1,423.8,946.4,417.1,943.5,410.3z"/>
	<path d="M447.1,409.6c-3.5-8.4-3.5-8.4-12.8-8.4c-1.3,0-2.7,0-4,0c-5.3,0.1-5.5,0.5-3.2,5.5c2.8,6,5.3,12.2,8.1,18.2
		c5,10.9,5.1,10.8,16.9,10.2c4-0.2,5-1.6,3.4-5.3C452.7,423.1,449.9,416.4,447.1,409.6z"/>
	<path d="M251.9,355.3c-0.2-0.2-0.6-0.3-0.9-0.4c0,0,0,0,0,0c-1.9-1.8-4.3-2.6-6.9-2.8c-0.8-0.3-1.5-0.7-2.3-0.9
		c-10.9-1.7-21.9-0.7-32.9-0.9c-2.8,0-3.2,1.8-3.2,4c0,6.5,0,13,0,19.5c0,18.8,0,37.6,0.1,56.4c0,2.2-0.2,4.9,2.9,4.8
		c4.8-0.2,9.9,2,14.3-1.6c0.5-0.4,0.3-1.6,0.3-2.4c0-9.3-0.1-18.6-0.2-27.9c7.1-0.8,14.4,0.2,21.2-3c0,0,0,0,0,0
		c9.2-2.5,14.4-8.7,15.7-17.8C261.4,372.3,261,362.4,251.9,355.3z M226.4,388.5c-3-0.3-2.8-2-2.9-4.1c-0.2-6.4,0.5-12.9-0.4-19.3
		c7.6-2.2,14.4-0.4,18.6,5C245.2,382.6,239.1,389.7,226.4,388.5z"/>
	<path d="M638.6,355.3c-0.2-0.2-0.6-0.3-0.9-0.4c0,0,0,0,0,0c-1.9-1.8-4.3-2.6-6.9-2.8c-0.8-0.3-1.5-0.7-2.3-0.9
		c-10.9-1.7-21.9-0.7-32.9-0.9c-2.8,0-3.2,1.8-3.2,4c0,6.5,0,13,0,19.5c0,18.8,0,37.6,0.1,56.4c0,2.2-0.2,4.9,2.9,4.8
		c4.8-0.2,9.9,2,14.3-1.6c0.5-0.4,0.3-1.6,0.3-2.4c0-9.3-0.1-18.6-0.2-27.9c7.1-0.8,14.4,0.2,21.2-3c0,0,0,0,0,0
		c9.2-2.5,14.4-8.7,15.7-17.8C648.1,372.3,647.7,362.4,638.6,355.3z M609.5,403.2L609.5,403.2c0.2-0.1,0.4-0.2,0.6-0.3
		C609.9,403,609.7,403.1,609.5,403.2z M613,388.5c-3-0.3-2.8-2-2.9-4.1c-0.2-6.4,0.5-12.9-0.4-19.3c7.6-2.2,14.4-0.4,18.6,5
		C631.8,382.6,625.7,389.7,613,388.5z"/>
</g>
<g>
	<path d="M621.3,201.8c22-2.2,43.9-5.3,65.5-9.7c23.4-4.5,46.4-10.5,68.5-19.5c0,0,0,0,0,0c0.3-0.1,0.7-0.3,1-0.4
		c1.5-0.6,2.9-1.2,4.3-1.8c0.2-0.1,0.5-0.2,0.7-0.3c13-5.6,25.8-11.8,35.6-22.6c8.2-9,8-17.7-0.2-26.6c-1.6-1.7-3.4-3.2-5.1-4.8
		c-9.3-8.2-20.8-12.5-32-17c-0.5-0.2-1-0.3-1.6-0.5c-0.5-0.2-1.1-0.4-1.6-0.6c-2.4-0.9-6.5-0.6-8.1,0.9c-1.8,1.7-2.8,5.7-2.3,8.3
		c1,5-0.5,8-4.7,10.2c-3.7,1.9-7.3,4-11,5.9c-1.1,0.6-2.2,0.9-3.1,0.9c-1-0.5-1.9-1.5-2.6-3c-1-2.1-2.1-4.2-3.1-6.3
		c-1-2.1-2.3-3.1-3.8-3c-2.9-1.7-6.1,1.5-11,5.5c-1,0.8-2.1,1.6-3.2,2.4c-1.6,1.1-2.9,1.7-4,1.8c-1.5-0.8-2.5-3.1-3.6-6.9
		c-1.3-4.4-3.3-8.6-4.9-13c-0.5,0.2-0.9,0.4-1.4,0.6c0,0.2,0,0.4,0,0.6c-0.4-0.4-0.8-0.8-1.3-1.2c-0.9,6.9-0.3,14.4-3,20.5
		c-2.6,6-8.5,10.6-12.9,15.9c-0.1,0,0.7,0.5,1.5,0.4c5.6-0.2,11.2-0.6,16.6-1.8c5.4-1,10.6-2.7,15.4-5.7c0.2-0.2,0.5-0.3,0.9-0.4
		c0.8-0.1,1.5,0,1.8,0.3c1.1,1.2,1.2,3.5,1.1,5.4c-0.1,1.4-1.3,2.7-1.5,4.2c-0.2,1.7-0.5,4,0.4,5c0.9,1,3.4,1.4,4.9,1
		c0.9-0.3,1.8-0.5,2.6-0.8c0.4,0,0.8-0.1,1.2-0.2c8.7-2.7,16.5-7.1,22.4-14.3c0.7-0.9,1.5-1.7,2.3-2.2c1.2,0.1,2.2,1.5,3.6,4.4
		c6.2,12.8,2.9,23.6-9.7,30.3c-4.1,2.2-8.6,3.5-13,5.2c-0.1,0-0.1,0-0.2,0c-0.1-0.2-0.2-0.4-0.3-0.5c5.1-3.9,10-7.3,14.2-11.4
		c1.4-1.3,1.8-5,1-6.9c-0.9-1.9-2.3-2.5-4-2.3c-2.1-0.8-4.3,0.3-6.7,1.8c-20.6,13-43.6,19.8-67.1,25.1c-39.6,9-79.9,12.9-120.5,13.8
		c-5.7,0.1-11.5,0.2-17.2,0.2c-5.7,0-11.5-0.1-17.2-0.2c-40.6-0.9-80.8-4.7-120.5-13.8c-23.5-5.4-46.4-12.1-67.1-25.1
		c-2.3-1.5-4.6-2.6-6.7-1.8c-1.7-0.2-3.1,0.5-4,2.3c-0.8,1.8-0.4,5.6,1,6.9c4.2,4.1,9.1,7.4,14.2,11.4c-0.1,0.2-0.2,0.4-0.3,0.5
		c-0.1,0-0.2,0-0.2,0c-4.3-1.7-8.9-3.1-13-5.2c-12.6-6.6-15.9-17.4-9.7-30.3c1.4-2.9,2.4-4.3,3.6-4.4c0.8,0.5,1.6,1.3,2.3,2.2
		c6,7.2,13.7,11.6,22.4,14.3c0.4,0.1,0.8,0.2,1.2,0.2c0.9,0.3,1.8,0.6,2.6,0.8c1.5,0.4,4,0,4.9-1c0.9-1,0.6-3.3,0.4-5
		c-0.2-1.4-1.5-2.8-1.5-4.2c-0.1-1.8,0.1-4.2,1.1-5.4c0.3-0.3,1-0.4,1.8-0.3c0.3,0.1,0.6,0.2,0.9,0.4c4.9,3,10.1,4.7,15.4,5.7
		c5.4,1.2,11,1.6,16.6,1.8c0.8,0,1.6-0.5,1.5-0.4c-4.4-5.2-10.3-9.9-12.9-15.9c-2.7-6.1-2.1-13.6-3-20.5c-0.5,0.4-0.9,0.8-1.3,1.2
		c0-0.2,0-0.4,0-0.6c-0.5-0.2-0.9-0.4-1.4-0.6c-1.7,4.3-3.7,8.5-4.9,13c-1.1,3.8-2.1,6.1-3.6,6.9c-1.1-0.1-2.4-0.7-4-1.8
		c-1.1-0.8-2.2-1.6-3.2-2.4c-5-3.9-8.1-7.1-11-5.5c-1.5-0.1-2.8,1-3.8,3c-1,2.1-2.1,4.2-3.1,6.3c-0.7,1.4-1.6,2.4-2.6,3
		c-1,0-2-0.3-3.1-0.9c-3.7-2-7.3-4-11-5.9c-4.3-2.2-5.8-5.2-4.7-10.2c0.5-2.6-0.5-6.6-2.3-8.3c-1.6-1.5-5.8-1.8-8.1-0.9
		c-0.5,0.2-1.1,0.4-1.6,0.6c-0.6,0.1-1.1,0.3-1.6,0.5c-11.3,4.5-22.7,8.8-32,17c-1.7,1.5-3.5,3.1-5.1,4.8c-8.2,9-8.4,17.6-0.2,26.6
		c9.7,10.8,22.6,17,35.6,22.6c0.2,0.1,0.5,0.2,0.7,0.3c1.4,0.6,2.9,1.2,4.3,1.8c0.3,0.1,0.7,0.3,1,0.4c0,0,0,0,0,0
		c22.2,8.9,45.2,14.9,68.5,19.5c21.6,4.4,43.5,7.5,65.5,9.7c33,3.5,66,5.1,99.1,5.1C555.2,206.9,588.3,205.3,621.3,201.8z"/>
	<path d="M605.7,104.1c-22.5-8.3-45.8-11.2-73-12.2c-2.4-0.1-4.5-0.3-6.3-0.4c-1.4,0-2.9,0.1-4.3,0.1c-1.4,0-2.8-0.1-4.3-0.1
		c-1.8,0.1-3.9,0.3-6.3,0.4c-27.2,1-50.6,3.8-73,12.2c-6.6,2.5-13,6-18.8,10.1c-7.3,5.2-6.9,11.2,0.1,16.8
		c10.3,8.2,22.6,12.1,35.1,14.9c22.1,5,44.3,7.5,66.5,7.6c0.2,0,0.5,0,0.7,0c0.2,0,0.5,0,0.7,0c22.2,0,44.3-2.6,66.5-7.6
		c12.5-2.8,24.8-6.7,35.1-14.9c7-5.6,7.3-11.6,0.1-16.8C618.8,110.1,612.4,106.5,605.7,104.1z"/>
	<path d="M913.2,103c-11.4-14.7-26.2-25.3-42.1-34.5c-12.3-7.2-25.1-13.3-38.2-18.7c-0.4-0.1-0.7-0.3-1.1-0.5
		c-0.4-0.2-0.9-0.3-1.3-0.5c-21.3-8.6-43.3-15.3-65.7-21.1c-6.3-1.6-12.6-3.1-19-4.6c-0.3-0.1-0.5-0.1-0.8-0.2
		c-3.1-0.7-6.2-1.4-9.3-2.1c-3.3-0.7-6.6-1.4-9.9-2.1c-0.6-0.1-1.2-0.3-1.9-0.4c-2.8-0.6-5.5-1.1-8.3-1.6c-0.8-0.1-1.6-0.3-2.4-0.4
		c-2.6-0.5-5.2-1-7.9-1.4c-1-0.2-2-0.4-3-0.5c-2.4-0.4-4.8-0.8-7.2-1.2c-1.4-0.2-2.7-0.4-4.1-0.6c-2.1-0.3-4.2-0.7-6.3-1
		c-2-0.3-3.9-0.6-5.9-0.9c-1.5-0.2-3.1-0.4-4.6-0.7c-22.9-3.2-46-5.5-69.2-7.2c-0.1,0-0.2,0-0.3,0c-0.1,0-0.2,0-0.3,0
		c-1.3-0.1-2.6-0.2-4-0.3c-1.4-0.1-2.9-0.2-4.3-0.3c-0.9-0.1-1.8-0.1-2.7-0.2c-2.1-0.1-4.3-0.3-6.4-0.4c-1.5-0.1-2.9-0.2-4.4-0.2
		c-1.7-0.1-3.4-0.2-5.1-0.3c-1.8-0.1-3.6-0.2-5.4-0.2C570.8,1,569.4,1,568,0.9c-2-0.1-4-0.2-6-0.2c-1.3,0-2.6-0.1-4-0.1
		c-2-0.1-4.1-0.1-6.1-0.2c-1.3,0-2.7-0.1-4-0.1c-2,0-4-0.1-6-0.1c-1.4,0-2.8,0-4.3-0.1c-1.9,0-3.8,0-5.6-0.1c-1.6,0-3.1,0-4.7,0
		c-1.7,0-3.5,0-5.2,0c-1.7,0-3.5,0-5.2,0c-1.6,0-3.1,0-4.7,0c-1.9,0-3.8,0-5.6,0.1c-1.4,0-2.8,0-4.3,0.1c-2,0-4,0.1-6,0.1
		c-1.3,0-2.7,0.1-4,0.1c-2,0.1-4.1,0.1-6.1,0.2c-1.3,0-2.6,0.1-4,0.1c-2,0.1-4,0.1-6,0.2C474.8,1,473.4,1,472,1.1
		c-1.8,0.1-3.6,0.2-5.4,0.2c-1.7,0.1-3.4,0.2-5.1,0.3c-1.5,0.1-2.9,0.2-4.4,0.2c-2.1,0.1-4.3,0.2-6.4,0.4c-0.9,0.1-1.8,0.1-2.7,0.2
		c-1.4,0.1-2.9,0.2-4.3,0.3c-1.3,0.1-2.6,0.2-4,0.3c-0.1,0-0.2,0-0.3,0c-0.1,0-0.2,0-0.3,0c-23.2,1.6-46.3,4-69.2,7.2
		c-1.5,0.2-3.1,0.4-4.6,0.7c-2,0.3-3.9,0.6-5.9,0.9c-2.1,0.3-4.2,0.6-6.3,1c-1.4,0.2-2.7,0.4-4.1,0.6c-2.4,0.4-4.8,0.8-7.2,1.2
		c-1,0.2-2,0.4-3,0.5c-2.6,0.5-5.2,0.9-7.9,1.4c-0.8,0.1-1.6,0.3-2.4,0.4c-2.8,0.5-5.5,1-8.3,1.6c-0.6,0.1-1.2,0.3-1.9,0.4
		c-3.3,0.7-6.6,1.4-9.9,2.1c-3.1,0.7-6.2,1.3-9.3,2.1c-0.3,0.1-0.5,0.1-0.8,0.2c-6.3,1.5-12.7,3-19,4.6
		c-22.4,5.8-44.4,12.5-65.7,21.1c-0.4,0.2-0.9,0.3-1.3,0.5c-0.4,0.1-0.7,0.3-1.1,0.5c-13.1,5.4-25.9,11.5-38.2,18.7
		c-15.9,9.2-30.7,19.9-42.1,34.5c-18.4,23.7-18,49.6,1.1,72.7c9.9,12,21.8,21.4,34.8,29.4c-0.1,0.1-0.2,0.3-0.3,0.4
		c3,1.5,6,3.1,8.9,4.6c0.7,0.4,1.3,0.7,2,1.1c32,17.7,66.4,29.2,101.7,38.2c54.3,13.9,109.4,21.7,165.1,25.3
		c25.2,1.7,50.4,2.5,75.7,2.5c0.8,0,1.5,0,2.3,0c0.8,0,1.5,0,2.3,0c25.3,0,50.6-0.8,75.7-2.5c55.6-3.6,110.7-11.4,165.1-25.3
		c35.3-9,69.7-20.5,101.7-38.2c0.7-0.4,1.3-0.7,2-1.1c2.9-1.5,5.9-3.1,8.9-4.6c-0.1-0.1-0.2-0.3-0.3-0.4c13-8,24.9-17.4,34.8-29.4
		C931.2,152.6,931.7,126.7,913.2,103z M469.1,243.5c-58.9-2.5-117.3-9.3-174.6-23.6c-29.6-7.4-58.7-16.7-85.3-32.3
		c-12-7-23.1-15.3-31.2-26.9c-6.8-9.8-10.2-20.6-7.6-32.8c5.1,14.5,15.5,24.6,27.7,33.2c17.2,12.2,36.3,20.6,56.2,27.3
		c12,4.2,24.2,7.8,36.5,11c4.2,1.2,8.3,2.4,12.5,3.6c-0.7-0.4-1.5-0.7-2.2-1c4.7,1.1,9.5,2.2,14.2,3.3c0.6,0.1,1.3,0.1,2.1,0.1
		c-12.9-4.6-25.8-8.7-38.3-13.7c-16.3-6.5-31.9-14.5-44.4-27.3c-19.1-19.5-18.6-42.9,1.5-61.4c4.4-4,9.1-7.6,13.8-11.5
		c-4.6,0.6-10.6,2.9-17.2,6.2c-13.6,5.8-26.5,13.2-36.1,25.7c-3.6-5.3-3.4-10.8-0.6-16.2c5.8-11.1,15.5-18.2,26.3-23.8
		c21.9-11.2,44.8-19.7,68.6-25.8c44.5-11.4,89.9-17.5,135.6-21.1c31.8-2.5,63.5-3.8,95.3-3.9c31.8,0.1,63.6,1.3,95.3,3.9
		c45.7,3.6,91.1,9.7,135.6,21.1c23.8,6.1,46.8,14.6,68.6,25.8c10.8,5.5,20.5,12.6,26.3,23.8c2.8,5.4,3,10.9-0.6,16.2
		c-9.5-12.6-22.5-19.9-36.1-25.7c-6.6-3.4-12.6-5.6-17.2-6.2c4.7,3.9,9.5,7.4,13.8,11.5c20.1,18.6,20.6,41.9,1.5,61.4
		c-12.5,12.8-28.1,20.8-44.4,27.3c-12.5,5-25.3,9.1-38.3,13.7c0.8,0,1.5,0,2.1-0.1c4.8-1,9.5-2.1,14.2-3.3c-0.7,0.3-1.5,0.7-2.2,1
		c4.1-1.2,8.3-2.4,12.5-3.6c12.3-3.2,24.5-6.8,36.5-11c19.8-6.7,38.9-15.1,56.2-27.3c12.2-8.6,22.6-18.7,27.7-33.2
		c2.6,12.2-0.8,23-7.6,32.8c-8.1,11.6-19.2,19.8-31.2,26.9c-26.6,15.6-55.6,24.8-85.3,32.3c-57.3,14.4-115.7,21.1-174.6,23.6
		c-17.7,0.8-35.3,1.2-53,1.3C504.5,244.7,486.8,244.2,469.1,243.5z"/>
	<path d="M381.9,123.3c3.5,3,7.4,5.7,11.4,8c2,1.2,4,1.3,5.5,0.7c0.9,0,1.7-0.2,2.4-0.5c1.5-0.8,2.6-4.2,2.5-6.3
		c-0.5-7.4,2.2-13.3,7.3-18.4c7.1-7.1,16-11.2,25.3-14.7c17-6.3,34.7-9.3,52.6-11.1c11.1-1.1,22.2-1.7,33.2-1.8
		c11,0.1,22.1,0.7,33.2,1.8c18,1.8,35.6,4.8,52.6,11.1c9.3,3.4,18.2,7.6,25.3,14.7c5.1,5.1,7.8,11,7.3,18.4
		c-0.1,2.1,0.9,5.5,2.5,6.3c0.6,0.3,1.5,0.5,2.4,0.5c1.5,0.6,3.5,0.5,5.5-0.7c4-2.3,7.9-5,11.4-8c8.6-7.3,8.7-12.9,0.8-20.8
		c-1.4-1.4-2.8-3-4.5-3.9c-2.1-1.1-4.2-2.2-6.4-3.3c-6.3-4-12.9-7.2-19.8-9.8c-1.4-0.6-2.8-1.1-4.3-1.6
		c-34.1-11.8-69.6-14.6-103.7-15.1c-0.8,0-1.6,0-2.3,0c-0.8,0-1.6,0-2.3,0c-34.2,0.4-69.7,3.2-103.7,15.1c-1.4,0.5-2.9,1.1-4.3,1.6
		c-6.8,2.6-13.4,5.8-19.8,9.8c-2.1,1.1-4.2,2.3-6.4,3.3c-1.7,0.9-3.1,2.5-4.5,3.9C373.2,110.4,373.3,116,381.9,123.3z"/>
</g>
</svg>
