<?xml version="1.0" encoding="utf-8"?>
<!-- Generator: Adobe Illustrator 25.4.1, SVG Export Plug-In . SVG Version: 6.00 Build 0)  -->
<svg version="1.1" id="Layer_1" xmlns="http://www.w3.org/2000/svg" xmlns:xlink="http://www.w3.org/1999/xlink" x="0px" y="0px"
	 viewBox="0 0 1195.8 164.4" style="enable-background:new 0 0 1195.8 164.4;" xml:space="preserve">
<path d="M0,43.6c5.1,0.1,11.8-1.8,15,0.8c3.3,2.7,1,9.6,1,14.7c0.1,15.8,0.2,31.6-0.1,47.3c-0.1,3.9,1.2,4.6,4.8,4.6
	c18.8-0.2,37.6,0,56.4-0.2c3.6,0,4.9,0.7,4.9,4.6c-0.2,11.7,0,11.7-11.6,11.7c-21.6,0-43.2,0-64.9,0c-1.8,0-3.6,0.2-5.5,0.3
	C0,99.5,0,71.6,0,43.6z"/>
<path d="M122.1,43.6c0,12.5-0.1,24.9,0.1,37.4c0.1,3.5-1,4.4-4.5,4.4c-11.5-0.1-11.5,0.1-11.5-11.3c0-17.5-0.1-34.9,0.1-52.4
	c0-3.3-0.9-4.2-4.2-4.1c-19,0.1-38,0-56.9,0.2c-3.6,0-4.8-0.8-4.8-4.6c0.2-11.5,0-11.5,11.3-11.5c22,0,44,0.1,65.9-0.1
	c3.7,0,4.8,0.8,4.7,4.6C122,18.7,122.1,31.2,122.1,43.6z"/>
<path d="M48.9,63.7c0.5-3.8-2.1-9.9,1-12.5c2.6-2.2,8.6-0.7,13-0.7c3.7,0,7.3,0.1,11,0c2.1-0.1,2.9,0.7,2.9,2.9
	c-0.1,7.3-0.1,14.6,0,21.9c0,2.4-0.8,3.2-3.2,3.2c-7.3-0.1-14.6-0.1-22,0c-2.2,0-2.9-0.9-2.8-2.9C49,71.9,48.9,68.2,48.9,63.7z"/>
<path d="M1170.9,32.4c-11.5,0.7-23,0.1-34.5,0.1c-13.8,0-20.4,6.6-20.4,20.5c0,17.5,0,34.9,0,52.4c0,13.8,6.6,20.5,20.5,20.5
	c14.8,0.1,29.6,0.1,44.5,0c4.6,0,9.3,0.6,13.9-0.4v0l0,0c-0.1-5.6-0.2-11.2-0.3-16.8c-18.8,0-37.6-0.2-56.4,0c-4,0-5.3-1.1-4.9-5
	c0.5-4.9-2-11.4,0.9-14.5c3.2-3.4,9.7-1,14.8-1.1c13.6-0.2,27.3,0,40.9-0.1c1.6,0,3.3,0.4,4.9-0.5c0-11.8-0.1-23.6-0.1-35.4
	c0-1.3-0.5-2.7,1-3.6c0-0.3,0-0.7,0-1C1192,35.2,1183.1,31.7,1170.9,32.4z M1178.1,53.5c-0.2,4.8-0.1,9.6,0,14.4
	c0,2.1-0.7,2.9-2.9,2.8c-12.9-0.1-25.9-0.1-38.8,0c-2.3,0-2.9-0.8-2.8-2.9c0.1-5,0.2-10,0-14.9c-0.1-2.8,1.2-3.3,3.6-3.2
	c6.3,0.1,12.6,0,18.9,0c6,0,12,0.1,17.9-0.1C1176.9,49.6,1178.3,50.2,1178.1,53.5z"/>
<path d="M443.9,164.4c19,0,38,0,57,0c0-0.3,0.1-0.6,0.1-0.9c-19-0.1-38.1-0.1-57.1-0.2C444,163.8,443.9,164.1,443.9,164.4z"/>
<path d="M1195.3,69.3c-0.2,6,0,12-0.1,18c0.2-0.1,0.4,0,0.6,0.3c0-13,0-26,0-38.9C1194.6,55.5,1195.5,62.4,1195.3,69.3z"/>
<path d="M1194.8,52.2c0,11.8,0,23.6,0.1,35.4c0.1-0.2,0.2-0.3,0.4-0.4c0.1-6-0.1-12,0.1-18c0.2-6.9-0.7-13.8,0.5-20.7
	C1194.3,49.5,1194.8,51,1194.8,52.2z"/>
<path d="M1195.2,87.3c0,0.1,0,0.2,0,0.3c0,0,0,0.1-0.1,0.1c0.1,0,0.2,0,0.2,0l0.4-0.2C1195.6,87.3,1195.4,87.2,1195.2,87.3z"/>
<path d="M1195.2,87.6c0-0.1,0-0.2,0-0.3c-0.1,0-0.2,0.2-0.4,0.4c0,0,0.2,0,0.3,0.1C1195.2,87.7,1195.2,87.6,1195.2,87.6z"/>
<path d="M1194.9,108.9c0.6,5.6,0.6,11.1,0,16.7l0.5,0.1l0.4-0.2c0-5.7,0-11.3,0-17C1195.5,108.9,1195.3,109,1194.9,108.9z"/>
<path d="M1194.9,108.9c-0.1,0-0.2-0.1-0.3-0.1c0.1,5.6,0.2,11.2,0.3,16.8l0,0C1195.5,120,1195.5,114.5,1194.9,108.9z"/>
<path d="M1194.9,108.9c0.3,0.1,0.6,0,0.9-0.4c-0.3,0.1-0.6,0.1-0.9,0.2C1194.9,108.8,1194.9,108.8,1194.9,108.9z"/>
<path d="M1194.9,108.7c-0.1,0-0.2,0-0.3,0.1c0.1,0.1,0.2,0.1,0.3,0.1C1194.9,108.8,1194.9,108.8,1194.9,108.7z"/>
<path d="M510.5,32.5c-19.1,0.2-38.3,0.1-57.4,0.1c-13.5,0-20.1,6.6-20.1,20.3c0,17.6,0,35.2,0,52.9c0,13.8,6.7,20.5,20.5,20.5
	c13.7,0,27.3,0.1,41,0c2.7,0,3.9,0.7,3.7,3.6c-0.2,4.1-0.3,8.3,0,12.5c0.3,3.5-0.9,4.5-4.4,4.4c-15.3-0.2-30.6,0-46-0.1
	c-3,0-4.2,0.7-4,3.9c0.3,4.3,0.2,8.6,0.3,12.9c1.6-1.5,3.6-1.5,5.6-1.6c15.3-0.1,30.6-0.1,45.9,0c2,0,4,0,5.5,1.7
	c9.6-2.3,14.1-8.1,14.1-18.8c0-35.9-0.1-71.8,0.1-107.7C515.3,33.1,514,32.5,510.5,32.5z M498.1,53.8c-0.2,8.5-0.1,17-0.1,25.4
	c0,8.6-0.1,17.3,0.1,25.9c0,2.7-0.7,3.8-3.6,3.7c-13.7-0.1-27.3-0.1-41,0c-3,0-3.6-1.1-3.6-3.8c0.1-17.1,0.1-34.3,0-51.4
	c0-3,0.8-4,3.9-4c13.5,0.2,27,0.2,40.5,0C497.6,49.7,498.1,50.9,498.1,53.8z"/>
<path d="M449.6,161.9c-2,0-4,0.1-5.6,1.6c19,0.1,38.1,0.1,57.1,0.2c-1.5-1.8-3.5-1.7-5.5-1.7C480.2,161.8,464.9,161.8,449.6,161.9z"
	/>
<path d="M1098.4,51.1c-0.1-12-7.2-18.4-19.4-18.5c-16,0-32,0-48,0c-16.5,0-33,0.1-49.5-0.1c-3.9-0.1-5,0.9-5,4.9
	c0.2,25.4,0.1,50.9,0.1,76.4c0,12.4,0,12.2,12.4,12.4c4.1,0.1,4.9-1.3,4.9-5.1c-0.2-22.1,0-44.2-0.2-66.4c0-3.7,0.6-5.3,4.8-5.1
	c8.3,0.4,16.7,0.3,25,0c3.9-0.1,4.7,1.2,4.6,4.8c-0.2,19.6-0.1,39.3,0,58.9c0,4.1-1.8,9.5,0.7,12.1c2.7,2.8,8.2,0.5,12.4,1
	c4.3,0.6,5.2-1.3,5.2-5.3c-0.2-22.3,0-44.6-0.2-66.9c0-3.3,0.7-4.7,4.4-4.6c8.7,0.3,17.3,0.3,26,0c3.6-0.1,4.4,1.1,4.4,4.5
	c-0.2,19.6-0.1,39.3-0.1,58.9c0,13.7,0,13.6,13.8,13.1c2.7-0.1,3.8-0.8,3.8-3.7C1098.5,98.6,1098.7,74.8,1098.4,51.1z"/>
<path d="M810.9,0.6C785.9-0.5,761,0.4,736,0.1c-3.7-0.1-3.4,2-3.4,4.5c0,19.4,0,38.9,0,58.3c0,16.6,0,33.2,0,49.9
	c0,13.7,0,13.6,13.9,13.4c3.4,0,4.2-1.1,4.1-4.3c-0.2-15.1,0.1-30.3-0.2-45.4c-0.1-3.8,0.9-5,4.9-5c18.1,0.2,36.3,0.3,54.4-0.1
	C825.2,71,834,63,836.3,48.1c1.2-8.2,1.2-16.6-0.1-24.8C833.8,8.8,825.5,1.3,810.9,0.6z M818.8,41.7c-0.4,7.4-4.2,11.6-11.5,11.8
	c-18,0.3-35.9,0.1-53.9,0.2c-2.2,0-2.9-0.7-2.9-2.9c0.1-9.8,0.1-19.6,0-29.4c0-2.9,1.4-3.2,3.7-3.2c8.8,0.1,17.6,0,26.4,0
	c8.3,0,16.6-0.1,24.9,0c9.6,0.2,13.1,3.8,13.3,13.4C818.9,35.1,819,38.4,818.8,41.7z"/>
<path d="M412.5,64.2c0-16.6,0-33.3,0-49.9c0-13.2,0-13.1-13.4-12.9c-3,0-4.1,0.7-4,3.9c0.2,7.6-0.1,15.3,0.1,23
	c0.1,3.4-0.8,4.5-4.4,4.5c-13.7-0.2-27.3-0.1-41-0.1c-12.9,0-19.8,6.8-19.8,19.6c0,18.1,0,36.3,0,54.4c0,12.6,6.9,19.6,19.4,19.6
	c19.5,0.1,39-0.1,58.5,0.1c3.9,0,4.7-1.2,4.7-4.8C412.4,102.5,412.5,83.3,412.5,64.2z M391.4,108.9c-13.5-0.2-27-0.2-40.4,0
	c-3.1,0-4-0.9-3.9-4c0.1-17,0.1-33.9,0-50.9c0-3.1,0.6-4.4,4.1-4.3c13.5,0.2,26.9,0.2,40.4,0c3,0,3.7,1,3.6,3.7
	c-0.1,8.6,0,17.3,0,25.9c0,8.5-0.1,17,0.1,25.4C395.2,107.6,394.7,108.9,391.4,108.9z"/>
<path d="M304,108.7c-17.3,0.3-34.7,0-52,0.2c-3.5,0-4.8-0.9-4.5-4.4c0.3-3.8,0.3-7.7,0-11.5c-0.3-3.7,0.9-4.8,4.7-4.8
	c17.5,0.2,34.9,0,52.4,0.2c3.4,0,4.6-0.8,4.5-4.4c-0.2-11,0-22-0.1-32.9c-0.1-11.6-7.1-18.4-18.8-18.5c-13.5-0.1-27,0-40.5,0
	c-12.3,0-19.2,6.8-19.4,19c-0.1,9.1,0,18.3,0,27.4c0,9.3-0.1,18.6,0,27.9c0.2,12.6,7,19.2,19.7,19.3c15.5,0,31,0,46.5,0
	c12.5,0,12.3,0,12.6-12.3C309.3,110,308.4,108.6,304,108.7z M251.5,49.7c6.3,0.1,12.7,0,19,0c5.8,0,11.7,0.2,17.5-0.1
	c3.4-0.2,4.3,1.1,4.1,4.3c-0.2,4.5-0.2,9,0,13.5c0.1,2.5-0.5,3.5-3.3,3.5c-12.6-0.1-25.3-0.1-37.9,0c-2.3,0-3.2-0.8-3.1-3.2
	c0.1-4.8,0.2-9.6,0-14.5C247.5,50.2,248.8,49.7,251.5,49.7z"/>
<path d="M610.4,108.8c-14.2,0.1-28.3,0.1-42.5,0c-4.8,0-11.3,1.6-14-0.8c-3.2-2.8-0.4-9.4-1.1-14.3c-0.6-4.5,1.2-5.5,5.5-5.4
	c17.3,0.2,34.6,0.1,51.9,0c2,0,4.5,1,4.5-2.8c-0.1-12.1,0.3-24.3-0.3-36.4c-0.5-10.1-7.7-16.5-17.7-16.5c-14.3-0.1-28.6-0.1-43,0
	c-10.7,0.1-17.7,7.2-17.9,17.9c-0.1,9.5,0,19,0,28.4c0,9.3,0,18.6,0,27.9c0,12.5,7,19.4,19.5,19.4c15.3,0,30.6,0,46,0
	c13.6,0,13.5,0,13.4-13.5C614.7,109.4,613.5,108.7,610.4,108.8z M552.9,67.1c0.3-4.8,0.1-9.6,0-14.5c0-2.1,0.7-2.9,2.9-2.9
	c12.8,0.1,25.6,0.1,38.5,0c2.1,0,3.1,0.7,3.1,2.8c0,5.2-0.1,10.3,0,15.5c0.1,2.7-1.5,2.8-3.5,2.8c-6.3,0-12.6,0-19,0c0,0,0,0,0,0
	c-6,0-12-0.1-18,0C554.1,71,552.6,70.5,552.9,67.1z"/>
<path d="M205.5,108.3c-11.1,0.2-22.3-0.2-33.4,0.2c-4.6,0.2-5.4-1.3-5.4-5.6c0.2-32.6,0-65.2,0.2-97.8c0-3.8-0.8-5.5-4.9-5.1
	c-3.1,0.3-6.3,0.2-9.5,0c-2.8-0.2-3.7,0.8-3.7,3.7c0.1,39.6,0.1,79.2,0,118.7c0,3.1,1,3.9,4,3.9c22.5-0.1,45-0.1,68.5-0.1
	c-3.6-5.4-6.8-10-9.7-14.8C210.1,109.1,208.3,108.2,205.5,108.3z"/>
<path d="M921.1,50c-0.4-10.2-7.3-17.2-17.4-17.3c-16.3-0.1-32.6,0-49-0.1c-3.1,0-3.9,0.9-3.9,4c0.2,14.1,0.1,28.3,0.1,42.4
	c0,11.8,0,23.6,0,35.4c0,11.8,0,11.6,12,11.9c4.2,0.1,5.3-1.1,5.3-5.2c-0.2-21.8,0.1-43.6-0.2-65.4c-0.1-5,1.4-6.3,6.1-5.9
	c5.5,0.4,11,0,16.5,0.1c4.3,0.1,9.6-1.8,12.5,0.9c2.5,2.3,0.7,7.6,0.7,11.5c0,2.5,0.6,3.4,3.3,3.5c14,0.6,14,0.7,14-13.2
	C921.1,51.6,921.1,50.8,921.1,50z"/>
<path d="M704.9,50.9c-0.1-11.3-7.1-18.2-18.5-18.3c-15.6-0.1-31.3,0.1-46.9-0.1c-3.4,0-4.5,0.8-4.5,4.4c0.2,14.1,0.1,28.3,0.1,42.4
	c0,11.8,0,23.6,0,35.4c0,11.6,0,11.4,11.6,11.7c4.3,0.1,5.6-0.9,5.6-5.4c-0.3-22.1,0-44.2-0.2-66.3c0-4,1.1-5.1,5-5
	c9,0.3,18,0.2,27,0c2.7,0,3.8,0.6,3.8,3.6c0,4.1-2,9.8,1,11.8c3,2,8.4,0.4,12.7,0.6c2.6,0.1,3.6-0.6,3.4-3.3
	C704.7,58.6,704.9,54.7,704.9,50.9z"/>
<path d="M955.6,45.4c0-13,0-12.7-12.8-13c-4.3-0.1-4.8,1.5-4.8,5.1c0.2,14,0.1,27.9,0.1,41.9c0,11.3,0,22.6,0,33.9
	c0,12.8,0,12.6,12.6,12.8c3.9,0,5-1.1,5-5C955.6,95.9,955.6,70.7,955.6,45.4z"/>
<path d="M947.4,18.7c8.3,0,8.3,0,8.3-8.4c0-8.8,0-8.8-9-8.8c-0.3,0-0.7,0-1,0c-7.6,0-7.6,0-7.6,7.7
	C938.1,18.7,938.1,18.7,947.4,18.7z"/>
</svg>
