<?xml version="1.0" encoding="UTF-8"?> <svg xmlns="http://www.w3.org/2000/svg" id="Слой_1" data-name="Слой 1" viewBox="0 0 396 71"> <g id="MAGNUS_CAPITAL" data-name="MAGNUS CAPITAL" style="isolation:isolate"> <g style="isolation:isolate"> <path d="M27.55,16h8.29A1,1,0,0,1,37,17.17V50.82A1,1,0,0,1,35.84,52H31.25a1,1,0,0,1-1.18-1.18V24.28h-.22L24.14,43a1.38,1.38,0,0,1-1.4,1.12H18A1.37,1.37,0,0,1,16.63,43L10.81,24.22h-.23v26.6a1.44,1.44,0,0,1-.22.93,1.29,1.29,0,0,1-.95.25H4.82a1,1,0,0,1-1.18-1.18V17.17A1,1,0,0,1,4.82,16h8.34a1,1,0,0,1,1.06.79l5.94,19.76h.34l6-19.76A1,1,0,0,1,27.55,16Z" fill="#0258f9"></path> <path d="M48.05,52H42.67c-.67,0-.89-.39-.67-1.18l8.85-33.65A1.6,1.6,0,0,1,52.53,16H60a1.51,1.51,0,0,1,1.68,1.18L70.5,50.82c.23.79,0,1.18-.67,1.18H64.46a1.07,1.07,0,0,1-.84-.25,1.88,1.88,0,0,1-.34-.93l-1.57-6.16H50.79l-1.57,6.16a1.7,1.7,0,0,1-.36.93A1.11,1.11,0,0,1,48.05,52Zm8.12-29.23L52.14,39h8.28l-4-16.18Z" fill="#0258f9"></path> <path d="M90.1,52H84.17q-4.42,0-6.83-2.35t-2.41-6.78V25.12q0-4.43,2.41-6.78A9.39,9.39,0,0,1,84.17,16H90.1a9.26,9.26,0,0,1,6.78,2.38,9.1,9.1,0,0,1,2.41,6.75V26.8c0,.82-.39,1.23-1.18,1.23H93.35q-1.17,0-1.17-1.23V25.46a3.63,3.63,0,0,0-.73-2.55,3.41,3.41,0,0,0-2.52-.76H85.29a3.39,3.39,0,0,0-2.49.76A3.49,3.49,0,0,0,82,25.46V42.54a3.48,3.48,0,0,0,.76,2.54,3.39,3.39,0,0,0,2.49.76h3.64a3.41,3.41,0,0,0,2.52-.76,3.62,3.62,0,0,0,.73-2.54V39a.55.55,0,0,0-.62-.62H88.2A1,1,0,0,1,87,37.22V33.41a1,1,0,0,1,1.18-1.18H98a1.14,1.14,0,0,1,1.29,1.29v9.35a9.1,9.1,0,0,1-2.41,6.75A9.22,9.22,0,0,1,90.1,52Z" fill="#0258f9"></path> <path d="M111.83,52h-4.65A1,1,0,0,1,106,50.82V17.17A1,1,0,0,1,107.18,16h4.2a1.57,1.57,0,0,1,1.57.79L124.26,38h.23V17.17A1,1,0,0,1,125.66,16h4.65a1,1,0,0,1,1.18,1.18V50.82A1,1,0,0,1,130.31,52h-4.09a1.86,1.86,0,0,1-1.79-1.12l-11.2-20.83H113V50.82A1,1,0,0,1,111.83,52Z" fill="#0258f9"></path> <path d="M157.19,16h4.71c.82,0,1.23.38,1.23,1.12V42.87a9,9,0,0,1-2.44,6.75,9.3,9.3,0,0,1-6.8,2.38h-6.16q-4.42,0-6.83-2.35t-2.41-6.78V17.17A1,1,0,0,1,139.66,16h4.76a1,1,0,0,1,1.18,1.18V42.54a3.52,3.52,0,0,0,.75,2.54,3.43,3.43,0,0,0,2.5.76h3.86a3.5,3.5,0,0,0,2.55-.76,3.52,3.52,0,0,0,.76-2.54V17.17A1,1,0,0,1,157.19,16Z" fill="#0258f9"></path> <path d="M169.23,42.82V41.7a1,1,0,0,1,1.18-1.18h4.76a1,1,0,0,1,1.17,1.18v.44a4,4,0,0,0,.84,2.92,4.59,4.59,0,0,0,3.08.78h2.64a4.36,4.36,0,0,0,3-.84,4.34,4.34,0,0,0,.86-3.14v-.67a2.8,2.8,0,0,0-1.31-2.49,7,7,0,0,0-3.28-1A34.88,34.88,0,0,1,178,37a27.84,27.84,0,0,1-4.22-1.23,6.69,6.69,0,0,1-3.28-3,11,11,0,0,1-1.32-5.68v-2a9.06,9.06,0,0,1,2.47-6.78A9.33,9.33,0,0,1,178.47,16h5.6A9.42,9.42,0,0,1,191,18.4a9.05,9.05,0,0,1,2.46,6.78v1.06a1,1,0,0,1-1.17,1.18h-4.76a1,1,0,0,1-1.18-1.18V25.9a4,4,0,0,0-.84-3,4.53,4.53,0,0,0-3.08-.79h-2.18a4.23,4.23,0,0,0-3.11.87q-.81.87-.81,3.39v1.06q0,2.64,4.59,3a28.28,28.28,0,0,1,8.45,1.9,7.17,7.17,0,0,1,3.28,3,10.38,10.38,0,0,1,1.32,5.51v1.91a9,9,0,0,1-2.47,6.77A9.33,9.33,0,0,1,184.63,52h-6.1a9.36,9.36,0,0,1-6.84-2.41A9,9,0,0,1,169.23,42.82Z" fill="#0258f9"></path> </g> <g style="isolation:isolate"> <path d="M229.6,52h-6.5a8.57,8.57,0,0,1-6.41-2.3,8.68,8.68,0,0,1-2.27-6.38V24.67a8.68,8.68,0,0,1,2.27-6.41A8.68,8.68,0,0,1,223.1,16h6.5A8.7,8.7,0,0,1,236,18.26a8.61,8.61,0,0,1,2.3,6.41v2.69a.9.9,0,0,1-1,1h-3.53c-.63,0-1-.34-1-1V24.9q0-4.16-4-4.15h-4.87q-4,0-4,4.15V43.1q0,4.14,4,4.14h4.87q4,0,4-4.14V40.63c0-.67.32-1,1-1h3.53a.9.9,0,0,1,1,1v2.69A8,8,0,0,1,229.6,52Z" fill="#0258f9"></path> <path d="M247.18,52h-4c-.52,0-.71-.32-.56-1l9.74-34.11a1.27,1.27,0,0,1,1.35-1h5.6a1.21,1.21,0,0,1,1.34,1l9.75,34.11c.14.63-.06,1-.62,1h-4a1,1,0,0,1-.7-.2,1.48,1.48,0,0,1-.3-.75l-2.13-7.28H250.32l-2.13,7.28C248,51.68,247.7,52,247.18,52Zm9.19-30.63-4.93,17.92h10.13l-5-17.92Z" fill="#0258f9"></path> <path d="M280.39,52h-3.53a.84.84,0,0,1-.95-1V16.94a.84.84,0,0,1,.95-1h13.33a8.7,8.7,0,0,1,6.38,2.27,8.61,8.61,0,0,1,2.3,6.41V30.5a8.63,8.63,0,0,1-2.3,6.38,8.63,8.63,0,0,1-6.38,2.3H282c-.45,0-.67.18-.67.56V51.05A.84.84,0,0,1,280.39,52ZM282,34.36h7.44q4,0,4-4.14V24.9q0-4.16-4-4.15H282c-.42,0-.62.19-.62.56V33.8C281.34,34.17,281.54,34.36,282,34.36Z" fill="#0258f9"></path> <path d="M311.19,16.94V51.05a.84.84,0,0,1-.95,1h-3.53a.84.84,0,0,1-.95-1V16.94a.84.84,0,0,1,.95-1h3.53A.84.84,0,0,1,311.19,16.94Z" fill="#0258f9"></path> <path d="M329.5,52H326c-.67,0-1-.32-1-1V21.31a.49.49,0,0,0-.56-.56h-7c-.67,0-1-.31-1-.95V16.94c0-.63.34-1,1-1h20.77c.68,0,1,.32,1,1V19.8c0,.64-.33.95-1,.95h-7.05c-.41,0-.62.19-.62.56V51.05A.84.84,0,0,1,329.5,52Z" fill="#0258f9"></path> <path d="M345.91,52h-4c-.53,0-.71-.32-.56-1l9.74-34.11a1.26,1.26,0,0,1,1.34-1H358a1.21,1.21,0,0,1,1.35,1l9.74,34.11c.15.63,0,1-.61,1h-4a.93.93,0,0,1-.7-.2,1.56,1.56,0,0,1-.31-.75l-2.13-7.28H349l-2.12,7.28C346.77,51.68,346.43,52,345.91,52Zm9.18-30.63-4.93,17.92H360.3l-5-17.92Z" fill="#0258f9"></path> <path d="M393.73,52H375.59a.85.85,0,0,1-1-1V16.94a.85.85,0,0,1,1-1h3.53a.84.84,0,0,1,.95,1V46.57c0,.37.22.56.67.56h13c.64,0,.95.33.95,1v2.91A.84.84,0,0,1,393.73,52Z" fill="#0258f9"></path> </g> </g> </svg> 