<?xml version="1.0" encoding="utf-8"?>
<!-- Generator: Adobe Illustrator 25.4.1, SVG Export Plug-In . SVG Version: 6.00 Build 0)  -->
<svg version="1.1" id="Layer_1" xmlns="http://www.w3.org/2000/svg" xmlns:xlink="http://www.w3.org/1999/xlink" x="0px" y="0px"
	 viewBox="0 0 2063.8 599.8" style="enable-background:new 0 0 2063.8 599.8;" xml:space="preserve">
<path d="M322,0c6.1,2.2,12.6,1.9,18.9,2.8c63.6,9,118.9,35.4,165.4,79.6c49.7,47.2,80.6,104.9,90.1,172.8
	c13.5,96.6-13.2,181.4-80.3,252.3c-48.6,51.4-109,80.8-179.2,90.2c-5.3,0.7-10.8,0.4-16,2.2c-14.7,0-29.3,0-44,0
	c-0.6-1.4-2-1-3.1-1.1c-39.4-3.6-77-13.7-111.8-32.6C72,517.3,18.8,442.2,2.8,340.8c-1-6.3-0.6-12.8-2.8-18.9c0-14.3,0-28.7,0-43
	c2.1-6.5,1.8-13.3,2.8-20c9.9-69.1,40-128,90.5-176.2c46.7-44.5,102.2-71,166.2-80c6.8-1,13.8-0.8,20.5-2.7C294,0,308,0,322,0z
	 M167.1,329.9c2.3,0,4.3,0,6.3,0c100.5,0,200.9,0,301.4,0.1c4,0,5.3-0.8,5.3-5.1c-0.2-30.1-0.2-60.3,0-90.5c0-3.8-1-4.6-4.7-4.6
	c-117,0.1-233.9,0.1-350.9,0c-3.3,0-4.5,0.5-4.5,4.2c0.1,70,0,139.9,0.1,209.9c0,20,15.9,35.8,36,35.8c96,0.1,191.9,0.1,287.9,0
	c20.1,0,35.9-15.8,36-35.8c0.1-26.7,0-53.3,0.1-80c0-3.7-1.2-4.3-4.5-4.3c-15.2,0.2-30.3,0.4-45.5-0.1c-6.2-0.2-9.1,2.1-12.2,7.2
	c-25.7,43.2-63.8,66.7-114,68.7c-40.8,1.6-75.5-13.5-103.6-43.1C183.5,374.9,172.6,354,167.1,329.9z M300,199.9
	c58.2,0,116.3,0,174.5,0.1c4,0,5.8-0.4,5.6-5.2c-0.4-12.8-0.1-25.7-0.2-38.5c-0.1-20.6-15.8-36.3-36.5-36.3c-95.7,0-191.3,0-287,0
	c-20.7,0-36.4,15.7-36.5,36.3c-0.1,12.7,0.2,25.3-0.1,38c-0.1,4.4,0.9,5.8,5.6,5.7C183.7,199.9,241.8,199.9,300,199.9z M212.1,360.1
	c22.3,29.7,50.8,45.7,87.2,45.8c36.8,0.1,65.6-15.9,88-45.8C328.6,360.1,270.9,360.1,212.1,360.1z"/>
<path d="M2063.8,480.8c-32.5,0-65-0.1-97.5,0.1c-4,0-6.3-1.3-8.5-4.5c-18.3-26.8-36.8-53.4-55.1-80.3c-2.4-3.6-3.8-3.9-6.8-0.6
	c-9.7,10.8-19.6,21.4-29.6,31.9c-2.2,2.3-2.9,4.5-2.8,7.5c0.1,13.8-0.1,27.7,0.1,41.5c0.1,3.5-1,4.4-4.5,4.4
	c-25.8-0.1-51.6-0.1-77.5,0c-3.4,0-4-1.1-4-4.2c0.1-122.6,0.1-245.2,0-367.8c0-3.5,1.2-4,4.3-4c25.3,0.1,50.6,0.2,76,0
	c4.4,0,5.8,0.9,5.8,5.6c-0.2,67.8-0.1,135.6-0.1,203.4c0,1.8,0,3.5,0,6.5c9.7-10.5,18.6-20,27.5-29.6c19.9-21.5,39.9-43,59.8-64.5
	c1.3-1.4,2.6-2.3,4.7-2.3c32.8,0.1,65.6,0,99.7,0c-6.3,6.8-11.8,12.8-17.4,18.8c-25.7,27.7-51.4,55.4-77.2,83
	c-2.3,2.4-2.2,4-0.4,6.7c33.9,48.4,67.6,96.9,101.4,145.4c0.5,0.8,0.9,1.8,2.1,2C2063.8,480.2,2063.8,480.5,2063.8,480.8z"/>
<path d="M809,300.5c0,3.9,0,7.9,0,11.8c0.1,28.3,0.1,56.6,0.2,85c0.1,26.3,0.1,52.6,0.4,78.9c0,3.7-0.8,4.7-4.7,4.7
	c-26.8-0.2-53.7-0.2-80.5,0c-3.8,0-4.6-1.1-4.6-4.7c0.1-117.3,0.1-234.5,0-351.8c0-4,1.3-4.6,4.8-4.5c19,0.2,38,0.2,57,0
	c3.4,0,5.4,1.1,7.2,3.9c40.6,61.2,81.3,122.2,122,183.3c1.1,1.6,2.2,3.3,3.7,5.4c6.1-9.3,12-18.2,17.8-27
	c35.8-54,71.6-107.9,107.3-161.9c1.8-2.7,3.5-3.7,6.8-3.7c19.3,0.2,38.7,0.2,58,0c3.8,0,4.6,1.1,4.6,4.7
	c-0.1,117.3-0.1,234.5,0,351.8c0,4-1.3,4.5-4.8,4.5c-26.7-0.1-53.3-0.2-80,0c-4.2,0-5.2-1.2-5.2-5.3c0.1-56,0.1-111.9,0.1-167.9
	c0-1.8,0-3.6,0-5.5c-2.4,0.3-2.7,2.2-3.5,3.4c-24.7,38.1-49.4,76.3-74,114.4c-1.8,2.8-3.6,4.1-7.1,4c-13.3-0.3-26.7-0.2-40,0
	c-3.3,0-5.3-0.8-7.2-3.8c-25-38.9-50.1-77.8-75.2-116.6c-0.7-1.1-1.5-2.2-2.2-3.3C809.6,300.4,809.3,300.5,809,300.5z"/>
<path d="M1689.8,306c-11.2,0-22.3-0.1-33.5,0.1c-2.9,0-4.3-0.4-4.9-3.7c-1.9-10.2-8.4-16.8-17.9-20.5c-13.9-5.4-28.2-5.8-42.6-1.9
	c-1.6,0.4-3.1,1.1-4.6,1.9c-12.8,6.7-13.4,20.5-1.2,28.1c8.7,5.5,18.8,6.2,28.6,8c20.3,3.6,40.9,5.4,60.6,12.1
	c18.3,6.3,34.7,15.4,45.6,32.2c20.9,32.2,11.8,79.1-19.7,102.4c-16.7,12.4-35.9,18.7-56.2,21.8c-30.3,4.6-60.5,3.8-89.9-5.6
	c-24.8-7.9-45.1-21.9-58.1-45.1c-6.9-12.4-10.3-25.9-12-39.9c-0.3-2.7,0.6-3.5,3.2-3.4c23.3,0.3,46.6,0.4,70,0.6
	c1.7,0,2.8,0.3,3.3,2.2c4.6,19.9,19.3,27.2,37.5,29.5c10.4,1.3,21,1.2,31.2-1.7c2.7-0.8,5.4-1.8,7.9-3.1c5.1-2.6,8.5-6.6,8.6-12.5
	c0.1-6-3.5-9.9-8.4-12.7c-9.2-5.4-19.7-5.6-29.8-7.7c-18.9-3.8-38.2-5.4-56.8-11.1c-19.5-5.9-36.2-16.1-46.9-34.1
	c-16.9-28.3-15.8-79.7,27-105.9c19.1-11.7,40.1-16.8,62.1-18.3c29.3-2.1,57.9,0.8,84.8,13.5c28.5,13.4,45.4,35.6,49.7,67
	c0.2,1.3,0.1,2.7,0.4,4c0.6,3-0.4,4-3.6,4C1712.8,305.9,1701.3,306,1689.8,306z"/>
<path d="M1442.9,228.5c0-3.7-0.9-4.7-4.6-4.7c-24.2,0.2-48.3,0.1-72.5,0.1c-8.5,0-8.5,0-8.5,8.2c0,1.5,0.4,3-0.6,4.6
	c-0.7-0.3-1.5-0.5-2.2-0.9c-16.5-10-34.5-15.4-53.7-17.2c-37.8-3.4-71.2,7-98.5,33.2c-36.7,35.2-48.8,78.9-39.4,128.3
	c14.5,76.4,87,121.3,161.9,100.8c11.3-3.1,21.7-8,32.6-14.4c0,3.7,0.2,6.7-0.1,9.5c-0.4,3.7,0.9,4.8,4.7,4.8c25.3-0.2,50.7-0.2,76,0
	c3.8,0,5-0.9,5-4.9C1442.8,393.4,1442.8,310.9,1442.9,228.5z M1354.2,395.1c-18.4,18.7-40.9,24-65.6,18.2
	c-29.8-7-49.2-38.7-44.3-70.2c4.4-28.2,21-48.3,46-53.6c25.1-5.3,47.1,1.4,65,20.3c1.8,1.9,2,4,2,6.4c0,12,0,24,0,36
	c0,11.8-0.1,23.7,0.1,35.5C1357.4,390.7,1356.4,392.9,1354.2,395.1z"/>
<path d="M262.7,301.9c-1,0-2-0.1-3,0c-7,0.7-11.8-0.6-16.4-7.6c-10.6-15.9-34.5-13.3-43.3,3.9c-1.6,3.1-3.3,3.9-6.5,3.8
	c-7.3-0.2-14.7-0.2-22,0c-3.4,0.1-3.9-1.1-3.3-4c5.4-28.1,34.8-48.3,63.2-43.3c24.3,4.3,39.3,18.7,46.1,42.2
	c1.1,3.8,0.7,5.6-3.8,5.1C270,301.6,266.3,301.9,262.7,301.9z"/>
<path d="M417,301.9c-1.3,0-2.7-0.1-4,0c-6.6,0.5-11.1-0.4-15.6-7.3c-10.4-16.3-34.7-13.7-43.6,3.7c-1.5,2.9-3,3.7-6.1,3.6
	c-7.3-0.2-14.7-0.2-22,0c-3.4,0.1-4.3-0.8-3.6-4.2c5.1-25,28.7-43.9,54.9-43.9c26.2,0,49.7,19,54.7,44.1c0.6,3,0.1,4.3-3.3,4
	C424.7,301.7,420.8,301.9,417,301.9z"/>
</svg>
