<?xml version="1.0" encoding="utf-8"?>
<!-- Generator: Adobe Illustrator 25.4.1, SVG Export Plug-In . SVG Version: 6.00 Build 0)  -->
<svg version="1.1" id="Layer_1" xmlns="http://www.w3.org/2000/svg" xmlns:xlink="http://www.w3.org/1999/xlink" x="0px" y="0px"
	 viewBox="0 0 803.6 236.5" style="enable-background:new 0 0 803.6 236.5;" xml:space="preserve">
<path d="M229.5,8.8c2.1-2.5,5.1-4.6,6.2-8.8c-18.8,16.2-37,31.8-55.2,47.4c-10.4,8.9-22.1,8.9-32.5,0c-9.7-8.3-19.5-16.7-29.2-25.1
	c-6.7-5.7-13.4-11.5-20.1-17.2c-0.6-0.5-1.2-2-2.4-0.9c-1.3,1.1,0.4,1.6,0.8,2.3c0.5,0.8,1.2,1.6,1.9,2.3
	c13.1,15.3,26.2,30.6,39.3,45.9c9.6,11.2,9.6,23-0.5,33.9c-24,25.7-48.1,51.2-72.2,76.8c-21,22.3-41.9,44.6-62.9,66.9
	c0.4,0.4,0.9,0.8,1.3,1.2c47.8-44.9,95.6-89.8,143.4-134.7c11.1-10.4,22.8-10.6,34.3-0.8c10.1,8.7,20.2,17.4,30.3,26
	c7.1,6.1,14.2,12.2,21.9,18.7c0.1-2.7-1.4-3.7-2.4-4.8c-14.3-16.7-28.6-33.4-42.9-50.1c-8.3-9.7-8.1-22.1,0.2-31.8
	C202.4,40.4,216,24.7,229.5,8.8z"/>
<path d="M334.1,35.9c0-2.7-1-3.4-3.5-3.3c-6.5,0.1-13,0-19.5,0c-6.3,0-12.6-0.1-19,0c-7.3,0.1-12.3,4.8-12.4,12.1
	c-0.1,8.7,0.2,17.3-0.1,26c-0.2,4.4,2.7,3.1,4.9,3.2c2.5,0.1,5,0.7,4.7-3.5c-0.4-6.3-0.1-12.6-0.1-19c0-9.3,0-9.2,9.1-9.2
	c3,0,4,0.6,3.9,3.8c-0.3,8.1,0.1,16.3-0.2,24.5c-0.1,4.2,2.5,3.5,4.9,3.4c2.3-0.1,5.1,1,4.9-3.3c-0.3-6.6-0.1-13.3-0.1-20
	c0-8.5,0-8.3,8.7-8.4c3.4,0,4.2,1,4.1,4.2c-0.2,8.1,0.1,16.3-0.1,24.5c-0.1,4.1,2.6,3.1,4.6,3c2.1-0.1,5.2,1.5,5.1-3
	C333.9,59.2,333.9,47.5,334.1,35.9z"/>
<path d="M651.6,52.9c0-3.5-1.2-4.1-4.3-4c-9.1,0.2-18.3,0-27.5,0.1c-1.7,0-3.4,0.2-3.3-2.5c0.1-2,0.4-3.7,2.7-4.1
	c1.1-0.2,2.3-0.1,3.5-0.1c8.2,0,16.3-0.3,24.5,0.1c4.3,0.2,4.2-1.9,4.3-5c0.1-3.5-0.5-5.2-4.5-4.8c-4.3,0.4-8.6,0.1-13,0.1
	c-5,0-10-0.1-15,0c-6.1,0.2-11,5-11.4,11.1c-0.2,3.5,0.1,7-0.1,10.5c-0.2,3,1,3.6,3.7,3.5c9-0.1,18-0.1,27,0c1.5,0,3.1-0.3,3.1,2
	c0,2-0.2,3.8-2.3,4.5c-1.1,0.4-2.3,0.2-3.5,0.2c-8,0-16,0.2-24-0.1c-4-0.2-4.1,1.6-4.1,4.7c0,3.2,0,5.3,4.3,5
	c6.3-0.4,12.6-0.1,19-0.1C649.7,73.9,651.7,71.8,651.6,52.9z"/>
<path d="M435.7,73.6c-1.7-3.5-3.1-6.7-4.8-9.7c-1.4-2.3-1.7-3.8,1-5.6c3.1-2,4.5-5.3,4.6-9c0.1-4.7,0-9.3,0.1-14
	c0.1-2.3-0.8-2.8-2.9-2.8c-10.7,0.1-21.3-0.1-32,0.1c-5.8,0.1-10.9,5-11.1,10.8c-0.2,9.3-0.1,18.6-0.1,28c0,1.1-0.2,2.1,1.6,2.5
	c5.7,1.3,7.7-0.1,7.7-5.9c0-1.2,0.1-2.3,0-3.5c-0.3-2.6,0.7-3.5,3.3-3.4c4,0.2,8,0.3,12,0c3.5-0.3,5.1,1.1,6.8,4.2
	C427.5,75.6,424.4,74,435.7,73.6z M412.5,51.5c-2.5,0-5,0-7.4,0c-2.6,0-5.6,1.1-5.4-3.8c0.2-4,1.2-5.7,5.4-5.5
	c6.1,0.3,12.2,0.1,18.4,0c2.2,0,3.9,0.1,3.5,3.1c-0.4,2.6,1.1,6.1-3.5,6.2C419.8,51.5,416.2,51.5,412.5,51.5z"/>
<path d="M801.6,73.5c-1.8-3.6-3.2-6.7-4.9-9.8c-1.1-2.1-1.7-3.5,1-5.2c3.2-2.1,4.8-5.5,4.8-9.4c0-4.5-0.1-9,0.1-13.5
	c0.1-2.5-0.9-3.1-3.2-3.1c-10.5,0.1-21-0.1-31.5,0.1c-6.1,0.1-11.2,5.1-11.4,11.1c-0.2,9.2,0.1,18.3-0.1,27.5
	c-0.1,3.9,2.6,2.8,4.4,2.6c1.8-0.2,5,1.8,5-2.5c0-3.3-1.6-7.8,0.8-9.5c2.4-1.7,6.7-0.5,10.2-0.6c1.3,0,2.7,0.1,4,0
	c3.6-0.5,5.6,0.9,7.1,4.4C792,74.6,792.3,74.5,801.6,73.5z M778.7,51.5c-2.7,0-5.3,0-8,0c-2.6,0-5.3,0.8-5.1-3.7
	c0.2-3.9,1.1-5.8,5.4-5.6c6.1,0.3,12.3,0.2,18.5,0c2.6-0.1,3.7,0.6,3.3,3.3c-0.4,2.3,1.3,5.8-3.1,6C786,51.6,782.3,51.5,778.7,51.5z
	"/>
<path d="M750.8,53.5c0-5.7-0.2-11.3,0.1-17c0.1-3-0.8-4-3.9-4c-9,0.2-18,0-27,0.1c-8.4,0-13.3,4.9-13.3,13.4
	c-0.1,7.7,0.2,15.3-0.1,23c-0.1,3.8,0.8,5.1,4.9,5.1c4.2,0,5.8-1.3,5-5.3c-0.8-4.4,0.9-5.8,5.3-5.4c4,0.4,8,0.1,12,0.1
	c7,0,7.3,0,7.3,7.2c0,4.9,3.4,2.8,5.6,3.2c2.4,0.3,4.5,0.3,4.3-3.4C750.6,64.8,750.8,59.1,750.8,53.5z M735,54.2
	c-4.1-0.4-8.3,0-12.4-0.1c-2-0.1-5.1,1.3-5.8-1c-0.9-2.9-0.4-6.2-0.1-9.3c0.2-1.6,1.9-1.5,3.3-1.5c3.1,0,6.3,0,9.4,0
	c2,0,4,0.3,6-0.1c4.8-0.8,5.9,1.1,6,5.9C741.5,53.3,739.9,54.7,735,54.2z"/>
<path d="M381.6,32.5c-5,0.2-10,0.1-15,0.1c-4.8,0-9.6-0.1-14.5,0c-7.5,0.1-12.4,5-12.5,12.5c-0.1,5.5-0.1,11,0,16.5
	c0.1,7.3,4.5,11.9,11.7,12.2c7.1,0.3,14.3,0.3,21.4,0c7.5-0.2,11.9-4.8,12-12.4c0.2-8.5,0-17,0.1-25.4
	C385,33.3,384.2,32.4,381.6,32.5z M375.5,60.1c0.1,3.2-1.1,4.6-4.3,4.4c-3.2-0.2-6.3,0-9.5,0c-12.8-0.1-12.8-0.1-12.8-12.9
	c0-10.6-1.1-9.2,9.3-9.3c4.7,0,9.3,0.1,14-0.1c2.7-0.1,3.4,0.9,3.3,3.4C375.3,50.4,375.3,55.3,375.5,60.1z"/>
<path d="M597.3,53.2c-2.8,0-5-0.3-4.8,3.9c0.3,7.3,0,7.3-7.6,7.3c-0.2,0-0.3,0-0.5,0c-5.4-0.4-13,2.5-15.6-1.1
	c-2.7-3.7-0.7-10.8-0.9-16.5c-0.1-3.4,1.3-4.8,4.7-4.7c8.2,0.1,16.3-0.2,24.5,0.1c4.3,0.2,3.5-2.5,3.4-4.8c-0.1-2.2,1.2-5.1-3.2-5
	c-9,0.2-18,0-27,0.1c-6.5,0.1-11.6,5.2-11.7,11.8c-0.2,8.8,0,17.6-0.1,26.5c0,2.6,0.9,3,3.2,3c6.2-0.1,12.3,0,18.5,0
	c6,0,12-0.1,18,0.1c2.9,0.1,4.2-0.5,4-3.8c-0.3-4.3-0.4-8.7,0-13C602.5,53,600.2,53.2,597.3,53.2z"/>
<path d="M552.9,53.3c0-5.7-0.1-11.3,0.1-17c0.1-2.7-0.5-3.8-3.5-3.8c-9.8,0.2-19.7,0-29.5,0.1c-7,0.1-11.9,4.8-12,12
	c-0.2,8.7,0.1,17.3-0.1,26c-0.1,4.4,2.7,3.2,5,3.3c2.4,0.1,5,0.8,4.8-3.4c-0.3-7.8,0.1-15.7-0.2-23.5c-0.1-3.8,1.3-4.9,4.9-4.8
	c5.5,0.2,11,0.3,16.5,0c3.6-0.2,4.9,0.6,4.8,4.6c-0.4,8,0.1,16-0.2,24c-0.2,4,2.3,3.3,4.5,3.1c2.1-0.1,5.3,1.4,5-3.1
	C552.7,64.9,552.9,59.1,552.9,53.3z"/>
<path d="M487.1,53.2c0-5.5-0.2-11,0.1-16.5c0.1-3.2-0.7-4.3-4.1-4.2c-9.3,0.2-18.6,0-28,0.1c-8.1,0-12.9,4.8-13,13.1
	c-0.1,8.2,0.3,16.3-0.1,24.5c-0.2,4.6,2.5,3.7,5.1,3.8c2.6,0.1,4.8,0.4,4.6-3.7c-0.4-7.5,0.1-15-0.2-22.5c-0.1-4,0.9-5.8,5.3-5.6
	c5.6,0.3,11.3,0.3,17,0c3.5-0.2,4,1.2,4,4.2c-0.2,8,0.2,16-0.2,24c-0.2,4.2,2.2,3.6,4.6,3.5c2.5,0,5.4,0.9,5.1-3.7
	C486.7,64.6,487.1,58.9,487.1,53.2z"/>
<path d="M697.4,32.5c-6.1,0.4-12.3,0.1-18.5,0.1s-12.3,0-18.5,0c-1.3,0-3-0.6-3.6,1.6c-1.5,5.4,0.3,8,5.7,8c2.8,0,5.7,0.2,8.5,0
	c2.8-0.2,3.7,0.6,3.6,3.5c-0.2,8.3,0.1,16.6-0.2,24.9c-0.1,4,2.3,3.3,4.5,3.2c2.1-0.1,5.3,1.4,5.1-3.1c-0.2-5-0.1-10,0-15
	c0-4.3-1.4-9.8,0.8-12.6c2.3-2.9,8.1-0.6,12.3-1c0.2,0,0.3,0,0.5,0c4.7,0.7,3.3-2.8,3.5-5.2C701.3,34.4,701.4,32.3,697.4,32.5z"/>
<path d="M502.5,70.6c-0.2-11.7-0.2-23.3,0-35c0.1-4.1-2.6-3.2-4.7-3c-2.1,0.2-5.4-1.6-5.2,2.9c0.2,5.8,0,11.7,0,17.5
	c0,5.8,0.2,11.7-0.1,17.5c-0.2,4.4,2.6,3.3,4.9,3.3C499.7,73.8,502.6,75.1,502.5,70.6z"/>
<path d="M444.4,99.6c0.1-2.5-0.9-3.1-3.2-3.1c-2.1,0-3.5,0.3-3.4,2.9c0.1,1.4,0.5,2.9-0.7,4.6c-1.8-2.1-3.6-4-5.1-6
	c-1.5-2-3.6-1.7-5.4-1.3c-2,0.5-1,2.5-1,3.8c-0.1,4.1,0.1,8.3-0.1,12.5c-0.1,2.4,1,2.7,3,2.6c2,0,3.7,0,3.3-2.8
	c-0.2-1.4,0-2.9,0-5.5c2.5,2.9,4.2,4.6,5.7,6.6c1.6,2.2,3.9,1.9,5.9,1.4c2-0.5,1-2.5,1-3.9C444.4,107.5,444.2,103.5,444.4,99.6z"/>
<path d="M657.6,97.5c-4.3-1.8-9.1-1.9-13.1-0.4c-2.2,0.8-0.6,5.5-0.8,8.4c-0.2,2,0.3,4-0.1,6c-0.8,4.6,2.1,4.2,5,4.1
	c3.3-0.1,0.6-3.6,3.2-4.7c1.6,4,4.7,5.9,9.9,4.1c-2.3-2.7-3.8-5-0.9-8.4C663.3,103.8,661.2,99.1,657.6,97.5z M652.6,106.1
	c-1.8,0.3-2.3-0.8-2.3-2.3c0-1.2,0.1-2.4,1.8-2.3c1.4,0.1,2.7,0.4,2.8,2.1C655.1,105.2,654,105.9,652.6,106.1z"/>
<path d="M585,96.4c-2.8-0.1-3.4,1.1-3.2,3.6c0.2,2.5,0,5,0,7.5c0,1.9-0.7,3.3-2.9,3.2c-1.9-0.1-2.4-1.5-2.5-3.1c0-2.8-0.2-5.6,0-8.5
	c0.1-3-1.9-2.4-3.7-2.5c-1.9-0.1-3.3,0.2-3.1,2.6c0.1,1.5,0,3,0,4.5c0,0.7,0,1.3,0,2c0.1,7.1,3.2,10.7,9.5,10.6
	c6.1-0.1,9.1-3.5,9.2-10.4c0-2-0.2-4,0-6C588.7,97.1,587.5,96.5,585,96.4z"/>
<path d="M728.6,110.6c-1.7-0.3-4.8,1.3-4.9-1.2c-0.1-1.9,3-0.9,4.7-1c2-0.1,2.6-0.8,2.6-2.7c0-2.2-1.2-2.3-2.9-2.3
	c-1.6-0.1-3.3,0.6-5-0.8c1.6-1.9,3.4-1,4.9-1.2c1.8-0.2,4.2,0.8,4.1-2.6c-0.1-3.5-2.7-2.1-4.4-2.3c-1.3-0.2-2.7,0-4,0
	c-7.1,0-7.1,0-7.1,7.1c0,12.2,0,12.2,12.1,12c1.5,0,3.8,1.1,3.9-2.2C732.7,109.9,730.4,111,728.6,110.6z"/>
<path d="M367.6,110.6c-2.2-0.2-4.8,1-6.9-1.2c2-1.8,4.1-0.9,6-1c1.7-0.1,2.3-0.8,2.3-2.4c0-1.6-0.4-2.5-2.2-2.5
	c-1.9,0-4,0.5-6.7-0.9c2.9-1.6,5.3-1.1,7.4-1c2.7,0.1,2.5-1.6,2.4-3.3c-0.3-2.7-2.6-1.9-3.9-1.6c-3.8,0.8-9.7-2.7-11.1,1.7
	c-1.6,5.1-1.4,11.6,0.5,16.5c0.9,2.4,7.7,0.4,11.8,0.7c0.2,0,0.3,0,0.5,0c1.8,0.1,2.8-0.4,2.7-2.5
	C370.4,111,369.3,110.8,367.6,110.6z"/>
<path d="M799.8,104.7c-2.1-0.9-4.3-1.3-7.6-2.2c3.1-1.7,5-1.2,6.9-0.6c2.4,0.8,2.3-1.2,3-2.3c1-1.9-0.4-2.4-1.7-2.7
	c-2.9-0.7-6-0.8-8.9-0.1c-2.9,0.7-4.6,2.7-4.8,5.7c-0.1,3.1,1.7,4.7,4.6,5.6c1.8,0.5,4,0.2,5.5,2.2c-2.3,2-4.5,0.6-6.5-0.1
	c-1.8-0.6-2.4-0.2-2.8,1.4c-0.3,1.1-1.6,2.2,0.4,3.3c3.2,1.8,10.5,1.6,13.4-0.7C804.9,111.3,804.2,106.5,799.8,104.7z"/>
<path d="M298.1,96.5c-2,0.1-3.4,0.3-4.1,2.5c-0.9,2.6-2.2,5.1-3.6,8.3c-1.4-3.3-2.6-5.8-3.4-8.3c-1.3-3.8-4.6-2.8-6.6-2.1
	c-2.3,0.7,0,2.8,0.4,4.1c1.6,4.2,3.5,8.2,5.1,12.4c0.8,2.2,2.3,2.4,4.3,2.4c1.9-0.1,3.5,0.1,4.4-2.2c1.8-4.6,3.8-9.2,5.8-13.7
	C301.3,97.4,300.9,96.4,298.1,96.5z"/>
<path d="M513.9,96.5c-4.5,0-9,0-13.4,0c-1.8,0-2.2,0.9-2.2,2.5c0,1.4,0.1,2.8,2,2.6c3.5-0.5,3.7,1.5,3.6,4.1
	c-0.1,2.1,0.1,4.3-0.1,6.5c-0.2,2.5,0.4,3.9,3.2,3.3c2.4,0.4,3.8-0.2,3.5-3.1c-0.2-2,0-4-0.1-6c-0.1-2.7-0.5-5.5,3.8-4.9
	c1.7,0.2,1.6-1.3,1.6-2.4C516,97.8,515.9,96.5,513.9,96.5z"/>
<path d="M2.7,232.3c-1.1,1.1-2.7,2-2.7,4.2c2.1-0.4,3.2-1.5,4-2.9C2.9,233.9,2.6,233.4,2.7,232.3z"/>
<path d="M4,233.6c-0.4-0.4-0.9-0.8-1.3-1.2C2.6,233.4,2.9,233.9,4,233.6z"/>
</svg>
