<svg width="736" height="201" viewBox="0 0 736 201" fill="none" xmlns="http://www.w3.org/2000/svg">
<path d="M27.549 63.1137C27.549 42.3931 38.3351 25.6463 59.3396 25.6463C83.1825 25.6463 91.1301 40.9739 91.1301 59.9914V142.022H117.811V55.4499C117.811 25.0786 101.632 1.51953 68.9903 1.51953C53.095 1.51953 36.9159 8.04794 26.9813 25.0786V5.49335H0.867676V142.022H27.549V63.1137Z" fill="black"/>
<path d="M324.453 149.402C327.859 178.638 353.405 200.21 387.467 200.21C438.842 200.21 455.873 166.433 455.873 131.804V5.49301H429.475V24.5106C422.663 10.8861 408.471 2.93842 387.467 2.93842C349.999 2.93842 324.737 32.4582 324.737 69.358C324.737 107.961 351.134 135.494 387.467 135.494C407.903 135.494 422.663 125.559 429.192 113.07V132.655C429.192 162.175 416.135 176.935 387.467 176.935C366.746 176.935 352.27 162.459 350.283 143.441L324.453 149.402ZM391.44 113.07C367.314 113.07 351.986 96.0393 351.986 69.358C351.986 42.9605 367.881 25.6459 391.44 25.6459C414.432 25.6459 430.327 42.9605 430.327 69.358C430.327 95.7555 414.432 113.07 391.44 113.07Z" fill="black"/>
<path d="M498.769 59.7073C499.904 42.1089 513.529 24.7944 535.953 24.7944C560.079 24.7944 572.852 40.122 573.42 59.7073H498.769ZM577.394 95.1878C572.285 110.515 561.215 122.721 539.075 122.721C516.083 122.721 498.485 105.69 497.917 81.2794H600.669C600.953 79.5763 601.237 76.1702 601.237 72.7641C601.237 30.1875 577.678 1.23535 535.669 1.23535C501.324 1.23535 470.384 30.4713 470.384 73.3318C470.384 119.598 502.459 146.28 539.075 146.28C570.865 146.28 592.721 127.262 600.385 103.135L577.394 95.1878Z" fill="black"/>
<path d="M644.946 63.1134C644.946 42.3928 655.733 25.6459 676.737 25.6459C700.58 25.6459 708.528 40.9735 708.528 59.9911V142.022H735.209V55.4496C735.209 25.0783 719.03 1.51919 686.388 1.51919C670.492 1.51919 654.313 8.0476 644.379 25.0783V5.49301H618.265V142.022H644.946V63.1134Z" fill="black"/>
<path d="M156.489 0.0996094H184.873V28.484H156.489V0.0996094Z" fill="black"/>
<path d="M184.872 28.4873H211.837V55.4525H184.872V28.4873Z" fill="black"/>
<path d="M211.839 55.4463H243.062V86.6691H211.839V55.4463Z" fill="black"/>
<path d="M243.062 86.6729H270.028V113.638H243.062V86.6729Z" fill="black"/>
<path d="M270.026 113.642H298.41V142.026H270.026V113.642Z" fill="black"/>
<path d="M156.489 142.02L156.489 113.635L184.873 113.635L184.873 142.02L156.489 142.02Z" fill="black"/>
<path d="M184.872 113.642L184.872 86.6764L211.837 86.6764L211.837 113.642L184.872 113.642Z" fill="black"/>
<path d="M243.062 55.4463L243.062 28.4811L270.028 28.4811L270.028 55.4463L243.062 55.4463Z" fill="black"/>
<path d="M270.026 28.4873L270.026 0.102889L298.41 0.102887L298.41 28.4873L270.026 28.4873Z" fill="black"/>
</svg>
