<?xml version="1.0" encoding="utf-8"?>
<!-- Generator: Adobe Illustrator 25.4.1, SVG Export Plug-In . SVG Version: 6.00 Build 0)  -->
<svg version="1.1" id="Layer_1" xmlns="http://www.w3.org/2000/svg" xmlns:xlink="http://www.w3.org/1999/xlink" x="0px" y="0px"
	 viewBox="0 0 795.4 339.9" style="enable-background:new 0 0 795.4 339.9;" xml:space="preserve">
<path d="M44.4,60.4C17.7,70,0.3,95.1,0.1,124.8c-0.1,17.3,0,34.6,0,52c0,21.8,0,43.6,0,65.5c0,5.4,2.9,8.7,7.5,8.7
	c4.7,0,7.3-3,7.4-8.6c0.1-4.7,0-9.3,0-14c0-20.1,0-40.2,0-61.5C32,190,54.6,197.4,80.7,193.5c25.7-3.8,44.3-18.2,53.1-42.9
	c9.1-25.4,5.9-49.6-11.7-70.8C103.8,57.9,72.4,50.4,44.4,60.4z M69.4,180.6c-30.9,0.1-54.5-23.9-54.5-55.3
	C15,93.7,38.4,70.1,69.5,70.1c30.4,0,54,24.1,54.1,55.3C123.7,156.3,99.9,180.5,69.4,180.6z"/>
<path d="M244.1,57.8c-25.8-4.8-47.7,2.7-63.6,24.5c-10.4,14.2-13.7,30.5-12.6,47.7c1.6,26.5,13.2,47.1,37.9,58.1
	c25.5,11.3,50,7.3,72.4-9c4.6-3.4,5.2-6.7,2.4-10c-3.1-3.8-6.8-3.8-11.3-0.4c-16.9,12.8-35.7,15.2-55.1,7.7
	c-18.7-7.3-28.1-22.4-31.3-41.8c-0.5-3.3,0-4.6,3.8-4.6c16.3,0.2,32.6,0.1,49,0.1c16.5,0,33,0,49.5,0c6.1,0,8.4-2.4,8.3-8.5
	c0-5.5-0.6-11-1.9-16.3C285.3,79.9,270.2,62.7,244.1,57.8z M275.3,117.1c-14.7-0.1-29.3-0.1-44-0.1c-14.8,0-29.6-0.1-44.5,0.1
	c-3,0-3.9-0.5-3.3-3.8c3.5-18.6,12.7-33.1,30.8-39.8c16.8-6.2,33.2-4.1,47.4,7.5c10.1,8.3,15.1,19.5,17.1,32.3
	C279.3,116.6,278.3,117.1,275.3,117.1z"/>
<path d="M379.5,194.1c17,0.3,32.3-5.1,45.7-15.8c3.1-2.5,4.2-5.5,1.5-9.1c-2.7-3.5-6.6-4.1-10.1-1.7c-0.5,0.4-1,0.9-1.5,1.3
	c-16.9,12.5-35.5,15-54.7,7.6c-18.9-7.3-28.4-22.6-31.5-42.2c-0.5-3.1,0.1-4.3,3.7-4.3c16.5,0.2,33,0.1,49.5,0.1
	c16.2,0,32.3,0,48.5,0c7.1,0,9.2-2.2,9-9.3c-0.1-3.2-0.4-6.3-0.8-9.4c-3.6-23.3-14.9-41.4-37.5-50.1c-22.5-8.7-44.3-6.4-63.4,9.1
	c-18.2,14.7-24.5,34.8-24.1,57.6C314.3,166,341.4,193.5,379.5,194.1z M329.5,113.3c3.4-18.6,12.7-33.1,30.8-39.8
	c16.8-6.2,33.2-4.1,47.4,7.5c10.1,8.3,15.1,19.5,17.1,32.3c0.5,3.3-0.6,3.8-3.6,3.8c-14.8-0.2-29.6-0.1-44.5-0.1
	c-14.7,0-29.3-0.1-44,0.1C329.8,117.1,328.9,116.7,329.5,113.3z"/>
<path d="M737.5,185.4c0.1-0.7,0-1.3,0-2c0-21.7,0.1-43.3-0.1-65c-0.1-10.2-1.6-20.2-6-29.6c-13.4-28.7-45.9-36.8-71-31.3
	c-12.7,2.8-23.2,9.6-32.6,20.1c0-10.1,0-18.9,0-27.7c0-14.2,0-28.3-0.1-42.5c0-4.9-2.4-7.2-6.8-7.4c-4.6-0.2-7.5,2.2-8,7
	c-0.1,1,0,2,0,3c0,57.6,0,115.3,0,172.9c0,1.8-0.2,3.6,0.6,5.4c1.5,3.6,4.3,5,8,4.6c3.6-0.4,5.7-2.5,6.2-6.1c0.2-1.6,0.1-3.3,0.1-5
	c0-23.7,0-47.3,0-71c0-11.9,4.5-21.7,13.9-29.1c14.8-11.6,31.6-13.2,49.2-8.7c14,3.6,23.6,12.5,28.6,26.1c2.6,7.1,3.2,14.6,3.1,22.1
	c0,21.2,0,42.3,0,63.5c0,5.1,2.8,8.1,7.3,8.2C734.3,193,737,190.2,737.5,185.4z"/>
<path d="M497.5,61.8c-22.3,10.3-33.8,28.7-37.1,52.4c-6.3,44.7,24.8,80.6,67.3,80.3c2.4-0.2,5.3-0.2,8.3-0.6
	c13.3-1.5,25-6.4,35.1-15.2c2.2-1.9,3.4-4.2,2.6-7c-0.7-2.8-2.7-4.7-5.4-5.3c-3.3-0.7-5.6,1.4-8,3.3c-20.1,16-51.9,14.6-69.8-3.8
	c-17.9-18.5-19.8-40.6-11.8-63.9c5.6-16.4,17.2-27.3,34.5-30.5c19.1-3.6,35.9,1.6,49.1,16.5c4.4,4.9,8,5.5,11.9,2
	c3.5-3.2,3.2-5.9-1.2-11.2C555.3,57.6,522.7,50.1,497.5,61.8z"/>
<path d="M490.9,240c-15.2,3.5-26.2,17.1-26.4,33.4c-0.3,20.3-0.1,40.6-0.1,61c0,1,0,2,0.3,3c0.5,1.9,1.9,2.6,3.8,2.5
	c1.7,0,2.9-1,3.2-2.6c0.3-1.4,0.3-3,0.3-4.5c0-11.6,0-23.2,0-35.8c14.1,15.6,33.8,18.3,49.3,7.4c14.8-10.3,19.4-31.1,10.4-47.7
	C524.2,243,507.6,236.2,490.9,240z M499.8,303.8c-15.5-0.1-27.8-12.8-27.8-28.6c0-16.5,12.4-29.2,28.4-29
	c15.9,0.1,28.1,12.7,28,28.8C528.4,291.4,515.9,303.9,499.8,303.8z"/>
<path d="M415.1,239.3c-18.8-3.2-36.2,8.4-40.7,27c-4.5,19.1,5.6,37.7,23.9,43c15.1,4.3,28.2,0.8,39.2-12.4c0,3.2,0,5.2,0,7.2
	c0,2.8,0,5.7,3.8,5.7c3.8,0.1,4-2.9,4-5.6c0-9.8,0.3-19.7,0-29.5C444.8,255.7,433.3,242.4,415.1,239.3z M409.7,303.8
	c-16.1,0-28.6-12.7-28.5-29c0.1-16.2,12.4-28.7,28.3-28.7c15.9,0,28.1,12.4,28.1,28.7C437.6,291.1,425.4,303.8,409.7,303.8z"/>
<path d="M710.9,270.5c-1.5-15.1-12.2-27.5-26.1-30.5c-16.3-3.6-32,2.3-39.8,15c-8.1,13-7,31.1,2,42.7c11.8,15.3,39.7,19.9,56.6-0.7
	c0,3.4,0,5.6,0,7.9c0,2.8,0.7,5.1,4.1,5c3.2-0.1,3.7-2.4,3.7-4.9C711.1,293.5,712,282,710.9,270.5z M675.8,303.8
	c-16.1,0.1-28.6-12.4-28.7-28.8c-0.1-16.1,12.3-28.7,28.1-28.8c15.9-0.1,28.2,12.2,28.3,28.5C703.6,291,691.6,303.6,675.8,303.8z"/>
<path d="M343.8,241.8c-23.7-10.3-47.2,6.1-47.2,34c0,0.7,0,2.6,0.2,4.4c1.9,12.9,8.5,22.7,20.6,27.8c12.5,5.3,24.7,3.8,35.8-4.3
	c2-1.4,3.8-3.2,1.9-5.8c-1.8-2.5-3.9-1.7-6-0.1c-9.2,6.8-19.3,8.1-29.6,3.2c-10.5-5-14.8-14.2-15.3-25.5c-0.7-14.8,8.2-27,21.7-29
	c8.9-1.3,16.8,1.3,23.1,8c1.9,2,3.9,4.3,6.7,1.9c3.2-2.8,0.4-5.1-1.4-7.1C351.4,246,347.9,243.5,343.8,241.8z"/>
<path d="M623.6,302.2c-1.5-0.2-3-0.2-4.5-0.2c-8.8-0.3-15.3-6.7-15.4-15.7c-0.2-11.3,0.1-22.6-0.1-33.9c0-3,1.1-3.6,3.7-3.5
	c4.2,0.2,8.3,0,12.5,0.1c2.3,0,4-0.6,4-3.3c0-2.8-1.6-3.8-4.2-3.7c-4.3,0-8.7-0.1-13,0.1c-2.4,0.1-3.1-0.7-3.1-3.1
	c0.2-5.5,0-11,0.1-16.5c0-2.9-1.1-5-4.2-4.9c-2.9,0.1-3.8,2.1-3.8,4.8c0.1,3.3,0,6.7,0,10c0,9.2,0,9.2-8.9,9.6c-0.3,0-0.7,0-1,0
	c-2.3,0-3.3,1.3-3.4,3.5c-0.1,2.2,1.1,3.4,3.3,3.5c2.2,0.1,4.3,0.2,6.5,0c2.9-0.3,3.7,0.8,3.6,3.6c-0.2,5.7-0.1,11.3-0.1,17
	c0,5.8-0.2,11.7,0,17.5c0.5,14.4,13.6,25.3,27.5,22.9c2.3-0.4,3.6-1.6,3.6-3.9C626.9,303.8,625.7,302.6,623.6,302.2z"/>
<path d="M745.5,302.1c-4.6,0.4-7-2.3-8.7-6c-1.4-3-1.2-6.2-1.2-9.3c0-23.1,0-46.3,0-69.4c0-3,1-7.1-3.8-7.2c-5.2-0.1-4,4.3-4,7.4
	c-0.1,11.8,0,23.6,0,35.5c0,0,0,0,0,0c0,12.5-0.1,25,0,37.5c0.2,11.8,7.4,19.6,17.6,19.5c2.7,0,5.2-0.2,5.4-3.6
	C750.9,302.7,748.5,301.8,745.5,302.1z"/>
<path d="M565.7,275c0-9.8,0-19.6,0-29.4c0-2.9-0.3-5.6-4-5.5c-3.3,0.1-3.9,2.4-3.9,5.2c0,19.8,0,39.6,0,59.4c0,2.8,0.5,5.2,3.8,5.3
	c3.6,0.1,4.1-2.5,4.1-5.5C565.6,294.6,565.7,284.8,565.7,275z"/>
<path d="M782.7,172c-7.5,0-12.9,5.4-12.8,12.7c0.1,6.9,5.8,12.4,12.9,12.3c7-0.1,12.8-5.8,12.8-12.6
	C795.4,177.5,789.7,172,782.7,172z"/>
<path d="M561.8,213.1c-3.6,0-6.1,1.9-6,5.8c0.1,3.7,2.2,6,5.9,6c3.8,0,5.6-2.3,6.1-6C567.6,215.2,565.5,213.1,561.8,213.1z"/>
</svg>
