<?xml version="1.0" encoding="utf-8"?>
<!-- Generator: Adobe Illustrator 25.4.1, SVG Export Plug-In . SVG Version: 6.00 Build 0)  -->
<svg version="1.1" id="Layer_1" xmlns="http://www.w3.org/2000/svg" xmlns:xlink="http://www.w3.org/1999/xlink" x="0px" y="0px"
	 viewBox="0 0 242.7 39.4" style="enable-background:new 0 0 242.7 39.4;" xml:space="preserve">
<style type="text/css">
	.st0{fill:none;}
</style>
<path class="st0" d="M32.3,12.1c0,0.8,0,1.7,0,2.5c0,0.8,0,1.6,0,2.4c0-0.8,0-1.6,0-2.4C32.3,13.8,32.3,12.9,32.3,12.1z"/>
<path d="M135.4,3.6c-0.1-0.9-0.1-1.6-0.2-2.2c-0.1-0.3-0.4-0.7-0.6-0.7c-2.1-0.1-4.2,0-6.3,0c0,9.4,0,18.6,0,27.8c2.5,0,4.8,0,7.3,0
	c0-0.5,0-1,0-1.5c0-5.6,0-11.2,0-16.9c0-1.5,0.7-2.5,1.8-3.1c1.7-1,3.5-1,5.3-0.2c1.6,0.8,1.7,2.4,1.7,3.9c0,5.5,0,10.9,0,16.4
	c0,0.4,0,0.9,0,1.4c2.6,0,5,0,7.5,0c0-0.6,0-1,0-1.5c0-5.5,0-11,0-16.5c0-0.5,0-1.1,0.3-1.6c0.9-2.1,3.2-3.1,5.8-2.6
	c1.9,0.4,2.7,1.6,2.8,4.2c0,0.3,0,0.7,0,1c0,5.2,0,10.4,0,15.6c0,0.4,0,0.9,0,1.3c2.6,0,5,0,7.4,0c0-6.8,0.2-13.6-0.1-20.3
	c-0.2-4.5-2.7-7.6-7.5-8c-0.1,0-0.2-0.1-0.3-0.1c-0.6,0-1.2,0-1.8,0c-1.1,0.3-2.3,0.3-3.2,0.9c-1.5,0.8-2.9,1.9-4.5,3
	c0,0-0.2-0.2-0.3-0.4c-1.2-1.9-2.9-2.9-5.1-3.2c-0.4-0.1-0.8-0.2-1.2-0.2c-0.5,0-1,0-1.5,0c-2.2,0.4-4.3,0.9-6,2.5
	C136.2,2.8,135.9,3.1,135.4,3.6z"/>
<path d="M100.4,5.1c-3.3,6.2-3.4,12.7,0,18.8c2.3,4.2,6.7,5.9,11.2,4.7c1.5-0.4,2.9-1.4,4.3-2c0.4,4.7-2.2,7.3-6.9,6.9
	c-2.4-0.2-4.3-1.3-6-3.1c-1.1,1.6-2.2,3-3.4,4.7c0.9,0.7,1.7,1.5,2.7,2.1c3.4,2.1,7.1,2.5,10.9,1.9c6.4-0.9,10.2-5.4,10.2-11.8
	c0-8.5,0-16.9,0-25.4c0-0.5,0-1,0-1.4c-2.4,0-4.5,0-6.7,0c-0.1,0.8-0.2,1.5-0.4,2.5c-1.8-2.1-4-2.7-6.4-3.1c-0.5,0-1,0-1.5,0
	c-0.2,0.1-0.5,0.2-0.7,0.2C104.5,0.6,101.9,2.2,100.4,5.1z M115.1,7.6c0.5,0.5,0.8,1.3,0.9,2.1c0.1,1.6,0,3.2,0,4.9
	c0,1.7,0.1,3.3,0,5c0,0.6-0.3,1.4-0.8,1.9c-2.2,2.4-6.4,2-8.3-0.7c-2-2.9-2-9.2,0-12.2C108.7,5.8,112.8,5.3,115.1,7.6z"/>
<path d="M32.1,3.2c-0.1-1.1-0.3-1.8-0.4-2.6c-2.3,0-4.5,0-6.7,0c0,12.9,0,25.7,0,38.5c2.5,0,4.8,0,7.3,0c0-4.3,0-8.4,0-12.8
	c0.8,0.6,1.4,1.1,2.1,1.5c0.7,0.4,1.5,0.7,2.3,0.9c5.5,1.2,10.3-1.5,12.2-7.1c1.6-4.8,1.5-9.8-0.2-14.6c-1.2-3.4-3.4-5.8-7.1-6.6
	c-0.6-0.2-1.3-0.2-1.9-0.4c-0.4,0-0.8,0-1.2,0C36.1,0.3,33.9,1.2,32.1,3.2z M41.3,8.7c1.9,3.9,1.7,7.9,0,11.8
	c-1.7,3.7-6.9,2.9-8.5,0.5c-0.3-0.5-0.5-1.1-0.5-1.6c0-0.8,0-1.6,0-2.4c0-0.8,0-1.6,0-2.4c0-0.8,0-1.7,0-2.5c0-0.8,0-1.7,0-2.5
	c0-0.6,0.3-1.3,0.7-1.8C35.2,5.2,39.8,5.6,41.3,8.7z"/>
<path d="M75.2,2.4c-2.4,1.4-3.7,3.6-3.8,6.5c2.5,0,5,0,7.4,0c0.5-2.6,2.3-3.7,5.2-3.2c2.3,0.4,3.4,2.6,2.8,5.7c-1.3,0-2.5-0.1-3.8,0
	c-1.9,0.2-3.9,0.3-5.8,0.8c-4,1.1-6.3,4-6.4,7.8c-0.2,3.8,1.8,7,5.5,8.1c1.8,0.6,3.8,0.6,5.6,0.6c2,0,3.7-1.2,5.3-2.7
	c0.2,0.6,0.3,1.1,0.5,1.6c0.1,0.3,0.4,0.7,0.7,0.7c2.4,0.1,4.7,0,7,0c-0.3-1.7-0.8-3.3-0.9-4.9c-0.2-1.6-0.1-3.2-0.1-4.9
	c0-3,0-6,0-9c0-4.8-2.8-8.1-7.4-9.2c-0.9-0.2-1.9-0.3-2.8-0.5c-0.6,0-1.2,0-1.8,0c-0.5,0.1-1,0.1-1.5,0.3C79.1,0.9,77,1.4,75.2,2.4z
	 M87,20.1c0,0.2-0.1,0.5-0.2,0.7c-1.1,2.3-5.3,3.3-7.4,1.8c-1.7-1.3-1.6-4.3,0.3-5.6c0.7-0.5,1.6-0.8,2.5-1c1.5-0.2,3.1-0.2,4.7-0.3
	C87,17.3,87,18.7,87,20.1z"/>
<path d="M175.7,2.5c-2.1,1.6-3.4,3.6-3.4,6.4c2.5,0,4.9,0,7.4,0c0.5-2.6,2.3-3.7,5.2-3.2c2.3,0.4,3.4,2.5,2.8,5.7
	c-1.3,0-2.6-0.1-3.9,0c-2.3,0.3-4.7,0.5-6.9,1.3c-3.4,1.2-5.1,4-5.2,7.6c0,3.6,1.7,6.1,4.9,7.6c2,0.9,4.1,1.3,6.2,0.8
	c1.9-0.5,3.6-1.4,5.4-2.2c0.1,0.2,0.1,0.6,0.3,1c0.1,0.3,0.4,0.8,0.6,0.8c2.4,0.1,4.8,0,7.4,0c-1.4-3.1-1.3-6.1-1.3-9.2
	c0-3.2,0-6.5,0-9.7c0-4.3-2.4-7.5-6.5-8.8c-1.2-0.4-2.5-0.5-3.8-0.8c-0.6,0-1.2,0-1.8,0c-0.5,0.1-1,0.2-1.5,0.2
	C179.6,0.5,177.5,1.2,175.7,2.5z M187.8,20.3c0,0.1,0,0.3-0.1,0.4c-0.9,1.5-2.3,2.3-3.9,2.5c-1.5,0.3-2.9,0.1-4-1.1
	c-1.3-1.5-0.9-4.2,0.9-5.2c1-0.6,2.2-0.8,3.4-1c1.1-0.2,2.3,0,3.6,0C187.8,17.4,187.8,18.8,187.8,20.3z"/>
<path d="M60.8,3.8c-0.1-1.2-0.2-2.2-0.3-3.1c-2.4,0-4.6,0-6.9,0c0,9.3,0,18.5,0,27.8c2.5,0,4.9,0,7.4,0c0-0.5,0-1,0-1.4
	c0-5.2,0.1-10.3,0-15.5c0-1.7,0.7-2.7,2.1-3.3c1-0.4,2.2-0.6,3.3-0.7c0.9-0.1,1.9,0,2.9,0c0-2.2,0-4.3,0-6.3c0-0.3-0.4-0.6-0.8-0.8
	c-0.3-0.2-0.6-0.2-0.9-0.3c-0.4,0-0.8,0-1.2,0C64,0.5,62.1,1.5,60.8,3.8z"/>
<path d="M16.2,27.8c0.3,0.2,0.6,0.3,1,0.5c0-2.6,0-4.9,0-7.3c0-0.4-0.4-1-0.8-1.2c-2.2-1.5-4.5-3-6.8-4.5c-0.4-0.2-0.7-0.5-1.1-0.8
	c2.8-1.9,5.4-3.6,7.9-5.4c0.3-0.2,0.7-0.6,0.7-0.9c0.1-2.5,0-5,0-7.7C11.4,4.1,5.7,7.6,0,11c0,2.3,0,4.7,0,7
	c0.4,0.2,0.7,0.3,1.1,0.6C6.1,21.6,11.2,24.7,16.2,27.8z"/>
<path d="M225.5,7.2c0,0.5,0.3,1.1,0.7,1.4c1.3,0.9,2.6,1.8,3.9,2.6c1.3,0.9,2.6,1.7,4,2.7c-2.7,1.8-5.3,3.5-7.8,5.3
	c-0.4,0.2-0.9,0.6-0.9,0.9c-0.1,2.5,0,5,0,7.6c0.3-0.1,0.4-0.1,0.5-0.2c5.4-3.3,10.7-6.5,16.1-9.9c0.3-0.2,0.6-0.8,0.6-1.2
	c0.1-1.7,0-3.3,0-5c0-0.8-0.3-1.2-0.9-1.6c-4.6-2.8-9.2-5.6-13.8-8.5c-0.8-0.5-1.5-1-2.2-1.5c-0.1,0-0.2,0-0.2,0
	C225.5,2.4,225.4,4.8,225.5,7.2z"/>
<path d="M200.7,27.4c-0.2,0.4-0.3,0.8-0.5,1.3c2.5,0,4.7,0,7,0c0.4,0,0.9-0.4,1-0.8c4.4-9.3,8.7-18.6,13.1-27.9c-2.7,0-5.3,0-8,0
	c-0.2,0.4-0.3,0.9-0.5,1.3C208.8,10,204.7,18.7,200.7,27.4z"/>
</svg>
