<svg width="1882" height="365" viewBox="0 0 1882 365" fill="none" xmlns="http://www.w3.org/2000/svg">
<path d="M295.89 311.008H275.351V305.521H322.248V311.008H301.711V363.729H295.89V311.008Z" fill="black"/>
<path d="M434.379 363.729H392.637V305.521H433.63V311.007H398.457V331.882H432.05V337.285H398.457V358.239H434.379V363.729Z" fill="black"/>
<path d="M555.156 355.828C549.252 361.731 541.768 364.644 533.952 364.644C513.829 364.644 503.767 351.171 503.684 334.956C503.601 319.072 513.745 304.69 533.952 304.69C541.685 304.69 549.503 307.432 554.575 313.419L550.997 316.996C546.257 312.339 540.188 310.008 533.952 310.008C517.737 310.008 509.505 321.986 509.505 334.874C509.505 348.508 517.737 359.236 533.952 359.236C540.188 359.236 546.757 356.742 551.413 352.086L555.156 355.828Z" fill="black"/>
<path d="M668.366 363.729V337.949H633.108V363.729H627.288V305.521H633.108V332.462H668.366V305.521H674.186V363.729H668.366Z" fill="black"/>
<path d="M792.631 352.75L792.299 333.461V305.521H798.12V363.729H794.627L756.959 316.913L757.125 334.125V363.729H751.305V305.521H754.964L792.631 352.75Z" fill="black"/>
<path d="M901.016 359.32C916.9 359.32 924.549 347.264 924.633 334.789C924.633 321.734 916.9 310.092 901.016 310.009C885.385 310.009 877.153 321.07 877.317 334.789C877.485 347.512 885.134 359.32 901.016 359.32ZM930.452 334.789C930.37 350.008 920.724 364.809 901.016 364.809C881.226 364.809 871.496 350.008 871.496 334.706C871.496 318.325 882.14 304.522 901.016 304.522C920.724 304.605 930.536 319.24 930.452 334.789Z" fill="black"/>
<path d="M1009.65 305.521V358.24H1042V363.729H1003.83V305.521H1009.65Z" fill="black"/>
<path d="M1135.67 359.32C1151.55 359.32 1159.2 347.264 1159.28 334.789C1159.28 321.734 1151.55 310.092 1135.67 310.009C1120.04 310.009 1111.8 321.07 1111.97 334.789C1112.14 347.512 1119.79 359.32 1135.67 359.32ZM1165.1 334.789C1165.02 350.008 1155.38 364.809 1135.67 364.809C1115.88 364.809 1106.15 350.008 1106.15 334.706C1106.15 318.325 1116.79 304.522 1135.67 304.522C1155.38 304.605 1165.19 319.24 1165.1 334.789Z" fill="black"/>
<path d="M1282.88 316.996C1278.14 312.255 1271.24 310.008 1265.01 310.008C1249.12 310.008 1240.56 321.819 1240.64 334.873C1240.64 347.596 1248.71 358.907 1265.01 358.907C1270.83 358.907 1276.9 356.908 1281.72 352.583V337.865H1262.68V332.461H1287.29V354.996C1281.3 361.149 1274.07 364.56 1265.01 364.56C1244.72 364.56 1234.82 350.673 1234.82 334.957C1234.74 317.161 1246.63 304.521 1265.01 304.521C1272.74 304.521 1280.47 307.432 1286.37 313.253L1282.88 316.996Z" fill="black"/>
<path d="M1361.58 305.521H1367.4V363.729H1361.58V305.521Z" fill="black"/>
<path d="M1486.27 363.729H1444.53V305.521H1485.52V311.007H1450.35V331.882H1483.94V337.285H1450.35V358.239H1486.27V363.729Z" fill="black"/>
<path d="M1595.49 317.493C1592.08 312.006 1584.93 310.176 1578.78 310.092C1571.63 310.092 1562.4 312.173 1562.4 320.736C1562.4 327.556 1569.88 329.386 1578.94 330.966C1590.42 332.958 1602.06 335.537 1602.06 347.928C1601.98 361.066 1589.34 364.644 1578.78 364.644C1568.96 364.644 1558.99 361.066 1554.5 351.754L1559.57 349.01C1563.56 356.493 1571.71 359.07 1578.78 359.07C1585.93 359.07 1596.16 357.16 1596.16 347.844C1596.24 339.946 1587.42 337.949 1578.36 336.369C1567.38 334.457 1556.58 332.046 1556.58 320.736C1556.41 308.513 1568.88 304.605 1578.7 304.605C1586.68 304.605 1595.24 306.766 1600.4 314.75L1595.49 317.493Z" fill="black"/>
<path d="M360.7 203.042H383.929V26.177H465.288V2.94634H279.343V26.177H360.7V203.042Z" fill="black"/>
<path d="M711.476 138.359C723.909 133.633 733.707 125.798 740.597 115.073C747.576 104.206 751.115 90.3741 751.115 73.9595C751.115 62.8688 749.476 52.7835 746.244 43.9835C743.075 35.3581 738.459 27.9315 732.523 21.9061C726.601 15.8981 719.227 11.1995 710.605 7.94345C701.823 4.62745 691.657 2.94614 680.397 2.94614H533.629V203.042H556.564V26.1768H680.397C695.177 26.1768 706.984 30.2515 715.491 38.2861C724.105 46.4328 728.473 58.6328 728.473 74.5488C728.473 90.2941 724.36 102.683 716.247 111.378C707.999 120.211 695.937 124.689 680.397 124.689H598.185V143.498H674.397L728.636 203.042H761.516L701.269 142.243L711.476 138.359Z" fill="black"/>
<path d="M966.329 8.64406C964.602 5.66539 962.685 3.37739 960.6 1.79606C958.986 0.572055 957.028 5.4984e-05 954.437 5.4984e-05C951.801 5.4984e-05 949.761 0.594723 948.024 1.86806C945.885 3.43739 943.961 5.68405 942.306 8.54272L825.494 203.043H851.634L952.938 31.7427L1010.69 128.257H930.772L918.024 149.099H1022.73L1054.86 203.043H1083.36L966.329 8.64406Z" fill="black"/>
<path d="M1186.06 203.042H1209.29V26.177H1290.64V2.94634H1104.7V26.177H1186.06V203.042Z" fill="black"/>
<path d="M1566.03 133.118C1562.35 142.619 1557.13 150.907 1550.51 157.751C1543.87 164.599 1535.91 170.043 1526.83 173.934C1517.72 177.834 1507.65 179.812 1496.91 179.812H1444.74C1434.17 179.812 1424.25 177.83 1415.24 173.92C1406.24 170.022 1398.37 164.567 1391.84 157.708C1385.32 150.866 1380.16 142.591 1376.5 133.115C1372.86 123.703 1371.02 113.42 1371.02 102.554C1371.02 91.4668 1372.87 81.1655 1376.52 71.9349C1380.19 62.6629 1385.35 54.5402 1391.88 47.7962C1398.41 41.0402 1406.29 35.6895 1415.3 31.8935C1424.3 28.1002 1434.2 26.1762 1444.74 26.1762H1496.91C1507.62 26.1762 1517.67 28.0962 1526.76 31.8815C1535.84 35.6669 1543.82 41.0055 1550.46 47.7495C1557.11 54.5109 1562.34 62.7055 1566.02 72.1082C1569.67 81.4455 1571.52 91.6868 1571.52 102.554C1571.52 113.407 1569.67 123.69 1566.03 133.118ZM1567.64 30.0468C1559.14 21.5495 1548.79 14.8402 1536.88 10.1095C1524.91 5.3562 1511.46 2.94687 1496.91 2.94687H1444.74C1430.77 2.94687 1417.71 5.30952 1405.93 9.96685C1394.19 14.6055 1383.88 21.2309 1375.28 29.6589C1366.69 38.0642 1359.89 48.4042 1355.09 60.3909C1350.24 72.4562 1347.78 86.0455 1347.78 100.784C1347.78 115.355 1350.25 129.066 1355.11 141.535C1359.95 153.963 1366.79 164.827 1375.43 173.831C1384.07 182.839 1394.41 190.044 1406.19 195.246C1417.9 200.419 1430.87 203.043 1444.74 203.043H1496.91C1511.18 203.043 1524.4 200.416 1536.21 195.238C1548.07 190.039 1558.46 182.839 1567.1 173.834C1575.74 164.827 1582.58 153.962 1587.42 141.536C1592.28 129.055 1594.75 115.343 1594.75 100.784C1594.75 86.2402 1592.34 72.7909 1587.58 60.8095C1582.85 48.9029 1576.15 38.5535 1567.64 30.0468" fill="black"/>
<path d="M1867.14 103.834C1857.24 94.8815 1842.13 90.3415 1822.24 90.3415H1724.08C1713.99 90.3415 1705.76 87.4109 1699.61 81.6322C1693.34 75.7442 1690.15 69.7749 1690.15 59.5149C1690.15 49.3202 1693.25 41.1175 1699.36 35.1322C1705.44 29.1895 1713.85 26.1762 1724.37 26.1762H1871.14V2.94687H1724.37C1714.66 2.94687 1705.96 4.33619 1698.54 7.07753C1691.22 9.78153 1685.04 13.4882 1680.18 18.0975C1675.37 22.6522 1671.69 28.1749 1669.25 34.5135C1666.72 41.0295 1665.45 48.2509 1665.45 55.9789C1665.45 63.8629 1666.81 73.4082 1669.49 79.9749C1672.14 86.4935 1675.95 92.1709 1680.82 96.8562C1685.69 101.56 1691.81 105.306 1699 107.99C1706.31 110.724 1714.65 112.11 1723.79 112.11H1822.24C1833.95 112.11 1843.28 115.014 1849.99 120.74C1857.03 126.758 1860.59 135.566 1860.59 146.922C1860.59 157.366 1857.11 163.728 1850.26 170.207C1843.52 176.58 1834.09 179.812 1822.24 179.812H1668.69V203.043H1822.24C1832.52 203.043 1841.55 201.608 1849.07 198.78C1856.4 196.02 1862.53 192.17 1867.28 187.334C1872.03 182.5 1875.65 176.672 1878.05 170.008C1880.51 163.15 1881.76 155.528 1881.76 147.359C1881.76 128.722 1876.84 112.607 1867.14 103.834Z" fill="black"/>
<path d="M201.695 103.834C191.789 94.8815 176.68 90.3415 156.791 90.3415H58.632C48.5413 90.3415 40.3107 87.4109 34.164 81.6322C27.888 75.7442 24.704 69.7749 24.704 59.5149C24.704 49.3202 27.8013 41.1175 33.912 35.1322C39.9867 29.1895 48.4027 26.1762 58.9253 26.1762H205.696V2.94687H58.9253C49.2107 2.94687 40.516 4.33619 33.0867 7.07753C25.772 9.78153 19.5947 13.4882 14.7293 18.0975C9.92533 22.6522 6.24532 28.1749 3.79732 34.5135C1.27599 41.0295 0 48.2509 0 55.9789C0 63.8629 1.35866 73.4082 4.04266 79.9749C6.696 86.4935 10.5053 92.1709 15.368 96.8562C20.2413 101.56 26.36 105.306 33.5547 107.99C40.8627 110.724 49.2 112.11 58.3373 112.11H156.791C168.5 112.11 177.836 115.014 184.541 120.74C191.577 126.758 195.141 135.566 195.141 146.922C195.141 157.366 191.665 163.728 184.809 170.207C178.069 176.58 168.643 179.812 156.791 179.812H3.244V203.043H156.791C167.076 203.043 176.103 201.608 183.619 198.78C190.956 196.02 197.085 192.17 201.836 187.334C206.581 182.5 210.204 176.672 212.603 170.008C215.061 163.15 216.308 155.528 216.308 147.359C216.308 128.722 211.391 112.607 201.695 103.834Z" fill="black"/>
</svg>
