<?xml version="1.0" encoding="utf-8"?>
<!-- Generator: Adobe Illustrator 25.4.1, SVG Export Plug-In . SVG Version: 6.00 Build 0)  -->
<svg version="1.1" id="Layer_1" xmlns="http://www.w3.org/2000/svg" xmlns:xlink="http://www.w3.org/1999/xlink" x="0px" y="0px"
	 viewBox="0 0 1221.4 199.4" style="enable-background:new 0 0 1221.4 199.4;" xml:space="preserve">
<path d="M134.1,198c41.1-20.5,82.2-41.1,123.3-61.6c5-2.5,5.7-4.5,3.1-9.5c-8.7-17.4-17.4-34.9-26.2-52.3
	C223.1,52,211.8,29.5,200.6,7c-1.2-2.5-2.3-5.1-5.1-6.4c-0.2-0.1-0.2-0.4-0.1-0.6c-0.6,0-1.3,0-1.9,0c-0.2,0.5-0.8,0.5-1.2,0.7
	c-2,1-2.9,2.7-3.1,4.8c-0.1,0.8,0,1.6,0,2.4c0,35.5,0,71.1,0,106.6c0,1,0,2.1,0,3.3c-1.2-0.3-1.7-1.2-2.3-1.8
	c-16.7-16.6-33.4-33.3-50-50c-0.6-0.6-1.2-1.3-1.9-1.8c-2.1-1.6-4.8-1.5-6.8,0.2c-0.5,0.5-1,1-1.5,1.5
	c-16.8,16.8-33.6,33.5-50.4,50.3c-0.6,0.6-1.2,1.2-2.2,2.1c0-1.3,0-2.1,0-3c0-35.6,0-71.2,0-106.9c0-0.9,0-1.8,0-2.6
	c0-2.6-1.1-4.4-3.5-5.4c-0.3-0.1-0.6-0.2-0.8-0.5c-0.6,0-1.3,0-1.9,0c-2.4,1-3.7,3-4.8,5.3c-20.2,40.5-40.5,81-60.7,121.4
	c-0.6,1.3-1,2.7-2.1,3.7c0,0.5,0,1,0,1.4c0.2,0.2,0.5,0.5,0.6,0.7c0.7,2,2.3,3.1,4.2,4c16.3,8.1,32.6,16.3,48.9,24.4
	c24.5,12.2,49,24.5,73.5,36.7c1.1,0.6,2.3,1.1,3.4,1.7c0.6,0,1.3,0,1.9,0C132.4,198.3,133.4,198.3,134.1,198z M199.7,124.4
	c0-0.3,0-0.6,0-1c0-31,0-62,0-93c0-0.5,0-1.1,0-1.6c0.1-0.1,0.3-0.1,0.4-0.2c16.2,32.3,32.3,64.5,48.5,97c-1,0.5-1.7,0.3-2.4,0.3
	c-14.6,0-29.3,0-43.9,0c-0.3,0-0.6,0-1,0C200.2,126.1,199.6,125.7,199.7,124.4z M194.9,138.1c1.2-1.2,2.3-1.7,4-1.7
	c10.9,0.1,21.8,0,32.6,0c0.8,0,1.5,0.1,2.3,0.1c0,0.1,0.1,0.3,0.1,0.4c-24.7,12.4-49.5,24.7-74.5,37.2c0.4-1.1,1-1.5,1.5-2
	C172.2,160.9,183.6,149.5,194.9,138.1z M136.9,81.8c0.8-0.3,1.1,0.5,1.5,0.9c15.7,15.7,31.5,31.4,47.2,47.1c1.4,1.4,1.4,1.4,0.2,2.6
	c-16.1,16-32.1,32.1-48.2,48.1c-0.1,0.1-0.3,0.2-0.7,0.4C136.9,147.7,136.9,114.8,136.9,81.8z M14.4,125.7
	C30.6,93.3,46.7,61,62.9,28.7c0.2,0,0.3,0.1,0.5,0.1c0,1.1,0,2.2,0,3.3c0,30.3,0,60.6,0,90.8c0,3.3,0.4,3-2.9,3
	c-14.5,0-28.9,0-43.4,0C16.3,126,15.5,126.1,14.4,125.7z M28.9,136.9c1-0.5,1.7-0.4,2.4-0.4c11,0,22.1,0,33.1,0
	c1.4,0,2.4,0.3,3.4,1.3c11.5,11.6,23.1,23.1,34.6,34.6c0.4,0.4,1,0.7,1.1,1.8C78.6,161.7,53.9,149.4,28.9,136.9z M126.2,181.1
	c-0.7-0.7-1.3-1.1-1.7-1.6c-15.5-15.5-31.1-31-46.6-46.6c-0.2-0.2-0.4-0.5-0.7-0.7c-0.7-0.6-1-1.2-0.1-1.9c0.3-0.2,0.6-0.6,0.9-0.8
	c15.4-15.4,30.9-30.8,46.3-46.2c0.6-0.6,1.1-1.3,2-1.6C126.2,114.8,126.2,147.8,126.2,181.1z"/>
<path d="M1209.9,55.4c-13.4,0-26.9,0-40.3,0c-4.5,0-5,0.5-5.1,5.1c-0.1,5.3,0,10.5,0,15.8c0,20,0,40.1,0,60.1c0,1.8,0.1,3.5,0.4,5.2
	c0.3,1.5,1,2.3,2.6,2.3c0.2,0,0.5,0,0.7,0c16.4,0,32.8,0,49.2,0c1.4,0,2.6-0.7,4-0.7c0-4.2,0-8.3,0-12.5c-0.8-1.5-2.2-1.5-3.7-1.5
	c-11,0-22.1,0-33.1,0c-0.5,0-1,0-1.4,0c-2.2,0-2.3,0.4-2.3-2.2c0-4.7,0-9.4,0-14.1c0-1.3,0-2.6,0-3.8c0-2.7-0.2-2.4,2.5-2.4
	c6.3,0,12.6,0,18.9,0c3.2,0,6.4,0,9.6,0c2.4,0,3.2-0.8,3.2-3.1c0-3,0-5.9,0-8.9c0-2.9-0.8-3.7-3.7-3.7c-9.2,0-18.4,0-27.6,0
	c-0.5,0-1-0.1-1.4,0c-1.4,0.2-1.6-0.5-1.5-1.6c0-5.8,0-11.7,0-17.5c0-1.9,0-1.9,2-1.9c11.1,0,22.2,0,33.3,0c0.6,0,1.3-0.1,1.9,0
	c1.4,0.2,2.4-0.5,3.2-1.6c0-4.2,0-8.3,0-12.5C1217.6,55.1,1213.8,55.4,1209.9,55.4z"/>
<path d="M942,56.8c-0.5-3.1-1.4-3.7-4.5-3.5c-1.8,0.1-2.4,1.3-3,2.7c-5.8,12.4-11.5,24.7-17.3,37.1c-3.4,7.4-6.9,14.7-10.5,22.6
	c-0.4-0.7-0.7-1-0.8-1.4c-2.8-6-5.6-12-8.4-18c-6.3-13.5-12.6-27-18.9-40.6c-1-2.2-2.3-2.8-4.9-2.3c-1.6,0.3-2.1,0.8-2.5,3.3
	c-1.8,10.1-3.6,20.3-5.4,30.4c-2.5,14.1-5,28.1-7.5,42.2c-0.7,4.1-1.5,8.2-2.1,12.3c-0.4,2.6,0.4,3.4,3,3.4c3,0,5.9,0,8.9,0
	c4,0,4.2-0.2,4.8-4.2c2.1-14.1,4.3-28.2,6.5-42.4c0.2-1.3,0.1-2.6,0.8-3.9c0.8,0.7,0.9,1.5,1.3,2.2c5.1,11.2,10.1,22.4,15.1,33.6
	c2.1,4.6,4.1,9.2,6.2,13.7c0.4,1,0.9,1.9,2,2.2c2.8,0.8,4.5,0,5.7-2.8c7-15.7,14-31.3,21-47c0.3-0.7,0.4-1.5,1.3-1.9
	c1.8,11.7,3.6,23.3,5.4,34.9c0.7,4.3,1.3,8.5,2,12.8c0.3,1.7,1.1,2.7,2.5,2.7c4.1,0.1,8.2,0.1,12.2,0c1.3,0,2-0.9,2-2.2
	c0-0.6-0.1-1.1-0.2-1.7C951.8,112.9,946.9,84.8,942,56.8z"/>
<path d="M411.9,54.7c-3,0-6.1,0-9.1,0c-3,0-3.4,0.3-4.1,3.2c-4.1,16.1-8.2,32.1-12.4,48.2c-0.1,0.6-0.1,1.2-0.8,1.7
	c-0.3-0.7-0.6-1.3-0.9-2c-3.4-8.8-6.9-17.7-10.3-26.5c-3-7.8-6.1-15.6-9.1-23.4c-0.4-1-0.7-1.9-1.8-2.3c-2.8-0.9-4.8,0-5.9,2.7
	c-4.9,12.8-9.9,25.6-14.8,38.4c-1.7,4.4-3.4,8.7-5.2,13.3c-0.7-0.6-0.7-1.1-0.8-1.5c-2.7-10.2-5.3-20.4-8-30.5
	c-1.6-6.2-3.2-12.4-4.8-18.5c-0.5-1.9-1.2-2.6-2.9-2.6c-3.8-0.1-7.7-0.1-11.5,0c-2,0-2.7,1-2.4,3c0.1,0.7,0.3,1.4,0.5,2.1
	c7.8,27.8,15.7,55.6,23.5,83.4c0.8,2.7,1.3,3,4,3.1c2.3,0.1,3-1.4,3.6-3.1c7.1-18.1,14.1-36.3,21.3-54.4c0.3-0.8,0.4-1.7,1.2-2.3
	c0.8,0.4,0.8,1.2,1.1,1.8c2.3,5.7,4.5,11.4,6.8,17.1c5,12.7,10,25.4,15,38.1c0.6,1.6,1.3,2.8,3.4,2.8c2.9-0.1,3.4-0.3,4.2-3.2
	c5.4-19.2,10.8-38.4,16.2-57.6c2.5-8.8,5-17.7,7.4-26.5C416.2,55.5,415.6,54.7,411.9,54.7z"/>
<path d="M568.6,57.1c-0.2-1.4-1-2.4-2.5-2.4c-4-0.1-8-0.1-12,0c-1.4,0-2.2,0.9-2.3,2.3c-0.1,0.7,0,1.4,0,2.2c0,16,0,31.9,0,47.9
	c0,0.9,0,1.7,0,2.6c-0.2,0.1-0.3,0.1-0.5,0.2c-3.1-3.3-6.2-6.6-9.4-9.9c-14.2-15.1-28.4-30.1-42.6-45.2c-1.4-1.4-3.6-1.9-5.4-1.2
	c-1,0.4-1.6,1-1.6,2.1c0,0.6,0,1.1,0,1.7c0,27.8,0,55.6,0,83.4c0,0.6,0,1.1,0,1.7c0.1,1.5,1,2.4,2.5,2.4c3.9,0.1,7.8,0.1,11.8,0
	c1.4,0,2.2-0.8,2.4-2.2c0.1-0.7,0.1-1.4,0.1-2.2c0-16.8,0-33.5,0-50.3c0-0.8,0-1.7,0-3.1c0.9,1,1.5,1.5,2,2.1
	c16.8,18.5,33.7,36.9,50.5,55.5c1.6,1.8,3.3,1.7,5.2,1.4c1.1-0.2,1.8-1,1.9-2.2c0-0.6,0-1.1,0-1.7c0-27.8,0-55.6,0-83.4
	C568.6,58.2,568.7,57.7,568.6,57.1z"/>
<path d="M824,102.1c7.4-7,10.5-15.5,8.3-25.6c-2.8-12.8-14-21.8-27.1-21.8c-12.1-0.1-24.2,0-36.2,0c-0.3,0-0.6,0-1,0
	c-1.5,0.1-2.3,0.9-2.5,2.4c-0.1,0.6,0,1.3,0,1.9c0,27.2,0,54.3,0,81.5c0,0.6,0,1.1,0,1.7c0.1,1.8,0.9,2.6,2.7,2.7
	c3.8,0.1,7.7,0.1,11.5,0c1.7,0,2.5-0.9,2.6-2.5c0-0.6,0-1.1,0-1.7c0-9.7,0-19.5,0-29.2c0-1.7,0-1.7,1.7-1.7c3.7,0,7.4,0,11,0
	c1.2,0,1.9,0.5,2.4,1.5c1,2.1,2.1,4.1,3.1,6.2c4.3,8.5,8.6,17,12.8,25.5c0.6,1.3,1.3,2.1,2.9,2c4.3-0.1,8.6,0,13,0
	c2.5,0,3.4-1.6,2.4-3.9c-0.6-1.2-1.3-2.4-1.9-3.6c-5.2-9.6-10.3-19.1-15.6-28.8c0.8-0.4,1.5-0.7,2.1-1.1
	C819,106,821.7,104.3,824,102.1z M803.7,95.7c-4.3,0.2-8.6,0.1-12.9,0.1c-2.2,0-4.3,0-6.5,0c-1.7,0-1.8,0-1.8-1.7
	c0-3.7,0-7.5,0-11.2c0-3.6,0-7.2,0-10.8c0-1.9,0-1.9,2-1.9c6.2,0,12.5-0.1,18.7,0c6.4,0.1,11.6,4.3,12.7,10.2
	C817.4,88,811.7,95.3,803.7,95.7z"/>
<path d="M1055.3,85.5c0-8.9,0-17.7,0-26.6c0-0.6,0-1.3,0-1.9c-0.2-1.3-1-2.3-2.3-2.3c-4.2-0.1-8.3-0.1-12.5,0
	c-1.4,0-2.2,0.9-2.3,2.3c-0.1,0.6,0,1.3,0,1.9c0,16.6,0,33.2,0,49.9c0,2-0.1,4-0.5,6c-1.8,8.3-8.6,14.1-17.1,14.7
	c-8.6,0.5-15.9-4.3-18.7-12.4c-0.9-2.7-1.2-5.4-1.2-8.3c0-16.5,0-33.1,0-49.6c0-0.6,0-1.1,0-1.7c-0.1-1.8-0.9-2.7-2.6-2.7
	c-4-0.1-8-0.1-12,0c-1.5,0-2.4,0.9-2.5,2.4c-0.1,0.5,0,1,0,1.4c0,17.5,0,35,0,52.5c0,3,0.4,5.9,1.2,8.8
	c6.3,23.7,33.3,33.3,53.4,21.4c11.1-6.6,16.8-16.6,17.2-29.5C1055.5,102.9,1055.3,94.2,1055.3,85.5
	C1055.3,85.5,1055.3,85.5,1055.3,85.5z"/>
<path d="M696.1,70.1c0.6,0,1.1,0,1.7,0c11.1,0,22.2,0,33.3,0c0.6,0,1.3,0,1.9,0c1.5-0.2,2.2-0.8,2.3-2.3c0.1-3.6,0.1-7.2,0-10.8
	c0-1.5-0.9-2.2-2.5-2.4c-0.5,0-1,0-1.4,0c-16.5,0-32.9,0-49.4,0c-0.6,0-1.3-0.1-1.9,0c-1.1,0.2-1.9,0.9-2,2c-0.1,0.6,0,1.3,0,1.9
	c0,13.7,0,27.3,0,41c0,13.9,0,27.8,0,41.7c0,2.9,0.6,3.5,3.5,3.5c2.3,0,4.6,0,7,0c14.5,0,28.9,0,43.4,0c2.8,0,3.4-0.6,3.4-3.3
	c0-3.1,0-6.2,0-9.3c0-2-0.8-2.7-2.8-2.8c-0.6,0-1.3,0-1.9,0c-11.3,0-22.6,0-33.8,0c-2,0-2,0-2-1.9c0-6.2,0-12.5,0-18.7
	c0-2.1,0-1.9,2-1.9c5.1,0,10.2,0,15.4,0c4.6,0,9.3,0,13.9,0c2,0,2.9-0.8,2.9-2.6c0.1-3.4,0.1-6.9,0-10.3c0-1.7-0.9-2.6-2.7-2.7
	c-0.6-0.1-1.1,0-1.7,0c-9.3,0-18.6,0-27.8,0c-2.2,0-2,0.2-2-2.1c0-5.2,0-10.4,0-15.6c0-0.7,0-1.4,0-2.2
	C694.8,70.4,695.2,70.1,696.1,70.1z"/>
<path d="M650.7,54.7c-4.6,0-9.1,0-13.7,0c-13.6,0-27.2,0-40.8,0c-2.9,0-3.5,0.7-3.6,3.5c0,2.9,0,5.8,0,8.6c0,2.7,0.7,3.3,3.4,3.4
	c5,0,10.1,0,15.1,0c0.6,0,1.3,0,1.9,0c1.6,0,1.6,0,1.7,1.8c0,0.4,0,0.8,0,1.2c0,11.2,0,22.4,0,33.5c0,11.3,0,22.5,0,33.8
	c0,0.6,0,1.1,0,1.7c0.1,1.7,1,2.7,2.7,2.7c3.8,0.1,7.7,0.1,11.5,0c1.8,0,2.6-0.8,2.7-2.6c0.1-1,0-1.9,0-2.9c0-22.2,0-44.4,0-66.6
	c0-2.9,0-2.6,2.6-2.6c5.4,0,10.9,0,16.3,0c2.5,0,3.3-0.8,3.3-3.3c0-3,0-5.9,0-8.9C654,55.5,653.2,54.7,650.7,54.7z"/>
<path d="M1136.9,54.7c-18.3,0-36.6,0-54.9,0c-2.4,0-3.2,0.7-3.2,3.1c0,3,0,5.9,0,8.9c0,2.9,0.6,3.5,3.5,3.5c5.4,0,10.7,0,16.1,0
	c2.8,0,2.5-0.2,2.5,2.6c0,22.5,0,45.1,0,67.6c0,0.6,0,1.3,0,1.9c0.1,1.6,1,2.5,2.6,2.6c3.9,0.1,7.8,0.1,11.8,0
	c1.7,0,2.4-0.8,2.5-2.5c0-0.6,0-1.1,0-1.7c0-11.2,0-22.4,0-33.6c0-11.3,0-22.7,0-34c0-0.6,0-1.1,0-1.7c-0.1-1,0.4-1.3,1.3-1.2
	c0.6,0,1.1,0,1.7,0c5.4,0,10.7,0,16.1,0c2.4,0,3.1-0.7,3.2-3.1c0-3,0-6.1,0-9.1C1140,55.4,1139.3,54.7,1136.9,54.7z"/>
<path d="M458,57.3c-0.2-1.8-1-2.6-2.7-2.7c-3.8-0.1-7.7-0.1-11.5,0c-1.7,0-2.6,1-2.7,2.7c0,0.6,0,1.1,0,1.7c0,13.6,0,27.2,0,40.7
	c0,13.7,0,27.5,0,41.2c0,3.3,0.6,3.9,3.9,3.9c3.1,0,6.2,0,9.4,0c3,0,3.6-0.6,3.7-3.6c0-0.3,0-0.6,0-1c0-26.9,0-53.8,0-80.7
	C458.1,58.8,458.1,58.1,458,57.3z"/>
</svg>
