<?xml version="1.0" encoding="utf-8"?>
<!-- Generator: Adobe Illustrator 25.4.1, SVG Export Plug-In . SVG Version: 6.00 Build 0)  -->
<svg version="1.1" id="Layer_1" xmlns="http://www.w3.org/2000/svg" xmlns:xlink="http://www.w3.org/1999/xlink" x="0px" y="0px"
	 viewBox="0 0 894.2 175.6" style="enable-background:new 0 0 894.2 175.6;" xml:space="preserve">
<path d="M888.4,123.2c-140,0-280,0-420,0c-1.9,0-3.8,0-5.7,0c0,6.4,0,12,0,17.6c143.7,0,287.1,0,430.5,0c0.3-5.5,0.6-10.6,0.9-15.7
	c0-0.3,0-0.7,0-1C892.3,123.7,890.4,123.2,888.4,123.2z"/>
<path d="M258,87.9c-1.7-0.8-3.5-1.5-5.6-2.4c1-0.6,1.5-1.1,2.1-1.3c28.5-12.9,27.2-55.6,3.7-70.7c-9.8-6.3-20.6-9.7-32-10.1
	c-23.6-0.8-47.3-0.6-71-0.8c-0.8,0-1.6,0.3-2.5,0.4c0,56.8,0,113.3,0,170.3c17,0,33.6,0.2,50.2-0.1c10.6-0.1,21.4-0.1,31.9-1.4
	c30.1-3.8,45.3-21.5,44.4-51.7C278.9,105.2,271.8,94.2,258,87.9z M188.3,31.9c11.8,0,23.3-0.8,34.6,0.2c11.9,1.1,17.4,8.4,17.5,20.3
	c0.1,11.5-5.9,19.4-17.4,20.5c-11.3,1-22.8,0.2-34.6,0.2C188.3,59.7,188.3,45.7,188.3,31.9z M244.1,125.4c-0.7,9.8-8.3,17.9-19,18.6
	c-12.1,0.7-24.2,0.2-37,0.2c0-14.7,0-29.6,0-45.9c14,0.7,28,0.5,41.6,2.5C240.4,102.4,245.1,112.2,244.1,125.4z"/>
<path d="M411.7,90.8c-11.1-8.6-24.1-13.3-37.2-17.9c-8.6-3-17.2-6.4-25.4-10.3c-6.4-3.1-10.3-8.5-9.7-16.1
	c0.6-7.8,5.2-12.8,12.2-15.6c8.5-3.4,17.3-3.5,26-1.2c10,2.7,15.5,9.5,16.8,20c0.1,1,0.4,1.9,0.6,2.9c11.6,0,23,0,34.8,0
	c0-2,0.2-3.6,0-5.2c-1.8-14.8-8.6-26.8-20.9-35.4c-22.2-15.5-60-15.9-83.6-1.1c-26.4,16.6-28.7,50.6-4.9,70.7
	c10.7,9,23.5,13.7,36.3,18.5c9.3,3.5,18.8,6.8,27.7,11.2c8.4,4.1,11.3,11.2,9.8,20.5c-1.3,8.1-6.9,12.3-14.3,14.3
	c-9.5,2.6-19.2,2.2-28.5-0.8c-9.6-3.1-15.3-9.7-16.7-19.8c-0.3-1.9-0.7-3.8-1-5.8c-11.6,0-22.9,0-34.8,0
	c0.2,16.3,5.9,29.4,18.1,39.4c22.6,18.5,64.3,22.1,89.9,7.9c8.7-4.8,15.6-11.3,19.6-20.6C434.8,126.7,428.9,104.2,411.7,90.8z"/>
<path d="M46.7,141.2C73,103.1,99.3,65,125.5,26.9c1.2-1.7,2.6-3.7,2.7-5.7c0.4-6,0.1-12,0.1-18.3c-43.1,0-85.6,0-128.1,0
	c0,9.4,0,18.5,0,28.1c28,0,55.7,0,84.2,0c-1.4,2.1-2.3,3.4-3.2,4.8C55.9,72.1,31,108.7,5.1,144.7C-1.7,154,0.4,163.3,0,173
	c43.7,0,86.8,0,130.1,0c0-9.4,0-18.4,0-28.2c-28.6,0-56.9,0-85.8,0C45.4,143.1,46,142.2,46.7,141.2z"/>
<path d="M779.8,105.8c0.4-0.8,0.7-1.4,0.9-2c1.7-4.5,2.1-10.9,5.3-13c3.5-2.3,9.6-0.8,14.6-0.8c11.8,0,11.8,0,15.7,11.4
	c0.2,0.6,0.3,1.4,0.7,1.9c1,1,2.2,2.5,3.4,2.6c4.4,0.3,8.9,0.1,13.9,0.1c-0.7-2-1.2-3.6-1.8-5.1c-7.6-20.4-15.3-40.8-22.9-61.2
	c-3.6-9.6-3.6-9.4-13.7-9.6c-3.5-0.1-4.9,1.2-6,4.3c-6.2,17-12.6,34-18.9,51c-2.5,6.7-5,13.3-7.6,20.4
	C769.3,105.8,774.6,105.8,779.8,105.8z M798.8,49.5c3.3,9.8,6.3,18.5,9.4,27.7c-6.3,0-12.2,0-18.7,0
	C792.6,68.2,795.5,59.5,798.8,49.5z"/>
<path d="M554.2,93.4c0.8-2.7,2.2-3.6,5-3.5c6.7,0.2,13.3,0.2,20,0c2.6-0.1,3.7,0.8,4.6,3.3c4.9,13.9,5,13.8,20.7,12.5
	c-0.7-1.9-1.1-3.3-1.7-4.7c-7.7-20.6-15.4-41.1-23.2-61.7c-3.4-9.2-3.4-9-13-9.3c-3.8-0.1-5.5,1.1-6.8,4.7
	c-4.6,13-9.6,25.9-14.4,38.8c-3.9,10.6-7.8,21.2-11.8,32.1c5.8,0,11.1,0,16.6,0C551.5,101.7,553,97.6,554.2,93.4z M568.4,51
	c0.3,0,0.7,0,1,0c2.9,8.6,5.8,17.2,8.9,26.4c-6.2,0-12,0-18.6,0C562.6,68.4,565.5,59.7,568.4,51z"/>
<path d="M627.4,79.5c7.6-0.4,14.6-0.4,21.4-1.3c12.3-1.6,20.4-9.9,20.8-20.6c0.5-14.1-6-24.5-19.1-26.2c-12.5-1.6-25.4-0.3-38.3-0.3
	c0,24.5,0,49.4,0,74.5c5.2,0,10,0,15.2,0C627.4,96.9,627.4,88.4,627.4,79.5z M627.8,43.1c5.6,0,11.1-0.5,16.4,0.1
	c6.6,0.7,10.5,6.5,9.9,13.3c-0.5,6.1-4.7,9.6-11.7,9.7c-4.3,0.1-8.6,0-12.9-0.1c-0.5,0-0.9-0.3-1.7-0.5
	C627.8,58.4,627.8,51,627.8,43.1z"/>
<path d="M504.9,106.8c14.1-1.5,24-11.8,24.5-25.7c-4.9,0-9.9,0-14.8,0c-0.3,0.8-0.6,1.4-0.8,2c-2.2,8.2-5.6,10.9-13.6,11.1
	c-8.1,0.1-13-2.9-14.8-10.5c-2.5-10.5-2.8-21.1,0.4-31.5c2.2-7.3,7.2-10.2,15.3-9.9c7.2,0.3,10.7,3.3,12.7,11
	c0.2,0.9,0.6,1.8,0.8,2.5c5.3,0,10.2,0,15.1,0c-1.1-9.2-4-15-9.3-19.6c-15.6-13.2-41.3-7.1-49.1,11.7c-3.6,8.6-3.3,17.5-3.1,26.5
	C468.6,96.2,483.2,109.1,504.9,106.8z"/>
<path d="M728.6,105.6c5.5,0,10.4,0,15.7,0c0-21,0-41.6,0-62.7c7.8,0,15.2,0,22.6,0c0-4.5,0-8.4,0-12.4c-20.5,0-40.8,0-61.2,0
	c0,4.2,0,8.1,0,12.4c7.5,0,14.8,0,23,0C728.6,64.4,728.6,85.1,728.6,105.6z"/>
<path d="M889.8,93.2c-11,0-21.6,0-33,0c0-21.3,0-41.9,0-62.7c-5.3,0-10.2,0-15.3,0c0,25.2,0,50.1,0,75.2c16.3,0,32.3,0,48.3,0
	C889.8,101.4,889.8,97.5,889.8,93.2z"/>
<path d="M696.8,30.3c-5,0-9.7,0-14.8,0c0,25.4,0,50.4,0,75.4c5.2,0,10,0,14.8,0C696.8,80.4,696.8,55.4,696.8,30.3z"/>
</svg>
